<?xml version="1.0" encoding="UTF-8" standalone="no"?> <svg xmlns="http://www.w3.org/2000/svg" version="1.0" width="2048.000000pt" height="2048.000000pt" viewBox="0 0 2048.000000 2048.000000" preserveAspectRatio="xMidYMid meet"><g transform="translate(0.000000,2048.000000) scale(0.100000,-0.100000)" fill="#000000" stroke="none"><path d="M9985 17473 c-357 -6 -1023 -44 -1555 -88 -1195 -101 -1786 -200 -2400 -404 -178 -59 -479 -185 -468 -196 2 -3 54 6 114 20 268 60 849 143 1149 164 83 6 308 18 500 26 769 32 872 38 1635 90 767 53 929 62 1285 75 531 19 1051 11 1505 -25 311 -25 563 -58 1224 -160 613 -94 718 -105 821 -87 l40 7 -65 37 c-93 52 -138 68 -380 136 -741 209 -1353 315 -2185 377 -197 15 -943 38 -1040 33 -27 -2 -108 -4 -180 -5z"></path><path d="M13895 16766 l-7 -55 -52 -5 c-28 -3 -107 -10 -176 -16 -69 -6 -296 -27 -505 -45 -556 -51 -732 -58 -1270 -50 -391 5 -494 4 -615 -9 -139 -15 -147 -17 -198 -52 -29 -20 -51 -40 -50 -43 30 -60 53 -82 101 -96 154 -44 371 -85 451 -85 28 0 62 -3 75 -7 22 -6 19 -8 -24 -25 -62 -24 -128 -71 -160 -112 -65 -85 -92 -220 -65 -318 17 -59 99 -173 216 -298 219 -235 280 -330 291 -449 l6 -62 -50 -48 c-27 -26 -76 -61 -109 -76 -51 -25 -74 -29 -171 -33 -187 -7 -287 23 -560 171 -182 99 -235 124 -371 171 -191 66 -390 96 -767 116 -361 19 -453 52 -486 173 -6 22 -8 59 -4 82 18 124 208 394 331 472 61 38 56 49 -8 17 -126 -63 -252 -177 -338 -306 -59 -89 -83 -160 -84 -248 -1 -117 46 -190 161 -249 82 -41 169 -55 478 -72 334 -18 532 -53 720 -126 120 -48 144 -60 330 -171 261 -157 391 -203 574 -203 145 0 267 38 374 114 149 107 200 224 168 388 -28 141 -89 233 -301 455 -223 232 -262 304 -208 384 45 67 155 100 338 100 354 0 740 -174 990 -448 155 -169 293 -404 360 -612 77 -237 75 -388 -7 -552 -106 -212 -310 -394 -598 -533 -235 -115 -480 -165 -794 -165 -301 1 -507 40 -1029 196 -548 164 -620 178 -907 179 -288 0 -396 -23 -890 -185 -434 -143 -604 -176 -865 -167 -124 4 -173 10 -248 31 -139 39 -317 114 -612 258 -225 110 -275 131 -330 138 -36 4 -69 4 -73 0 -5 -4 11 -43 35 -86 41 -74 53 -86 202 -206 331 -266 528 -369 797 -414 81 -13 134 -16 244 -10 247 11 463 60 836 192 387 136 557 174 784 174 233 0 373 -30 815 -175 599 -196 788 -235 1150 -235 382 0 689 70 1015 229 430 212 705 503 807 856 19 67 23 102 22 215 -1 116 -5 151 -32 251 -34 134 -88 275 -140 369 -229 419 -636 740 -1083 854 l-87 22 167 23 c321 45 915 179 1234 279 l188 59 -6 -56 c-4 -31 -20 -123 -36 -206 -54 -284 -66 -395 -74 -705 -4 -118 -13 -363 -21 -544 -8 -181 -14 -415 -14 -520 0 -348 -48 -704 -112 -829 -61 -121 -258 -231 -504 -281 -223 -46 -275 -48 -1129 -56 -451 -4 -1405 -14 -2120 -21 -1495 -15 -1878 -15 -2385 0 -405 11 -640 4 -703 -23 -31 -14 -36 -20 -27 -31 16 -19 88 -32 279 -50 273 -26 740 -35 1666 -34 603 1 1029 -4 1355 -14 1543 -51 2445 -45 2870 18 38 6 8 -14 -197 -128 -289 -161 -484 -276 -693 -407 -280 -176 -271 -174 -645 -174 -154 -1 -647 3 -1095 8 -806 9 -1011 5 -1420 -24 -128 -10 -275 -35 -293 -50 -5 -4 11 -13 35 -20 45 -12 401 -21 1538 -35 316 -4 728 -10 915 -14 l340 -6 -90 -68 c-111 -84 -209 -133 -300 -151 -55 -11 -244 -15 -865 -20 -746 -5 -990 -13 -1050 -35 -14 -5 -34 -12 -45 -16 -17 -6 -16 -8 15 -21 71 -31 735 -63 1284 -64 l279 0 -39 -29 c-56 -41 -137 -129 -184 -202 -138 -212 -284 -626 -309 -874 -7 -71 -23 -130 -76 -280 -36 -104 -77 -228 -89 -275 l-23 -85 -59 -16 c-107 -28 -143 -56 -189 -147 l-26 -54 23 8 c35 11 165 5 235 -11 115 -27 193 -80 236 -160 18 -34 22 -57 22 -150 0 -143 -18 -198 -89 -272 -47 -48 -56 -53 -94 -53 -57 0 -116 32 -152 81 -24 34 -111 238 -134 315 -4 11 -17 31 -31 44 l-24 23 -7 -28 c-18 -72 20 -275 70 -373 56 -109 158 -174 277 -176 67 0 69 -1 80 -31 7 -16 34 -57 59 -90 56 -71 293 -402 405 -565 228 -332 465 -616 660 -793 238 -216 281 -289 720 -1222 148 -315 170 -371 203 -509 25 -102 27 -128 26 -311 0 -126 -7 -248 -18 -330 -51 -397 -26 -663 93 -976 66 -172 149 -328 310 -588 239 -385 284 -495 284 -711 1 -99 -4 -143 -21 -210 -28 -106 -105 -264 -171 -351 -74 -98 -222 -233 -352 -324 -226 -157 -306 -221 -414 -329 -129 -129 -200 -229 -315 -446 -46 -85 -110 -206 -143 -268 -76 -142 -83 -152 -97 -132 -20 29 -70 201 -87 298 -15 84 -17 156 -15 552 3 455 -2 565 -34 717 -59 288 -211 536 -437 718 -45 36 -179 130 -297 209 -118 79 -250 171 -292 205 -374 301 -549 874 -448 1466 29 171 67 307 186 665 247 741 326 1069 365 1520 29 329 -14 893 -100 1330 -16 80 -32 162 -35 183 -10 54 -24 37 -18 -22 2 -28 1 -139 -4 -248 l-8 -198 -8 105 c-5 58 -20 175 -34 260 -21 131 -30 163 -56 208 -18 28 -35 52 -38 52 -4 0 -14 -24 -23 -53 -14 -44 -17 -96 -17 -278 0 -397 -25 -542 -134 -764 -116 -239 -325 -528 -624 -865 -47 -52 -201 -216 -342 -365 -508 -534 -695 -762 -1022 -1248 -123 -183 -148 -216 -156 -200 -17 32 -110 314 -151 461 -78 277 -115 494 -131 774 -29 503 54 809 410 1513 87 171 186 362 221 425 l64 115 127 95 c362 271 657 409 1060 495 350 76 535 134 494 157 -19 11 -359 -13 -546 -38 -479 -64 -865 -245 -1425 -669 -561 -425 -609 -459 -812 -581 -347 -210 -676 -322 -908 -311 -116 5 -252 46 -345 102 -147 89 -244 257 -271 464 -24 188 9 316 196 751 151 353 186 447 230 613 82 314 87 427 45 969 -16 213 14 377 102 553 113 226 287 377 494 429 223 57 524 -35 1094 -334 296 -155 401 -203 568 -261 167 -57 295 -93 513 -144 328 -76 472 -126 593 -205 109 -71 189 -169 342 -417 38 -62 72 -113 75 -113 9 0 29 156 29 223 0 32 -9 104 -19 160 -11 56 -25 167 -31 247 -31 404 -116 715 -245 890 -46 62 -167 177 -245 232 -214 151 -802 455 -1198 620 -186 77 -621 245 -862 333 -232 85 -329 124 -455 187 -433 216 -649 528 -725 1050 -28 185 -30 177 43 118 198 -161 378 -168 735 -28 137 53 214 65 492 78 289 12 302 14 373 41 66 25 64 35 -16 76 -55 28 -256 66 -450 85 -161 16 -253 4 -454 -63 -141 -47 -167 -52 -248 -53 -161 -2 -253 52 -312 182 -23 49 -25 64 -21 141 7 106 38 188 108 284 61 82 140 142 325 244 329 181 421 247 606 432 185 185 260 304 259 410 l-1 36 -21 -40 c-28 -54 -133 -154 -269 -257 -173 -130 -274 -192 -447 -275 -86 -41 -217 -104 -291 -139 -74 -35 -162 -84 -195 -108 -87 -62 -188 -173 -235 -257 l-39 -72 -6 34 c-3 19 -8 106 -11 194 -8 203 -32 564 -46 675 -36 293 -123 630 -187 729 l-27 42 -9 -27 c-5 -16 -2 -134 8 -303 9 -152 21 -481 26 -731 18 -870 70 -1416 165 -1744 58 -201 201 -461 330 -603 179 -197 474 -368 920 -533 750 -276 1048 -398 1402 -570 564 -275 763 -407 877 -579 68 -104 89 -165 164 -478 l20 -83 -47 39 c-179 149 -333 200 -746 247 -552 62 -713 111 -1220 368 -387 197 -587 276 -753 297 -174 22 -388 -19 -529 -102 -82 -48 -220 -189 -288 -293 -119 -183 -207 -387 -239 -556 -27 -142 -29 -241 -10 -545 15 -250 16 -317 6 -423 -24 -253 -77 -441 -234 -826 -206 -507 -235 -614 -225 -836 3 -69 13 -153 21 -187 22 -89 83 -239 123 -303 49 -77 165 -194 249 -250 252 -166 613 -172 1004 -15 324 130 603 320 1138 775 l143 122 -73 -94 c-300 -384 -569 -869 -652 -1179 -46 -170 -58 -264 -63 -487 -8 -310 17 -536 92 -831 38 -155 131 -443 204 -635 l48 -129 -91 -46 c-291 -149 -434 -302 -482 -517 -20 -92 -15 -188 13 -236 16 -28 104 -100 135 -110 5 -2 -49 -123 -121 -268 -199 -405 -255 -589 -256 -835 l0 -140 47 -133 c58 -168 92 -224 199 -327 81 -78 98 -89 271 -175 287 -142 328 -180 494 -447 116 -186 167 -253 266 -349 113 -110 169 -139 273 -139 75 0 84 2 134 35 126 80 226 281 260 520 54 375 -28 1007 -204 1576 -19 62 -35 114 -35 117 0 3 26 -6 58 -20 220 -97 383 -134 602 -137 136 -1 160 1 199 19 l44 20 -39 27 c-26 18 -80 37 -164 57 -157 37 -492 97 -630 111 -58 6 -105 12 -105 13 -1 1 -24 62 -52 135 -28 72 -49 132 -46 132 2 0 30 -13 63 -30 235 -118 541 -204 824 -231 122 -11 516 -7 656 6 l55 6 35 -48 c19 -26 76 -88 125 -138 l90 -90 -129 3 c-142 4 -299 -13 -293 -32 6 -20 119 -58 212 -72 50 -8 149 -14 221 -14 l131 0 144 -109 c252 -191 331 -271 418 -419 54 -94 68 -131 90 -241 29 -140 32 -213 36 -666 3 -507 18 -623 114 -879 57 -150 97 -223 160 -289 70 -74 101 -91 157 -84 118 13 214 145 411 560 52 111 116 238 141 282 69 118 252 297 477 467 197 149 298 242 392 360 212 267 317 563 300 848 -14 230 -77 397 -302 800 -106 190 -178 330 -172 336 2 2 19 -1 38 -6 86 -25 247 1 324 52 57 38 114 108 150 184 31 65 30 88 -6 92 -19 2 -56 -16 -127 -63 -92 -60 -285 -158 -374 -190 l-37 -14 -30 77 c-103 270 -123 488 -80 903 28 277 23 520 -14 659 -14 52 -28 104 -32 115 -5 11 16 -14 45 -55 29 -41 105 -127 169 -191 92 -92 130 -123 186 -150 67 -33 74 -34 185 -34 95 1 125 5 171 23 197 79 384 256 578 547 265 399 432 843 433 1145 0 182 -54 298 -197 425 -235 208 -287 277 -289 384 -1 47 8 76 57 190 177 408 179 496 32 1356 -73 421 -85 486 -106 572 l-20 83 30 62 c40 81 49 164 28 239 -52 176 -321 440 -558 548 -294 133 -679 168 -1289 116 -954 -80 -1307 -151 -1493 -297 l-37 -30 30 83 c146 395 249 607 363 749 l53 65 100 7 c199 13 290 40 411 120 72 49 171 157 208 227 14 28 15 28 137 34 200 9 254 26 493 147 327 166 487 263 691 416 131 98 267 223 300 276 14 21 32 38 42 38 40 0 217 52 299 88 187 81 307 186 374 327 70 147 100 368 124 920 21 490 61 807 168 1355 38 196 42 228 41 365 0 131 -3 157 -22 207 -29 73 -69 131 -112 163 -54 39 -67 34 -75 -29z m-1316 -5411 c370 -23 693 -184 856 -430 46 -69 55 -89 55 -127 0 -65 -31 -106 -114 -148 -65 -33 -73 -35 -165 -33 -179 2 -334 65 -706 283 -506 298 -650 348 -960 337 -357 -13 -524 -93 -950 -457 -132 -113 -321 -242 -460 -316 -49 -26 -105 -61 -124 -78 -29 -26 -28 -22 12 27 60 75 136 198 223 360 37 71 85 148 106 172 110 125 341 218 698 279 336 58 875 123 1125 135 157 8 214 7 404 -4z m-829 -499 c120 -31 213 -69 470 -191 262 -124 453 -206 558 -239 244 -77 480 -74 643 6 l67 33 5 -255 c5 -271 17 -387 82 -800 55 -350 47 -465 -46 -685 -23 -55 -58 -138 -77 -185 -32 -75 -36 -95 -36 -170 0 -63 6 -103 23 -155 56 -165 118 -241 348 -426 87 -70 128 -131 137 -203 28 -221 -152 -653 -398 -956 -142 -176 -310 -317 -460 -390 -110 -53 -129 -56 -201 -29 -50 18 -75 37 -155 118 -100 102 -181 214 -325 451 -118 196 -282 444 -369 560 -147 197 -392 455 -591 623 -308 259 -480 458 -770 887 -168 249 -219 316 -296 391 -67 65 -223 179 -246 179 -6 0 17 28 51 63 112 112 177 281 179 467 1 157 -53 274 -163 348 l-59 39 57 13 c172 38 315 102 539 241 294 183 472 263 658 292 78 13 281 -2 375 -27z m-1705 -2433 c-40 -698 -69 -945 -160 -1355 -47 -211 -226 -889 -239 -905 0 -1 -1 287 -1 640 0 479 -3 663 -13 724 l-13 83 69 97 c206 290 327 554 348 761 11 99 16 72 9 -45z m-459 -885 c-9 -51 -34 -429 -47 -693 -6 -132 -9 -434 -7 -672 2 -279 -1 -435 -7 -442 -6 -6 -35 -4 -80 4 -243 48 -640 16 -1029 -82 -146 -36 -374 -112 -440 -145 -40 -20 -181 -121 -190 -137 -3 -4 70 14 162 41 92 26 219 58 282 69 63 11 167 34 230 49 125 32 192 42 465 70 99 10 200 23 225 29 25 6 115 13 201 16 l155 6 -18 -88 c-69 -345 -67 -721 7 -1029 32 -136 106 -337 165 -452 l48 -94 -32 6 c-17 3 -150 21 -296 41 -399 53 -581 82 -840 130 -129 24 -273 49 -320 55 -47 6 -86 12 -86 13 -1 1 -51 115 -112 252 -60 138 -162 367 -227 510 -112 250 -116 262 -110 311 5 41 12 55 36 73 16 12 29 26 29 30 0 15 251 388 347 516 199 267 321 402 798 885 333 337 535 557 650 707 22 29 42 52 44 53 2 0 1 -15 -3 -32z m-2151 -2350 c4 -17 -21 -70 -93 -198 -54 -96 -143 -259 -198 -363 l-99 -187 -27 32 c-16 18 -35 52 -45 76 -14 37 -15 52 -4 109 26 139 99 265 214 368 68 61 228 184 239 185 4 0 10 -10 13 -22z m280 -628 c263 -583 358 -807 425 -1009 71 -213 158 -559 196 -776 26 -146 28 -182 29 -405 0 -267 -10 -337 -60 -448 -26 -56 -73 -114 -107 -133 -30 -16 -92 25 -151 98 -75 96 -95 129 -192 324 -48 96 -111 210 -140 254 -102 153 -240 262 -487 386 -157 79 -211 123 -255 206 -44 83 -58 152 -56 278 2 230 79 470 358 1120 138 320 238 535 246 527 3 -4 90 -194 194 -422z"></path><path d="M5755 16712 l-70 -18 75 -17 c41 -9 134 -28 205 -42 72 -14 222 -48 335 -75 551 -132 908 -197 1380 -254 512 -62 819 -81 1325 -80 471 0 579 8 1110 85 243 35 291 45 372 77 51 20 93 39 93 43 0 4 -37 17 -82 30 l-83 24 -680 0 c-713 1 -732 2 -1365 41 -578 36 -1025 76 -1790 160 -408 45 -714 54 -825 26z"></path><path d="M13287 16066 l-27 -12 44 -23 c53 -26 225 -71 270 -71 l31 1 -29 24 c-41 33 -194 96 -231 94 -16 0 -42 -6 -58 -13z"></path><path d="M10485 15819 c-44 -11 -94 -30 -112 -42 -34 -23 -59 -68 -48 -87 21 -34 238 -100 396 -120 111 -13 272 -13 323 2 128 36 95 107 -90 188 -184 80 -314 97 -469 59z"></path><path d="M11811 13146 c-109 -114 -167 -277 -127 -354 10 -19 27 -34 42 -38 40 -10 176 3 225 22 70 27 206 121 285 198 61 59 74 77 74 103 0 26 -5 32 -28 38 -22 4 -59 -9 -168 -61 -147 -70 -212 -97 -256 -108 -27 -6 -28 -5 -28 38 0 38 28 144 55 209 14 33 -12 16 -74 -47z"></path><path d="M10508 13120 c-26 -16 -105 -132 -143 -212 -38 -78 -46 -149 -22 -182 12 -16 18 -17 48 -7 39 12 119 89 142 136 32 65 56 219 41 259 -7 18 -40 21 -66 6z"></path><path d="M12420 5376 c0 -2 42 -27 93 -56 301 -170 528 -355 585 -477 24 -53 27 -69 27 -173 0 -102 -3 -121 -25 -165 -34 -69 -150 -187 -241 -247 -42 -27 -82 -61 -88 -74 -9 -21 -7 -25 21 -40 42 -22 171 -14 250 16 145 54 278 293 278 500 0 251 -144 441 -448 594 -99 50 -264 104 -337 111 -33 3 -72 8 -87 10 -16 3 -28 3 -28 1z"></path></g></svg> 