<?xml version="1.0" encoding="UTF-8" standalone="no"?> <svg xmlns="http://www.w3.org/2000/svg" version="1.0" width="2048.000000pt" height="2048.000000pt" viewBox="0 0 2048.000000 2048.000000" preserveAspectRatio="xMidYMid meet"><g transform="translate(0.000000,2048.000000) scale(0.100000,-0.100000)" fill="#000000" stroke="none"><path d="M9232 18658 c-7 -7 -12 -9 -12 -5 0 14 -60 -24 -76 -48 -16 -25 -49 -34 -56 -16 -4 13 -187 31 -317 31 -140 0 -423 -19 -436 -29 -5 -5 -41 -12 -80 -16 -38 -4 -74 -10 -80 -15 -5 -4 -32 -11 -60 -15 -27 -4 -54 -10 -60 -15 -5 -4 -41 -13 -80 -20 -38 -7 -74 -16 -80 -20 -5 -5 -31 -11 -57 -15 -27 -4 -48 -11 -48 -16 0 -5 -8 -9 -18 -9 -10 0 -42 -7 -72 -15 -30 -9 -73 -20 -95 -26 -22 -5 -54 -16 -72 -24 -17 -8 -34 -15 -38 -15 -4 0 -28 -15 -54 -33 -25 -18 -54 -36 -64 -40 -34 -13 -11 -32 49 -43 32 -5 67 -14 77 -18 9 -5 34 -5 55 -2 20 4 102 15 182 25 80 10 145 20 145 21 0 1 41 8 90 16 154 23 300 49 310 55 6 4 37 10 69 14 33 4 66 11 75 15 9 5 57 15 106 23 50 9 124 23 165 32 41 9 107 22 145 28 39 7 75 15 81 19 6 4 51 10 101 14 111 8 108 12 118 -136 4 -58 10 -109 13 -115 4 -5 15 -80 25 -165 9 -85 24 -207 32 -270 9 -63 22 -167 29 -230 7 -63 14 -115 16 -115 1 0 11 -76 21 -170 27 -239 46 -390 49 -390 1 0 11 -74 22 -165 39 -342 43 -375 49 -385 4 -5 10 -55 14 -110 4 -55 12 -106 18 -113 19 -24 -12 -37 -101 -41 -48 -1 -91 -6 -97 -11 -5 -4 -39 -13 -75 -20 -36 -7 -69 -16 -75 -21 -5 -4 -31 -10 -57 -14 -27 -4 -48 -11 -48 -14 0 -4 -24 -13 -52 -19 -78 -16 -192 -46 -203 -54 -6 -3 -28 -9 -50 -13 -22 -4 -44 -11 -50 -15 -5 -4 -41 -13 -80 -20 -38 -7 -74 -16 -80 -20 -5 -4 -35 -11 -65 -15 -30 -4 -61 -11 -70 -16 -14 -8 -133 -25 -370 -52 -58 -7 -109 -15 -115 -19 -5 -3 -61 -9 -123 -13 -62 -4 -115 -12 -118 -16 -3 -5 -41 -9 -85 -9 -85 0 -106 -14 -36 -25 23 -3 51 -10 62 -15 49 -23 181 -33 459 -37 170 -2 303 0 310 6 6 5 47 12 91 16 44 4 85 10 90 15 6 4 30 10 55 14 45 6 167 40 205 56 23 10 104 37 158 53 20 6 37 15 37 19 0 4 7 8 16 8 9 0 30 6 47 14 18 7 48 19 67 26 19 7 49 18 65 25 17 8 53 23 80 35 83 36 92 41 140 81 44 36 74 49 76 32 0 -5 7 -64 15 -133 8 -69 21 -177 28 -240 7 -63 14 -115 16 -115 2 0 20 -152 53 -465 7 -63 15 -119 18 -125 4 -5 10 -62 14 -125 4 -63 11 -119 15 -125 4 -5 13 -84 20 -175 7 -91 16 -169 20 -175 4 -5 11 -59 15 -120 4 -60 10 -114 14 -120 3 -5 14 -86 24 -180 29 -281 44 -410 47 -410 3 0 22 -172 49 -445 10 -107 20 -195 21 -195 3 0 19 -167 50 -510 11 -126 27 -303 35 -392 8 -90 22 -238 30 -330 9 -93 22 -276 31 -408 8 -132 19 -256 24 -275 9 -33 19 -215 39 -750 11 -283 11 -973 0 -1125 -14 -204 -29 -349 -38 -370 -5 -11 -15 -67 -24 -125 -19 -128 -56 -297 -77 -345 -5 -11 -14 -40 -20 -65 -13 -53 -13 -55 -80 -195 -49 -102 -104 -186 -147 -226 -64 -59 -118 -100 -160 -121 -26 -12 -50 -26 -53 -29 -10 -12 -159 -59 -189 -59 -16 0 -33 -4 -36 -10 -8 -12 -192 -13 -199 -1 -3 4 -36 11 -74 15 -37 4 -80 13 -94 20 -15 8 -40 17 -57 21 -17 4 -31 10 -31 15 0 5 -13 11 -30 15 -16 4 -30 10 -30 14 0 4 -15 12 -32 19 -72 26 -233 160 -336 278 -95 109 -152 187 -177 241 -8 17 -18 33 -22 35 -20 8 -174 322 -189 383 -4 17 -10 35 -14 40 -4 6 -11 26 -14 45 -4 19 -11 44 -17 55 -9 21 -32 117 -52 220 -7 33 -15 65 -18 70 -4 6 -10 42 -14 80 -3 39 -10 79 -15 90 -9 19 -20 116 -56 465 -8 80 -17 165 -20 190 -3 25 -12 140 -20 255 -8 116 -21 290 -29 388 -8 97 -22 257 -30 355 -8 97 -22 292 -32 432 -10 140 -21 260 -24 265 -4 6 -10 80 -14 165 -3 85 -11 169 -16 185 -5 17 -16 147 -24 290 -16 274 -35 517 -60 800 -41 472 -57 643 -70 785 -8 85 -24 261 -35 390 -20 230 -35 391 -65 715 -39 429 -56 602 -70 730 -29 271 -56 542 -68 680 -7 77 -16 147 -19 155 -4 8 -11 92 -17 185 -9 156 -34 518 -64 940 -7 94 -15 175 -18 180 -4 6 -10 80 -14 165 -17 372 -24 188 -19 -515 6 -751 11 -929 38 -1320 8 -115 24 -347 36 -515 11 -168 27 -395 35 -505 8 -110 21 -301 30 -425 9 -124 18 -250 21 -280 3 -30 12 -154 20 -275 8 -121 21 -301 29 -400 8 -99 24 -301 35 -450 22 -289 31 -420 99 -1400 10 -148 19 -270 21 -270 2 0 9 -81 16 -180 8 -99 23 -306 34 -460 19 -264 28 -377 65 -825 39 -482 50 -606 56 -615 4 -5 10 -57 14 -115 4 -58 10 -109 14 -115 5 -5 14 -64 21 -130 7 -66 16 -124 20 -130 4 -5 11 -39 15 -75 4 -36 11 -69 15 -75 4 -5 12 -35 18 -65 19 -95 45 -195 52 -200 4 -3 11 -21 15 -40 4 -19 11 -39 14 -45 4 -5 13 -29 20 -52 18 -66 145 -311 209 -405 17 -26 32 -50 32 -53 0 -5 83 -114 130 -170 93 -112 293 -280 390 -327 14 -7 27 -15 30 -18 11 -12 172 -90 186 -90 8 0 14 -4 14 -9 0 -5 17 -12 38 -16 20 -4 42 -11 48 -16 20 -16 189 -42 308 -46 l119 -4 -6 -572 c-4 -315 -2 -804 3 -1087 5 -283 14 -794 20 -1135 5 -341 15 -737 20 -880 12 -314 38 -831 45 -900 3 -27 10 -108 16 -180 6 -71 14 -134 19 -140 4 -5 11 -39 14 -75 4 -36 11 -69 15 -75 5 -5 11 -29 15 -52 3 -23 9 -48 12 -57 5 -12 0 -16 -18 -16 -13 0 -28 -4 -34 -8 -5 -5 -36 -15 -69 -22 -32 -7 -66 -16 -75 -21 -8 -4 -64 -31 -123 -59 -59 -29 -131 -67 -159 -86 -27 -19 -52 -34 -55 -34 -12 0 -130 -98 -177 -147 -83 -85 -116 -133 -165 -243 -16 -35 -33 -127 -33 -175 0 -91 46 -227 98 -286 8 -8 14 -20 14 -25 0 -12 200 -212 231 -230 13 -7 36 -19 52 -26 15 -7 27 -16 27 -19 0 -4 15 -11 33 -14 17 -4 43 -13 57 -21 79 -41 138 -49 386 -49 165 0 245 4 255 11 8 7 39 15 69 19 30 4 60 11 65 15 6 4 27 10 48 14 47 9 152 42 194 61 17 8 37 15 45 15 8 0 23 7 34 15 10 8 25 15 32 15 29 0 392 178 392 191 0 5 5 9 10 9 10 0 71 38 160 100 43 30 230 211 230 223 0 5 11 23 25 41 14 18 25 38 25 44 0 7 4 12 8 12 18 0 45 125 46 214 1 125 -20 162 -122 217 -70 38 -122 50 -122 29 0 -5 -7 -10 -15 -10 -26 0 -16 -29 30 -88 43 -54 57 -92 35 -92 -5 0 -10 -6 -10 -14 0 -24 -115 -159 -171 -201 -33 -25 -125 -96 -138 -107 -26 -22 -276 -145 -308 -153 -18 -3 -33 -11 -33 -16 0 -5 -8 -9 -17 -9 -10 -1 -36 -9 -58 -20 -22 -11 -50 -19 -62 -20 -13 0 -23 -4 -23 -9 0 -4 -28 -14 -62 -21 -35 -7 -67 -16 -73 -21 -5 -4 -32 -10 -60 -14 -27 -4 -54 -11 -60 -15 -5 -5 -55 -13 -110 -19 -55 -6 -122 -13 -150 -17 -132 -16 -330 2 -408 36 -65 29 -132 75 -157 108 -11 15 -24 32 -30 39 -40 48 -35 85 23 173 42 62 44 64 139 160 89 90 135 130 148 130 4 0 13 6 19 14 16 18 138 91 171 101 14 4 27 10 30 14 8 9 70 41 81 41 6 0 29 8 52 19 23 10 58 22 77 26 19 4 40 11 45 15 6 4 28 11 50 15 22 4 44 10 50 13 5 4 44 14 85 24 41 9 104 24 140 33 36 9 98 22 139 29 l74 11 -54 30 c-114 63 -214 79 -467 72 l-194 -5 6 37 c17 106 38 278 46 366 11 134 10 1218 -1 1470 -23 509 -67 1213 -78 1250 -5 17 -13 89 -16 160 -4 72 -10 135 -14 140 -3 6 -14 98 -23 205 -29 328 -43 455 -49 465 -4 6 -10 62 -14 125 -4 63 -11 120 -15 125 -4 6 -13 80 -20 165 -7 85 -16 160 -20 165 -4 6 -11 51 -15 100 -4 50 -11 95 -15 100 -4 6 -14 60 -21 120 -7 61 -16 114 -21 119 -15 18 -8 26 25 26 19 0 37 3 41 7 4 4 39 13 78 20 39 6 85 18 102 26 151 73 167 81 217 120 20 15 40 27 43 27 10 0 186 177 186 188 0 5 8 16 18 25 9 8 31 42 47 74 17 32 33 60 37 63 3 3 10 18 13 33 4 15 11 27 16 27 5 0 9 7 9 16 0 8 8 34 19 57 10 23 22 58 26 77 4 19 11 40 15 45 4 6 11 26 14 45 4 19 11 44 16 55 10 22 34 136 54 255 7 41 15 82 19 90 7 16 23 177 36 365 28 379 -5 1136 -89 2065 -32 355 -47 505 -50 505 -1 0 -11 92 -22 205 -18 200 -32 339 -63 625 -8 77 -23 228 -32 335 -10 107 -21 200 -24 205 -4 6 -10 62 -14 125 -4 63 -11 121 -16 130 -4 8 -14 89 -23 180 -8 91 -22 219 -30 285 -40 315 -47 371 -63 525 -10 91 -21 170 -24 175 -4 6 -10 60 -14 120 -4 61 -11 115 -15 120 -4 6 -13 84 -20 175 -7 91 -16 170 -20 175 -4 6 -11 60 -15 120 -4 61 -10 115 -14 120 -3 6 -12 62 -18 125 -17 152 -49 426 -68 575 -9 66 -23 190 -33 275 -9 85 -20 160 -23 165 -4 6 -10 57 -14 115 -4 58 -10 110 -14 115 -3 6 -12 57 -18 115 -17 140 -50 408 -69 550 -8 63 -23 187 -32 275 -9 88 -20 165 -23 170 -4 6 -10 56 -14 113 -4 56 -11 104 -15 107 -4 3 -11 51 -15 107 -4 57 -11 108 -15 113 -4 6 -13 71 -20 145 -7 74 -16 140 -20 145 -4 6 -11 49 -15 98 -4 48 -11 90 -16 93 -5 3 -9 20 -9 37 0 18 -7 43 -15 57 -8 14 -18 33 -21 43 -7 20 -16 21 -32 5z"></path><path d="M9045 15502 c-6 -5 -30 -14 -54 -21 -71 -20 -161 -132 -161 -200 0 -15 -5 -32 -11 -38 -6 -6 -9 -28 -6 -50 6 -48 36 -156 45 -163 4 -3 18 -27 32 -53 28 -53 99 -107 142 -107 43 0 87 30 116 78 l27 47 7 -64 c4 -35 11 -67 17 -70 5 -4 13 -20 17 -36 4 -17 13 -38 20 -48 11 -17 13 -16 19 15 4 18 12 39 19 47 14 18 12 426 -2 444 -5 7 -12 36 -15 66 -4 30 -10 57 -15 60 -5 3 -13 16 -16 29 -14 43 -150 91 -181 64z m71 -266 c12 -45 11 -51 -10 -85 -13 -20 -32 -44 -43 -54 -18 -16 -21 -16 -33 -1 -8 8 -16 43 -18 77 -5 59 -4 62 29 89 19 16 40 27 48 26 8 -2 20 -25 27 -52z"></path><path d="M8020 15395 c0 -8 -4 -15 -8 -15 -4 0 -12 -31 -18 -69 -12 -71 -30 -104 -80 -143 -21 -17 -30 -19 -45 -10 -10 7 -25 12 -34 12 -31 0 -48 46 -41 110 5 40 3 60 -4 60 -5 0 -10 -6 -10 -14 0 -8 -4 -16 -8 -18 -4 -1 -18 -20 -30 -41 -51 -88 -11 -185 98 -239 30 -15 64 -28 76 -28 56 -1 138 75 150 137 3 18 10 36 15 39 12 7 11 141 -1 149 -5 3 -10 16 -10 29 0 13 -8 30 -18 39 -23 21 -32 21 -32 2z"></path><path d="M8625 15139 c-11 -6 -35 -30 -53 -55 -31 -42 -35 -44 -85 -44 -55 -1 -93 -22 -116 -67 -17 -34 -13 -59 20 -118 63 -112 157 -85 230 66 44 90 61 144 57 185 -3 42 -18 51 -53 33z"></path><path d="M8583 14591 c-21 -6 -21 -7 -7 -38 14 -28 14 -34 0 -61 -22 -42 -51 -50 -82 -21 -13 12 -26 20 -29 17 -3 -2 4 -13 15 -23 11 -10 20 -23 20 -28 0 -5 16 -30 36 -54 32 -39 40 -44 72 -41 52 4 75 41 80 129 4 62 2 73 -18 94 -24 25 -53 34 -87 26z"></path><path d="M9050 14036 c0 -19 5 -38 10 -41 13 -8 13 -71 -1 -93 -9 -14 -22 -16 -77 -14 -37 2 -72 8 -79 14 -7 6 -19 6 -30 0 -10 -5 -33 -12 -52 -16 -63 -12 -79 -72 -40 -155 44 -92 86 -117 154 -91 39 15 155 134 155 158 0 12 5 24 10 27 12 8 13 95 1 95 -4 0 -12 28 -15 61 -8 72 -36 114 -36 55z"></path><path d="M9246 13180 c3 -30 9 -59 13 -65 5 -5 14 -44 21 -85 7 -41 16 -79 20 -85 5 -5 11 -37 15 -70 4 -33 11 -64 15 -70 5 -5 13 -71 20 -145 6 -74 14 -142 18 -150 3 -8 12 -68 19 -132 7 -65 19 -173 27 -240 7 -68 15 -123 16 -123 3 0 28 -243 53 -515 7 -74 16 -142 19 -150 12 -28 28 -456 28 -746 0 -408 -11 -486 -86 -639 -88 -177 -165 -245 -439 -380 -101 -50 -194 -103 -211 -120 -17 -18 -39 -35 -48 -38 -10 -4 -15 -10 -12 -15 6 -10 183 3 198 16 7 5 39 16 71 23 32 7 60 16 63 21 3 4 13 8 22 8 9 1 35 9 57 20 22 11 45 19 52 20 24 0 168 81 214 120 54 46 125 148 163 235 15 33 31 67 35 75 5 9 14 43 21 75 6 33 16 68 21 78 5 10 12 77 15 150 3 73 10 141 15 153 6 11 8 69 5 135 -15 370 -27 558 -35 589 -6 19 -15 109 -22 200 -6 91 -15 170 -19 175 -4 6 -11 53 -15 105 -4 52 -11 100 -15 105 -4 6 -11 48 -15 95 -4 47 -11 90 -15 95 -4 6 -13 64 -20 130 -7 66 -15 125 -19 130 -6 11 -20 89 -47 275 -10 63 -20 117 -24 120 -4 3 -11 33 -15 68 -4 34 -11 64 -15 67 -4 3 -11 28 -15 55 -4 27 -10 52 -15 55 -4 3 -13 34 -20 70 -7 36 -16 68 -21 71 -5 3 -9 13 -9 22 0 9 -7 30 -15 45 -8 16 -19 47 -25 70 -6 23 -15 51 -19 62 -5 11 -14 36 -20 55 -10 32 -10 30 -5 -20z"></path></g></svg> 