<?xml version="1.0" encoding="UTF-8"?> <svg xmlns="http://www.w3.org/2000/svg" width="978" height="1292" viewBox="0 0 978 1292" fill="none"><path d="M62.8535 3.76906C62.8535 5.93835 63.1925 8.17543 63.5314 8.71775C64.0059 9.46344 64.2093 8.3788 64.2093 5.19266C64.2093 2.68442 63.9382 0.447341 63.5314 0.24397C63.1247 -0.0271908 62.8535 1.32861 62.8535 3.76906Z" fill="black"></path><path d="M87.3269 11.4976C86.1067 13.3957 85.2932 15.0904 85.4288 15.2938C85.6322 15.4294 86.7168 14.0058 87.8692 12.0399C89.0895 10.1417 89.9029 8.44699 89.7674 8.24362C89.564 8.10804 88.4794 9.53164 87.3269 11.4976Z" fill="black"></path><path d="M83.8697 17.5309C83.463 18.2766 83.3274 18.8867 83.463 18.8867C83.6663 18.8867 84.1409 18.2766 84.5476 17.5309C84.9543 16.7852 85.0899 16.1751 84.9543 16.1751C84.751 16.1751 84.2764 16.7852 83.8697 17.5309Z" fill="black"></path><path d="M81.0903 22.0734C80.209 23.497 77.9042 27.1576 75.9382 30.2082C70.9896 37.8007 60.821 57.3921 57.2281 66.0015C54.9233 71.6958 49.6356 87.6265 48.6188 92.1007C48.1442 94.1344 47.5341 96.1003 47.263 96.5071C46.5851 97.3206 44.2124 108.099 42.9244 116.166C37.7045 147.418 36.9589 194.057 40.8229 248.357C41.9753 264.627 44.8225 293.912 46.2461 303.945C46.7884 307.674 48.551 320.961 50.2457 333.434C51.8727 345.907 54.1776 362.719 55.33 370.719C56.4147 378.718 57.9738 390.31 58.7195 396.479C59.4652 402.648 60.4143 410.24 60.821 413.426C61.2955 416.613 61.9057 421.765 62.3124 424.951C63.2615 432.882 63.3293 472.946 62.3124 478.505C61.9057 480.946 61.16 484.877 60.7532 487.182L59.9397 491.521L57.8382 491.046C49.5678 489.352 40.4162 490.165 35.3997 493.08C31.4678 495.317 26.4514 500.944 24.4854 505.282C19.3334 516.535 19.9435 535.923 25.7735 545.685C28.7562 550.634 31.739 552.6 35.7386 552.261C40.0772 551.854 43.9412 549.007 49.7034 541.957C54.9911 535.517 58.6517 529.077 62.1768 520.196C63.3293 517.213 64.7529 513.756 65.2952 512.536L66.312 510.299L69.1592 512.875C75.8705 519.111 78.3109 522.162 81.3615 528.195C84.1409 533.754 85.2933 536.94 89.0218 549.21C92.1401 559.447 93.8349 585.004 92.7502 606.358C91.869 622.831 90.3098 640.32 89.2929 643.913C88.954 645.201 88.0049 650.692 87.2592 656.116C84.6154 674.148 76.9551 712.11 75.057 716.11C74.718 716.856 73.4978 721.126 72.3454 725.601C67.2611 745.056 62.5158 762.004 61.4989 764.241C60.1431 767.156 52.2794 796.374 45.8394 822.202C38.2469 852.843 35.5353 894.873 39.3993 920.498C40.9585 930.666 44.1446 942.936 46.5851 948.088C48.6866 952.63 48.6866 953.308 46.1783 955.41C44.5514 956.833 37.8401 967.815 34.7218 974.052C27.2648 989.169 22.7229 1011.61 19.7401 1047.6C18.1132 1067.47 17.5708 1079.4 16.8251 1115.39C15.3338 1181.08 13.1645 1212.33 7.87684 1244.53C6.11429 1255.45 5.50418 1257.75 3.19931 1262.36C1.77571 1265.28 0.352119 1269.01 0.148748 1270.57C-0.732525 1276.46 2.45362 1284.53 5.70755 1284.53C7.13114 1284.53 11.7409 1279.38 13.3001 1276.06C13.978 1274.57 15.0626 1271.18 15.7405 1268.6C17.7064 1261.21 22.7907 1255.18 34.9251 1246.03C42.3821 1240.4 45.4326 1238.57 58.9907 1231.72C70.515 1225.96 88.6828 1219.11 96.4787 1217.69C97.9701 1217.49 99.4615 1217.01 99.8004 1216.74C100.817 1215.93 112.07 1213.62 121.493 1212.2C131.73 1210.71 165.015 1210.5 176.064 1211.86C186.572 1213.15 204.062 1216.13 204.875 1216.67C205.214 1216.94 208.129 1217.76 211.315 1218.37C224.806 1221.15 247.109 1227.25 261.006 1231.93C265.954 1233.62 276.53 1237.01 284.529 1239.45C292.528 1241.96 299.443 1244.26 299.782 1244.53C300.595 1245.15 322.898 1252.26 334.694 1255.65C339.371 1257.01 343.642 1258.36 344.252 1258.7C345.676 1259.52 364.589 1263.86 372.995 1265.35C382.825 1267.04 401.806 1266.97 408.246 1265.28C414.415 1263.65 421.33 1260.53 423.634 1258.3L425.465 1256.53L428.719 1258.57C432.718 1261.01 436.582 1262.84 445.531 1266.23C468.308 1274.84 490.204 1280.19 520.439 1284.46C525.862 1285.21 532.438 1286.16 535.014 1286.56C567.282 1291.45 617.379 1293.07 682.797 1291.31C744.079 1289.68 760.959 1288.8 852.272 1282.36C871.118 1281.07 879.727 1280.87 917.351 1280.8C947.246 1280.73 963.245 1280.46 968.871 1279.85C976.599 1279.04 977.955 1278.77 977.277 1278.16C977.142 1278.02 971.244 1276.53 964.126 1274.84C936.129 1268.13 893.963 1264.87 851.662 1266.3C832.003 1266.91 824.478 1267.31 785.16 1269.89C769.5 1270.91 735.063 1272.53 704.828 1273.75C674.865 1274.9 601.313 1275.31 584.162 1274.43C549.928 1272.67 524.845 1269.69 495.018 1263.79C484.239 1261.69 463.427 1256.4 460.512 1255.04C459.36 1254.5 455.089 1252.81 450.954 1251.31C437.87 1246.37 435.566 1245.21 436.04 1243.59C439.023 1233.21 439.023 1228.88 436.108 1222.5C433.939 1217.69 427.837 1211.66 422.957 1209.42C418.415 1207.39 410.28 1206.37 405.941 1207.32C400.179 1208.61 396.383 1213.08 396.383 1218.57C396.451 1222.37 397.942 1228.13 399.976 1232.06C402.145 1236.33 409.06 1245.15 411.5 1246.77C412.517 1247.45 413.33 1248.26 413.33 1248.6C413.33 1249.55 405.06 1251.86 398.552 1252.74C390.417 1253.75 379.164 1252.6 363.166 1249.21C353.404 1247.18 332.931 1241.48 331.643 1240.47C331.304 1240.2 328.254 1239.11 324.864 1238.16C321.542 1237.15 307.51 1232.54 293.681 1227.93C279.919 1223.32 263.582 1218.16 257.413 1216.4C251.244 1214.64 245.956 1212.94 245.549 1212.67C243.448 1211.05 205.35 1202.44 187.928 1199.73C183.115 1198.98 177.149 1198.03 174.709 1197.62C168.743 1196.61 129.493 1196.61 124.205 1197.62C121.968 1198.03 116.545 1198.98 112.138 1199.79C95.9364 1202.57 76.6839 1208.06 65.9053 1212.88C48.0765 1220.94 36.3487 1227.59 26.1802 1235.52C24.1465 1237.08 22.2484 1238.43 22.045 1238.43C21.5027 1238.43 22.045 1234.03 22.8585 1231.65C23.6042 1229.49 25.2989 1214.03 26.5869 1197.42C28.0783 1177.49 28.8918 1156.61 29.6375 1116.07C30.3832 1075.06 31.1967 1054.11 32.7559 1037.1C33.8405 1024.62 36.2132 1007.68 37.0266 1005.98C37.2978 1005.37 38.2469 1001.85 39.1281 998.117C41.0263 989.779 43.1278 983.678 46.924 975.95C49.5678 970.595 53.703 964.561 54.6521 964.561C54.8555 964.561 56.2791 966.324 57.7705 968.357C61.7023 973.916 70.7184 982.187 75.3959 984.695C91.8012 993.304 106.308 991.677 118.104 979.882C126.645 971.272 130.306 964.358 131.12 955.342C131.662 949.037 130.035 944.834 124.951 939.75C121.222 936.089 114.511 932.022 112.07 932.022C111.664 932.022 110.443 931.547 109.291 930.937C106.783 929.514 93.9027 928.836 88.954 929.853C79.0566 931.819 68.8881 936.022 61.6345 940.97C59.1941 942.665 58.5161 942.868 58.0416 942.123C56.8214 940.292 54.1776 930.937 53.0251 924.565C52.415 921.04 51.6015 917.379 51.2626 916.43C49.5 911.549 49.5 872.638 51.2626 866.265C51.6015 864.977 52.5506 859.147 53.3641 853.385C55.6012 837.116 62.7191 803.424 64.8884 798.814C65.2274 798.068 68.1424 787.968 71.3285 776.443C74.5146 764.851 78.0397 752.852 79.1244 749.666C81.0903 743.768 86.7169 722.618 91.0555 704.518C101.36 661.539 106.24 620.729 105.359 585.275C104.614 555.65 100.614 535.517 92.5469 520.874C87.8015 512.129 82.9206 505.96 77.0229 501.147C74.1757 498.842 71.3285 496.673 70.7862 496.402C69.9049 495.859 69.9049 495.182 70.6506 490.707C72.9555 477.353 73.7012 454.304 72.3454 435.255C70.9896 416.68 66.2442 378.243 64.8884 375.125C64.2105 373.498 59.9397 344.823 55.8045 313.775C54.1776 301.301 52.415 288.76 52.0083 285.981C49.7712 270.796 47.0596 242.392 45.2293 215.14C44.009 197.718 43.6023 153.383 44.4836 140.232C45.7716 121.657 49.5 95.6258 51.3304 92.1685C51.6693 91.5584 53.0929 86.9486 54.4487 81.9322C56.957 72.7805 63.6682 54.2737 64.7529 53.5281C65.0918 53.3247 65.7019 52.1045 66.1087 50.8164C67.1933 47.7659 76.2772 31.0895 80.1412 25.0561C81.9038 22.3445 83.1918 19.9719 82.9884 19.8363C82.7851 19.6329 81.9716 20.6498 81.0903 22.0734ZM55.5334 505.486C57.1603 507.113 50.9236 521.688 44.9581 530.161C41.7042 534.839 36.6199 539.72 35.6708 539.177C35.3997 538.974 34.5862 537.211 33.9083 535.246C33.027 532.602 32.6881 529.755 32.6881 523.925C32.6881 517.213 32.9592 515.654 34.315 512.536C36.9589 506.706 42.1109 504.062 50.1779 504.537C52.754 504.672 55.1266 505.079 55.5334 505.486ZM104.817 942.529C110.511 943.275 117.9 948.02 120.137 952.359C122.849 957.579 114.172 970.391 104.546 975.204C100.139 977.441 94.1738 977.984 89.2251 976.56C84.9543 975.272 78.5143 971.34 74.0401 967.205C70.9218 964.358 64.2105 955.748 64.2105 954.664C64.2783 953.511 76.6161 946.665 82.1072 944.699C87.5304 942.801 95.8008 941.513 99.8004 941.919C100.953 942.055 103.19 942.326 104.817 942.529ZM418.618 1222.77C421.533 1224.27 425.126 1228.06 425.872 1230.3C426.414 1232.13 425.668 1237.76 424.855 1237.76C423.973 1237.76 417.94 1232.81 415.228 1229.76C412.991 1227.25 409.941 1222.3 409.941 1221.08C409.941 1220.27 415.974 1221.42 418.618 1222.77Z" fill="black"></path></svg> 