<?xml version="1.0" encoding="UTF-8"?> <svg xmlns="http://www.w3.org/2000/svg" width="978" height="1292" viewBox="0 0 978 1292" fill="none"><path d="M62.8535 1288.44C62.8535 1286.27 63.1925 1284.04 63.5314 1283.49C64.0059 1282.75 64.2093 1283.83 64.2093 1287.02C64.2093 1289.53 63.9382 1291.76 63.5314 1291.97C63.1247 1292.24 62.8535 1290.88 62.8535 1288.44Z" fill="black"></path><path d="M87.3269 1280.71C86.1067 1278.82 85.2932 1277.12 85.4288 1276.92C85.6322 1276.78 86.7168 1278.21 87.8692 1280.17C89.0895 1282.07 89.9029 1283.76 89.7674 1283.97C89.564 1284.1 88.4794 1282.68 87.3269 1280.71Z" fill="black"></path><path d="M83.8697 1274.68C83.463 1273.93 83.3274 1273.32 83.463 1273.32C83.6663 1273.32 84.1409 1273.93 84.5476 1274.68C84.9543 1275.43 85.0899 1276.04 84.9543 1276.04C84.751 1276.04 84.2764 1275.43 83.8697 1274.68Z" fill="black"></path><path d="M81.0903 1270.14C80.209 1268.71 77.9042 1265.05 75.9382 1262C70.9896 1254.41 60.821 1234.82 57.2281 1226.21C54.9233 1220.52 49.6356 1204.58 48.6188 1200.11C48.1442 1198.08 47.5341 1196.11 47.263 1195.7C46.5851 1194.89 44.2124 1184.11 42.9244 1176.04C37.7045 1144.79 36.9589 1098.15 40.8229 1043.85C41.9753 1027.58 44.8225 998.299 46.2461 988.266C46.7884 984.537 48.551 971.25 50.2457 958.777C51.8727 946.304 54.1776 929.492 55.33 921.492C56.4147 913.493 57.9738 901.901 58.7195 895.732C59.4652 889.563 60.4143 881.971 60.821 878.784C61.2955 875.598 61.9057 870.446 62.3124 867.26C63.2615 859.329 63.3293 819.265 62.3124 813.706C61.9057 811.265 61.16 807.334 60.7532 805.029L59.9397 800.69L57.8382 801.165C49.5678 802.859 40.4162 802.046 35.3997 799.131C31.4678 796.894 26.4514 791.267 24.4854 786.929C19.3334 775.675 19.9435 756.287 25.7735 746.526C28.7562 741.577 31.739 739.611 35.7386 739.95C40.0772 740.357 43.9412 743.204 49.7034 750.254C54.9911 756.694 58.6517 763.134 62.1768 772.015C63.3293 774.998 64.7529 778.455 65.2952 779.675L66.312 781.912L69.1592 779.336C75.8705 773.099 78.3109 770.049 81.3615 764.016C84.1409 758.457 85.2933 755.271 89.0218 743.001C92.1401 732.764 93.8349 707.207 92.7502 685.853C91.869 669.38 90.3098 651.891 89.2929 648.298C88.954 647.01 88.0049 641.519 87.2592 636.095C84.6154 618.063 76.9551 580.101 75.057 576.101C74.718 575.355 73.4978 571.085 72.3454 566.61C67.2611 547.155 62.5158 530.207 61.4989 527.97C60.1431 525.055 52.2794 495.837 45.8394 470.009C38.2469 439.368 35.5353 397.338 39.3993 371.713C40.9585 361.545 44.1446 349.275 46.5851 344.123C48.6866 339.581 48.6866 338.903 46.1783 336.801C44.5514 335.378 37.8401 324.396 34.7218 318.159C27.2648 303.042 22.7229 280.603 19.7401 244.607C18.1132 224.744 17.5708 212.813 16.8251 176.816C15.3338 111.128 13.1645 79.8764 7.87684 47.676C6.11429 36.7618 5.50418 34.4569 3.19931 29.8472C1.77571 26.9322 0.352119 23.2037 0.148748 21.6445C-0.732525 15.7468 2.45362 7.67976 5.70755 7.67976C7.13114 7.67976 11.7409 12.8318 13.3001 16.1535C13.978 17.6449 15.0626 21.0344 15.7405 23.6105C17.7064 30.9996 22.7907 37.0329 34.9251 46.1846C42.3821 51.8112 45.4326 53.6415 58.9907 60.4884C70.515 66.2505 88.6828 73.0973 96.4787 74.5209C97.9701 74.7243 99.4615 75.1988 99.8004 75.47C100.817 76.2835 112.07 78.5884 121.493 80.012C131.73 81.5033 165.015 81.7067 176.064 80.3509C186.572 79.0629 204.062 76.0801 204.875 75.5378C205.214 75.2666 208.129 74.4531 211.315 73.843C224.806 71.0636 247.109 64.9625 261.006 60.285C265.954 58.5902 276.53 55.2007 284.529 52.7603C292.528 50.252 299.443 47.9472 299.782 47.676C300.595 47.0659 322.898 39.9479 334.694 36.5584C339.371 35.2026 343.642 33.8468 344.252 33.5078C345.676 32.6944 364.589 28.3558 372.995 26.8644C382.825 25.1696 401.806 25.2374 408.246 26.9322C414.415 28.5592 421.33 31.6775 423.634 33.9146L425.465 35.6771L428.719 33.6434C432.718 31.203 436.582 29.3726 445.531 25.9831C468.308 17.3738 490.204 12.0183 520.439 7.74755C525.862 7.00185 532.438 6.05279 535.014 5.64605C567.282 0.765152 617.379 -0.861814 682.797 0.900732C744.079 2.5277 760.959 3.40897 852.272 9.84905C871.118 11.1371 879.727 11.3404 917.351 11.4082C947.246 11.476 963.245 11.7472 968.871 12.3573C976.599 13.1708 977.955 13.4419 977.277 14.052C977.142 14.1876 971.244 15.679 964.126 17.3738C936.129 24.085 893.963 27.3389 851.662 25.9153C832.003 25.3052 824.478 24.8985 785.16 22.3224C769.5 21.3056 735.063 19.6786 704.828 18.4584C674.865 17.306 601.313 16.8992 584.162 17.7805C549.928 19.543 524.845 22.5258 495.018 28.4236C484.239 30.5251 463.427 35.8127 460.512 37.1685C459.36 37.7108 455.089 39.4056 450.954 40.897C437.87 45.8457 435.566 46.9981 436.04 48.6251C439.023 58.997 439.023 63.3355 436.108 69.7078C433.939 74.5209 427.837 80.5543 422.957 82.7914C418.415 84.8251 410.28 85.8419 405.941 84.8928C400.179 83.6048 396.383 79.1307 396.383 73.6397C396.451 69.8434 397.942 64.0812 399.976 60.1494C402.145 55.8786 409.06 47.0659 411.5 45.4389C412.517 44.761 413.33 43.9475 413.33 43.6086C413.33 42.6595 405.06 40.3547 398.552 39.4734C390.417 38.4565 379.164 39.609 363.166 42.9985C353.404 45.0322 332.931 50.7266 331.643 51.7434C331.304 52.0146 328.254 53.0992 324.864 54.0483C321.542 55.0651 307.51 59.6749 293.681 64.2846C279.919 68.8943 263.582 74.0464 257.413 75.809C251.244 77.5715 245.956 79.2663 245.549 79.5374C243.448 81.1644 205.35 89.7737 187.928 92.4854C183.115 93.231 177.149 94.1801 174.709 94.5869C168.743 95.6037 129.493 95.6037 124.205 94.5869C121.968 94.1801 116.545 93.231 112.138 92.4176C95.9364 89.6382 76.6839 84.1472 65.9053 79.334C48.0765 71.267 36.3487 64.6236 26.1802 56.6921C24.1465 55.1329 22.2484 53.7771 22.045 53.7771C21.5027 53.7771 22.045 58.1835 22.8585 60.5561C23.6042 62.7254 25.2989 78.1816 26.5869 94.7902C28.0783 114.721 28.8918 135.6 29.6375 176.139C30.3832 217.152 31.1967 238.099 32.7559 255.114C33.8405 267.588 36.2132 284.535 37.0266 286.23C37.2978 286.84 38.2469 290.365 39.1281 294.094C41.0263 302.432 43.1278 308.533 46.924 316.261C49.5678 321.616 53.703 327.65 54.6521 327.65C54.8555 327.65 56.2791 325.887 57.7705 323.853C61.7023 318.295 70.7184 310.024 75.3959 307.516C91.8012 298.907 106.308 300.534 118.104 312.329C126.645 320.938 130.306 327.853 131.12 336.869C131.662 343.174 130.035 347.377 124.951 352.461C121.222 356.122 114.511 360.189 112.07 360.189C111.664 360.189 110.443 360.664 109.291 361.274C106.783 362.697 93.9027 363.375 88.954 362.358C79.0566 360.392 68.8881 356.189 61.6345 351.241C59.1941 349.546 58.5161 349.343 58.0416 350.088C56.8214 351.919 54.1776 361.274 53.0251 367.646C52.415 371.171 51.6015 374.832 51.2626 375.781C49.5 380.662 49.5 419.573 51.2626 425.946C51.6015 427.234 52.5506 433.064 53.3641 438.826C55.6012 455.095 62.7191 488.787 64.8884 493.397C65.2274 494.143 68.1424 504.243 71.3285 515.768C74.5146 527.36 78.0397 539.359 79.1244 542.545C81.0903 548.443 86.7169 569.593 91.0555 587.693C101.36 630.672 106.24 671.482 105.359 706.936C104.614 736.561 100.614 756.694 92.5469 771.337C87.8015 780.082 82.9206 786.251 77.0229 791.064C74.1757 793.369 71.3285 795.538 70.7862 795.809C69.9049 796.352 69.9049 797.029 70.6506 801.504C72.9555 814.858 73.7012 837.907 72.3454 856.956C70.9896 875.531 66.2442 913.968 64.8884 917.086C64.2105 918.713 59.9397 947.388 55.8045 978.436C54.1776 990.91 52.415 1003.45 52.0083 1006.23C49.7712 1021.42 47.0596 1049.82 45.2293 1077.07C44.009 1094.49 43.6023 1138.83 44.4836 1151.98C45.7716 1170.55 49.5 1196.59 51.3304 1200.04C51.6693 1200.65 53.0929 1205.26 54.4487 1210.28C56.957 1219.43 63.6682 1237.94 64.7529 1238.68C65.0918 1238.89 65.7019 1240.11 66.1087 1241.39C67.1933 1244.45 76.2772 1261.12 80.1412 1267.15C81.9038 1269.87 83.1918 1272.24 82.9884 1272.37C82.7851 1272.58 81.9716 1271.56 81.0903 1270.14ZM55.5334 786.725C57.1603 785.098 50.9236 770.523 44.9581 762.05C41.7042 757.372 36.6199 752.491 35.6708 753.034C35.3997 753.237 34.5862 754.999 33.9083 756.965C33.027 759.609 32.6881 762.456 32.6881 768.286C32.6881 774.998 32.9592 776.557 34.315 779.675C36.9589 785.505 42.1109 788.149 50.1779 787.674C52.754 787.539 55.1266 787.132 55.5334 786.725ZM104.817 349.682C110.511 348.936 117.9 344.191 120.137 339.852C122.849 334.632 114.172 321.82 104.546 317.007C100.139 314.77 94.1738 314.227 89.2251 315.651C84.9543 316.939 78.5143 320.871 74.0401 325.006C70.9218 327.853 64.2105 336.462 64.2105 337.547C64.2783 338.7 76.6161 345.546 82.1072 347.512C87.5304 349.41 95.8008 350.698 99.8004 350.292C100.953 350.156 103.19 349.885 104.817 349.682ZM418.618 69.4367C421.533 67.9453 425.126 64.149 425.872 61.912C426.414 60.0816 425.668 54.455 424.855 54.455C423.973 54.455 417.94 59.4037 415.228 62.4543C412.991 64.9625 409.941 69.9112 409.941 71.1314C409.941 71.9449 415.974 70.7925 418.618 69.4367Z" fill="black"></path></svg> 