<?xml version="1.0" encoding="UTF-8"?> <svg xmlns="http://www.w3.org/2000/svg" width="2305" height="1706" viewBox="0 0 2305 1706" fill="none"><path d="M341.733 17.0652C322.267 35.8652 313.067 43.9986 311.067 43.9986C310.4 43.9986 308.4 45.5986 306.533 47.4653C304.8 49.3319 302.133 51.4653 300.667 52.1319C299.2 52.7986 295.333 55.4653 292 57.9986C288.667 60.5319 284.667 63.1986 283.067 63.8653C281.467 64.6653 279.733 65.9986 279.067 67.0653C278.533 68.1319 276 69.9986 273.733 71.1986C271.333 72.3986 269.333 73.9986 269.333 74.6653C269.333 75.4653 268.533 75.9986 267.6 75.9986C266.533 75.9986 264.667 77.1986 263.333 78.6653C262 80.1319 260.267 81.3319 259.333 81.3319C258.4 81.3319 256.667 82.5319 255.333 83.9986C254 85.4653 252.267 86.6653 251.6 86.6653C250.8 86.6653 249.067 87.5986 247.733 88.9319C245.2 91.1986 241.2 93.7319 236.667 95.8653C235.067 96.5319 233.067 97.9986 232.133 99.1986C231.2 100.399 229.733 101.332 228.933 101.332C228.267 101.332 225.733 102.665 223.467 104.399C215.867 110.132 183.733 127.199 173.333 130.932C169.333 132.399 165.467 134.132 164.8 134.799C164 135.465 162.533 135.999 161.467 135.999C159.6 135.999 156.667 137.199 145.067 142.932C143.733 143.465 141.467 143.999 140.133 143.999C138.667 143.999 137.2 144.532 136.8 145.199C136.267 145.865 132.933 146.799 129.333 147.332C125.733 147.865 122.4 148.799 121.867 149.465C121.467 150.132 119.467 150.665 117.333 150.665C115.2 150.665 113.067 151.199 112.667 151.999C112.267 152.665 109.867 153.332 107.333 153.332C104.8 153.332 102.533 153.865 102.133 154.532C101.733 155.199 99.0667 155.999 96.4 156.532C93.6 156.932 87.7333 157.865 83.3333 158.665C78.9333 159.465 71.8667 160.532 67.7333 160.932C60.8 161.465 60 161.332 60 159.065C60 156.265 67.3333 147.999 69.8667 147.999C70.6667 147.999 72.2667 146.799 73.3333 145.332C74.4 143.865 75.8667 142.665 76.8 142.665C77.6 142.665 79.3333 141.465 80.6667 139.999C82 138.532 83.6 137.332 84.2667 137.332C84.9333 137.332 91.3333 134.532 98.4 131.199C122.8 119.465 127.467 117.332 129.333 117.332C130.933 117.332 139.467 113.732 151.067 107.865C154 106.532 157.067 105.332 157.867 105.332C158.8 105.332 161.333 104.532 163.467 103.465C165.6 102.399 170.4 100.265 174 98.7986C177.733 97.1986 181.733 95.3319 182.933 94.6653C184.267 93.8653 186.133 93.3319 187.2 93.3319C188.267 93.3319 192.4 91.4653 196.4 89.3319C200.4 87.0653 204.4 85.3319 205.2 85.3319C205.867 85.3319 212.133 82.6653 219.067 79.3319C226 75.9986 232.667 73.3319 233.733 73.3319C234.8 73.3319 236 72.9319 236.267 72.2653C236.533 71.7319 240 69.7319 244 67.8653C248 65.8653 255.6 62.2653 260.667 59.8653C265.867 57.3319 270.267 54.9319 270.4 54.2653C270.667 53.7319 271.733 53.3319 272.8 53.3319C273.867 53.3319 277.733 51.1986 281.467 48.6653C285.2 46.1319 289.067 43.9986 290 43.9986C290.8 43.9986 292.667 42.7986 294 41.3319C295.333 39.8653 296.933 38.6653 297.733 38.6653C298.4 38.6653 301.333 36.5319 304.133 33.9986C307.067 31.4652 309.867 29.3319 310.533 29.3319C312.133 29.3319 317.333 20.3986 317.333 17.5986C317.333 16.3986 316.133 13.8652 314.933 12.2652C312.667 9.33191 311.733 9.19858 303.2 9.73191C291.333 10.6652 284.133 11.9986 283.2 13.4652C282.8 14.1319 281.2 14.6652 279.733 14.6652C278.133 14.6652 273.467 15.8652 269.467 17.1986C265.333 18.5319 258.4 20.7986 254 22.1319C249.6 23.4652 244 25.5986 241.6 26.9319C239.2 28.2652 236.533 29.3319 235.6 29.3319C234.667 29.3319 231.333 30.5319 228.267 31.9986C225.333 33.4652 222.133 34.6652 221.467 34.6652C220.667 34.6652 218.133 35.8652 215.733 37.3319C213.333 38.7986 210.533 39.9986 209.467 39.9986C208.533 39.9986 204 41.7319 199.467 43.8653C195.067 45.9986 188.4 49.0653 184.667 50.6653C178.133 53.5986 162.4 61.3319 142.667 71.1986C137.2 73.9986 128.8 78.1319 124 80.3986C119.2 82.7986 115.067 84.9319 114.667 85.3319C114.267 85.7319 111.867 87.0653 109.333 88.2653C100.8 92.5319 78.2667 105.599 69.8667 111.199C67.7333 112.665 63.0667 115.732 59.3333 118.265C55.7333 120.665 50.2667 124.399 47.3333 126.665C44.4 128.799 40.8 131.199 39.3333 131.865C36 133.465 9.19999 160.665 6.26666 165.599C1.99999 172.532 5.06666 174.665 10.6667 168.665C12.4 166.799 14.4 165.332 15.2 165.332C16 165.332 18.1333 163.465 19.8667 161.199C21.6 159.065 24.9333 156.265 27.0667 155.065C29.3333 153.999 32.5333 151.332 34.2667 149.199C36.1333 147.065 38.2667 145.332 39.2 145.332C40.1333 145.332 42.5333 143.465 44.6667 141.332C46.8 139.065 49.2 137.332 50 137.332C50.8 137.332 52.9333 135.865 54.6667 133.999C56.4 132.132 58.5333 130.665 59.3333 130.665C60.2667 130.665 62 129.465 63.3333 127.999C64.6667 126.532 66.4 125.332 67.0667 125.332C67.8667 125.332 69.6 124.399 70.9333 123.065C73.7333 120.532 78.4 117.732 81.7333 116.532C82.9333 116.132 84 115.199 84 114.532C84 113.865 84.8 113.332 85.7333 113.332C86.6667 113.332 88.6667 112.265 90.1333 110.932C91.4667 109.732 94.5333 107.732 96.6667 106.665C98.9333 105.599 101.6 103.999 102.667 103.199C103.733 102.265 108.533 99.5986 113.333 97.1986C118.133 94.9319 124.533 91.1986 127.6 89.1986C130.667 87.0653 133.467 85.3319 133.867 85.3319C134.8 85.3319 165.867 70.1319 170.667 67.3319C178.4 62.7986 199.333 53.3319 201.467 53.3319C202.667 53.3319 204 52.9319 204.267 52.2653C204.8 51.0653 215.467 45.8653 220 44.5319C223.733 43.4653 232.8 39.7319 240.4 35.8652C243.333 34.5319 246.667 33.3319 248 33.3319C249.467 33.3319 250.933 32.6652 251.333 31.9986C251.733 31.1986 253.333 30.6652 254.8 30.6652C256.133 30.6652 258.533 29.9986 260 29.3319C261.467 28.5319 263.733 27.4652 265.2 26.7986C266.533 26.1319 270.4 25.1986 273.867 24.6652C277.2 24.1319 280.4 23.1986 280.8 22.5319C281.2 21.8652 282.8 21.3319 284.533 21.3319C286.133 21.3319 288 20.7986 288.8 20.1319C290.8 18.1319 305.733 17.7319 306.267 19.5986C306.667 20.5319 306.133 21.3319 305.2 21.3319C304.267 21.3319 302 22.7986 300.133 24.5319C296.8 27.5986 292.4 30.2653 274.667 39.7319C259.2 47.9986 251.067 51.9986 249.6 51.9986C248.8 51.9986 244 54.1319 238.8 56.6653C233.733 59.1986 228.933 61.3319 228.267 61.3319C227.467 61.3319 223.467 63.0653 219.333 65.3319C215.2 67.4653 211.067 69.3319 210.133 69.3319C209.2 69.3319 205.333 70.7986 201.6 72.6653C197.733 74.5319 194.133 75.9986 193.333 75.9986C192.667 75.9986 190 77.1986 187.333 78.6653C184.667 80.1319 181.733 81.3319 180.8 81.3319C179.733 81.3319 176.667 82.5319 173.733 83.8653C166.533 87.4653 159.6 90.3986 153.333 92.6653C147.067 94.9319 140.133 97.8653 132.933 101.465C130 102.799 126.933 103.999 125.867 103.999C124.933 103.999 122.133 105.065 119.733 106.399C117.333 107.732 112.4 109.999 108.667 111.465C98.9333 115.065 76.2667 126.665 69.0667 131.732C65.6 133.999 62.5333 135.999 62.2667 135.999C60.8 135.999 45.3333 152.665 45.3333 154.265C45.3333 155.065 44.8 155.999 44.2667 156.265C43.6 156.399 42.6667 159.199 42.2667 162.265C41.4667 167.332 41.7333 168.132 45.6 171.332C49.7333 174.799 49.8667 174.799 66.5333 174.265C75.7333 173.865 86 172.932 89.3333 172.132C92.6667 171.465 98.9333 170.132 103.333 169.332C107.733 168.532 112.4 167.332 113.6 166.665C114.933 165.865 117.733 165.332 120 165.332C122.133 165.332 124 164.665 124 163.999C124 163.199 125.467 162.665 127.2 162.665C129.067 162.665 130.933 161.999 131.333 161.332C131.733 160.532 133.6 159.999 135.333 159.999C137.067 159.999 138.933 159.332 139.333 158.665C139.733 157.865 141.333 157.332 142.667 157.332C145.067 157.332 147.467 156.399 160.8 150.399C163.733 149.065 166.8 147.999 167.467 147.999C169.2 147.999 208.933 127.865 215.6 123.599C218.8 121.599 221.6 119.999 222 119.999C222.533 119.999 224.8 118.532 227.2 116.665C229.6 114.799 232.267 113.332 232.933 113.332C233.733 113.332 235.2 112.399 236.133 111.199C237.067 109.999 239.067 108.532 240.667 107.865C242.133 107.199 246 104.532 249.333 101.999C252.667 99.4653 256.533 96.7986 258 96.1319C259.467 95.4653 262.133 93.3319 263.867 91.4653C265.733 89.5986 267.867 87.9986 268.667 87.9986C269.467 87.9986 271.6 86.5319 273.333 84.6653C275.067 82.7986 277.067 81.3319 277.733 81.3319C278.4 81.3319 281.2 79.3319 283.867 76.9319C293.467 68.6653 296.667 65.9986 299.467 63.9986C308.533 57.7319 342.667 25.7319 342.667 23.5986C342.667 22.7986 345.2 19.4652 348.4 15.8652C357.2 5.86524 360 2.39858 360 1.06524C360 0.531908 359.867 -0.00142512 359.733 -0.00142512C359.467 -0.00142512 351.467 7.73191 341.733 17.0652Z" fill="black"></path><path d="M366.667 4.39953C366.667 5.59953 367.2 6.93287 368 7.33287C368.667 7.73287 370.267 10.1329 371.333 12.5329C372.533 14.9329 374.533 18.1329 375.733 19.5995C377.867 21.9995 380.267 26.2662 390 45.0662C392.4 49.7329 395.2 54.5329 396.267 55.7329C397.333 56.9329 399.333 60.3995 400.667 63.3329C402.133 66.2662 404.933 71.1995 407.067 74.2662C409.067 77.3329 410.667 80.1329 410.667 80.5329C410.667 80.9329 412.267 83.4662 414.133 86.2662C416 89.0662 418.133 92.5329 418.8 93.9995C420.133 96.9329 421.2 98.6662 427.867 108.666C430.267 112.266 432.8 116.533 433.6 118C434.933 120.933 436.4 123.333 441.733 131.6C443.733 134.8 445.333 137.733 445.333 138.4C445.333 139.066 446.533 140.666 448 142C449.467 143.333 450.667 144.933 450.667 145.733C450.667 146.4 454 152 458 158.133C462 164.4 465.333 169.866 465.333 170.533C465.333 171.2 466.267 172.4 467.333 173.333C468.533 174.266 470.667 177.6 472.133 180.533C473.6 183.6 475.6 187.2 476.4 188.666C478.667 192.4 484.4 201.6 486.267 204.666C491.2 212.533 498.133 224 501.067 229.333C502.8 232.666 505.2 236.266 506.133 237.466C507.2 238.533 508 240.133 508 240.8C508 241.466 510.133 245.2 512.667 248.933C515.2 252.8 517.333 256.8 517.333 258C517.333 259.066 517.733 260 518.4 260C519.333 260 521.867 264 527.333 274C532.933 284.4 535.333 288.666 536 289.333C536.933 290.266 541.6 299.066 547.6 310.666C550.267 316.133 554.133 323.066 556.133 326C558.133 328.933 561.333 334.666 563.333 338.666C565.333 342.666 568.133 348.4 569.6 351.333C575.467 362.933 583.867 379.866 589.467 391.333C592.533 397.866 595.6 403.6 596 404C596.4 404.4 599.067 410 601.867 416.666C604.667 423.2 608.667 432.266 610.667 436.666C613.867 443.733 616.4 449.333 620 458C620.533 459.466 622.267 463.466 623.867 466.933C625.467 470.4 626.667 473.866 626.667 474.666C626.667 475.333 627.867 478 629.333 480.666C630.8 483.333 632 486.133 632 487.066C632 488 633.2 491.466 634.8 494.533C636.267 497.733 637.867 502.4 638.267 504.8C638.667 507.333 639.6 509.733 640.133 510.133C640.8 510.533 641.333 512 641.333 513.466C641.333 516 641.867 517.2 645.067 523.6C646 525.333 646.667 527.866 646.667 529.2C646.667 530.666 647.333 532.266 648 532.666C648.8 533.066 649.333 534.666 649.333 536.133C649.333 537.466 649.867 539.733 650.533 541.066C651.2 542.266 652.533 546 653.333 549.333C654.267 552.666 655.6 556.666 656.267 558.266C657.067 559.866 657.333 562.533 656.8 564.4C656 568 638.8 585.733 633.467 588.533C631.6 589.466 627.867 591.466 625.333 592.8C622.8 594.133 618.533 596 616 596.933C610.267 598.933 575.2 599.333 574 597.333C573.6 596.533 571.6 596 569.733 596C566.133 596 558.533 593.866 554.4 591.866C553.067 591.2 550.933 590.666 549.733 590.666C548.4 590.666 543.067 589.066 538 587.2C532.8 585.333 526.933 583.2 524.667 582.4C522.533 581.733 518.133 579.866 515.067 578.533C511.867 577.2 508.8 576 508 576C507.333 576 504.667 574.8 502 573.333C499.333 571.866 496.533 570.666 495.733 570.666C494.933 570.666 489.733 568.533 484.133 565.866C478.533 563.2 472.8 560.533 471.333 560C465.867 558 455.333 552.666 454.933 551.6C454.667 551.066 453.333 550.666 452 550.666C450.667 550.666 449.067 550 448.667 549.333C448.267 548.533 446.8 548 445.733 548C444.533 548 437.733 545.2 430.8 541.866C408.667 531.2 402.133 528.266 398.667 527.333C395.6 526.533 386.667 522.8 381.067 519.866C379.733 519.2 377.467 518.666 376.133 518.666C374.667 518.666 373.067 518 372.667 517.333C372.267 516.533 370.533 516 368.8 516C367.2 516 365.333 515.466 364.533 514.933C361.867 512.666 346.533 508.533 335.333 507.066C332.4 506.666 329.467 505.866 328.8 505.2C328 504.533 324.933 504 321.867 504C318.667 504 315.733 503.333 315.333 502.666C314.933 501.866 309.867 501.333 304.133 501.333C298.533 501.333 293.2 500.666 292.4 499.866C290.8 498.266 260.133 499.066 242.667 501.2C236.4 502 228 502.933 224 503.466C220 503.866 216.133 504.8 215.467 505.466C214.667 506.133 212.4 506.666 210.133 506.666C208 506.666 204.4 507.2 202.133 508C199.867 508.666 192.667 510.8 186 512.8C179.467 514.8 173.467 516.933 172.8 517.6C172 518.133 170.533 518.666 169.467 518.666C164.933 518.666 137.867 533.733 133.2 538.933C132 540.266 130.4 541.333 129.733 541.333C128.933 541.333 127.333 542.533 126 544C124 546.266 116.8 550.666 115.067 550.666C114.933 550.666 114.667 549.733 114.667 548.666C114.667 546.8 110.933 537.333 107.867 531.733C107.2 530.4 106.667 528.133 106.667 526.8C106.667 525.333 106.133 523.733 105.333 523.333C104.667 522.933 104 521.333 104 519.866C104 518.533 103.467 516.266 102.8 514.933C100.667 511.066 94.6667 492.133 94.6667 489.466C94.6667 488 94.1333 486.4 93.3333 486C92.6667 485.6 92 483.466 92 481.333C92 479.2 91.4667 477.066 90.6667 476.666C90 476.266 89.3333 474.666 89.3333 473.2C89.3333 471.866 88.8 469.6 88.1333 468.266C87.4667 467.066 86.1333 463.333 85.3333 460C84.4 456.666 82.8 451.466 81.8667 448.266C80.8 445.2 80 441.2 80 439.6C80 437.866 78.8 434 77.3333 430.933C75.8667 428 74.6667 424.4 74.6667 423.2C74.6667 420.533 72.2667 412.533 70.5333 409.066C69.8667 407.733 69.3333 405.466 69.3333 404.133C69.3333 402.666 68.8 401.066 68 400.666C67.3333 400.266 66.6667 398.133 66.6667 396.133C66.6667 394.133 66.2667 392 65.7333 391.466C64.5333 390.4 61.6 379.466 60.4 372.266C60 369.866 59.2 367.6 58.5333 367.2C57.8667 366.8 57.3333 365.066 57.3333 363.333C57.3333 361.6 56.8 359.733 56 359.333C55.3333 358.933 54.6667 356.8 54.6667 354.666C54.6667 352.533 54.1333 350.4 53.3333 350C52.6667 349.6 52 348 52 346.533C52 345.2 51.4667 342.933 50.8 341.6C50.1333 340.4 48.9333 336.666 48 333.333C47.0667 330 45.8667 326 45.2 324.4C44.6667 322.8 43.7333 318.4 43.2 314.666C42.6667 310.933 41.7333 307.6 41.2 307.2C40.5333 306.8 40 305.066 40 303.333C40 301.6 39.4667 299.733 38.6667 299.333C38 298.933 37.3333 296.8 37.3333 294.666C37.3333 292.533 36.8 290.4 36 290C35.3333 289.6 34.6667 287.733 34.6667 286C34.6667 284.266 34.1333 282.4 33.3333 282C32.6667 281.6 32 279.733 32 277.866C32 276.133 31.4667 273.6 30.8 272.266C30.1333 271.066 28.8 267.333 28 264C27.0667 260.666 25.4667 255.466 24.5333 252.266C23.4667 249.2 22.6667 245.466 22.6667 244C22.6667 242.666 22 241.066 21.3333 240.666C20.6667 240.266 20 238.4 20 236.533C20 234.8 19.4667 232.266 18.8 230.933C18.1333 229.733 16.8 226 15.8667 222.666C14.9333 219.333 13.7333 216.133 13.0667 215.333C12.5333 214.666 12 212.8 12 211.333C12 209.733 11.6 208 11.0667 207.466C9.86667 206.4 6.93333 195.466 5.73333 188.266C5.33333 185.866 4.53333 183.6 3.86667 183.2C3.2 182.8 2.66667 180.8 2.66667 178.533C2.66667 176.4 2.13333 174.666 1.33333 174.666C0.666667 174.666 0 175.466 0 176.266C0 180.133 3.06667 199.6 4 202C5.2 204.8 6.4 210 7.6 217.066C8 219.466 8.8 221.733 9.46667 222.133C10.1333 222.533 10.6667 224.8 10.6667 227.333C10.6667 229.866 11.2 232.133 11.8667 232.533C12.5333 232.933 13.3333 235.2 13.7333 237.6C14.1333 240 15.2 244.666 16 248C16.8 251.333 18.1333 257.333 18.8 261.333C19.4667 265.333 20.6667 269.733 21.3333 270.933C22.1333 272.266 22.6667 275.066 22.6667 277.2C22.6667 279.466 23.3333 281.6 24 282C24.8 282.4 25.3333 284.533 25.3333 286.666C25.3333 288.8 26 290.933 26.6667 291.333C27.4667 291.733 28 294.133 28 296.666C28 299.2 28.6667 301.6 29.3333 302C30.1333 302.4 30.6667 304.8 30.6667 307.333C30.6667 309.866 31.3333 312.266 32 312.666C32.8 313.066 33.3333 315.2 33.3333 317.333C33.3333 319.466 34 321.6 34.6667 322C35.4667 322.4 36 324.8 36 327.2C36 329.6 36.4 332 37.0667 332.533C37.8667 333.466 40.5333 344.133 42.2667 354.4C42.6667 356.8 43.4667 359.066 44.1333 359.466C44.8 359.866 45.3333 361.6 45.3333 363.466C45.3333 365.2 45.8667 367.733 46.5333 369.066C48.2667 372.533 50.6667 380.533 50.6667 383.066C50.6667 384.4 51.2 386.4 51.8667 387.733C52.5333 388.933 54.6667 396.266 56.6667 404C58.6667 411.733 60.8 419.066 61.4667 420.266C62.1333 421.6 62.6667 424.4 62.6667 426.533C62.6667 428.8 63.3333 430.933 64 431.333C64.8 431.733 65.3333 433.6 65.3333 435.466C65.3333 437.2 65.8667 439.733 66.5333 441.066C67.2 442.266 68.4 446 69.3333 449.333C70.1333 452.666 71.3333 457.066 72 459.333C72.6667 461.466 73.4667 465.466 74 468C74.4 470.533 75.3333 473.866 75.8667 475.333C76.5333 476.8 77.7333 480.666 78.6667 484C79.4667 487.333 80.8 491.066 81.4667 492.266C82.1333 493.6 82.6667 495.866 82.6667 497.333C82.6667 498.8 83.2 501.066 83.8667 502.4C84.5333 503.6 85.8667 507.333 86.8 510.666C87.7333 514 88.9333 517.2 89.4667 518C90 518.666 90.8 522.133 91.3333 525.733C91.8667 529.2 92.8 532.4 93.4667 532.8C94.1333 533.2 94.6667 534.666 94.6667 536.133C94.6667 537.466 95.3333 539.866 96 541.333C96.8 542.8 98 545.2 98.6667 546.666C99.4667 548.133 100 550.533 100 551.866C100 553.333 100.667 554.933 101.333 555.333C102.133 555.733 102.667 557.466 102.667 559.2C102.667 560.8 103.2 562.666 103.867 563.333C104.4 564.133 106.667 569.2 108.667 574.666C112.8 585.733 114.8 590.666 119.333 600.666C122.933 608.666 125.333 614.133 129.467 624C131.2 628 132.933 631.6 133.333 632C133.733 632.4 136.933 638.4 140.533 645.333C150.933 666 155.333 674 156.4 674.4C156.933 674.666 157.333 675.6 157.333 676.666C157.333 677.6 158.267 679.066 159.333 680C160.4 680.933 162.533 684.133 164 687.2C165.467 690.133 169.067 696.533 172 701.2C174.933 705.733 177.333 710 177.333 710.533C177.333 711.2 178.4 712.533 179.733 713.733C180.933 714.933 183.2 718.133 184.667 720.933C186.133 723.733 188.4 726.8 189.6 727.733C190.933 728.666 192 730.266 192 731.2C192 732.133 193.467 734.266 195.333 736C197.2 737.733 198.667 739.733 198.667 740.4C198.667 741.066 200.267 743.6 202.4 746.133C204.4 748.533 208.133 753.333 210.667 756.666C226.133 776.8 253.867 805.733 271.733 820.666C292.533 838 289.867 835.866 309.333 848.8C315.6 852.933 320.933 856.8 321.067 857.466C321.333 858.133 322.133 858.666 322.667 858.666C323.333 858.666 330.667 861.866 338.933 865.866C366.133 878.8 370.267 880.266 388 882.933C407.333 885.866 429.733 884.133 439.2 878.8C441.733 877.333 444.133 876.533 444.533 876.933C445.333 877.733 425.2 899.733 397.733 927.866C388 937.866 380 946.4 380 946.933C380 947.466 378.533 949.2 376.8 950.933C372 955.733 362.4 970.4 357.467 980.666C355.067 985.733 352.533 991.066 351.867 992.266C348.667 998.533 352 1005.6 360 1009.07C366.4 1012 372 1013.07 384.667 1014.13C389.067 1014.53 393.2 1015.47 394 1016.13C395.733 1017.73 438.267 1017.73 439.333 1016C439.733 1015.2 443.067 1014.67 446.8 1014.67C450.4 1014.67 454.4 1014.13 455.733 1013.33C458.667 1011.73 478.667 1005.33 480.933 1005.33C482.667 1005.33 488 1002.8 489.333 1001.33C489.733 1000.93 498.267 996.533 508.4 991.466C518.4 986.533 526.667 981.866 526.667 981.2C526.667 980.533 527.467 980 528.4 980C529.467 980 531.333 978.8 532.667 977.333C534 975.866 535.6 974.666 536.267 974.666C539.733 974.666 561.333 955.466 561.333 952.4C561.333 948.933 566.267 950.8 571.733 956.4C574.8 959.466 577.333 962.666 577.333 963.466C577.333 964.933 565.867 976 564.267 976C563.733 976 559.333 979.866 554.667 984.666C550 989.466 545.467 993.333 544.667 993.333C543.867 993.333 540.533 996 537.333 999.333C534.133 1002.67 530.8 1005.33 530 1005.33C529.2 1005.33 525.867 1008 522.667 1011.33C519.467 1014.67 516.133 1017.33 515.333 1017.33C513.467 1017.33 485.333 1045.6 485.333 1047.47C485.333 1048.27 484.133 1050 482.667 1051.33C481.2 1052.67 480 1054.4 480 1055.07C480 1055.87 479.2 1057.47 478.133 1058.53C476.4 1060.53 466.933 1078.93 463.867 1086.27C463.2 1088 462.133 1090.67 461.333 1092.27C459.6 1096.53 453.867 1114.13 452 1121.33C451.067 1124.67 449.867 1128.4 449.2 1129.6C448.533 1130.93 448 1133.47 448 1135.2C448 1137.07 447.467 1138.93 446.667 1139.33C446 1139.73 445.333 1141.6 445.333 1143.33C445.333 1145.07 444.8 1146.93 444 1147.33C443.333 1147.73 442.667 1150.13 442.667 1152.67C442.667 1155.2 442.133 1157.6 441.333 1158C440.667 1158.4 440 1160.53 440 1162.53C440 1164.53 439.6 1166.67 439.067 1167.2C438.133 1168.13 435.733 1179.6 433.867 1192C433.467 1194.53 432.667 1197.87 432 1199.33C430.8 1202 429.2 1215.87 429.067 1223.33C429.067 1228.8 430.533 1236 432.4 1240C436.267 1248 448.533 1254.27 457.2 1252.8C459.867 1252.27 464.267 1251.6 467.067 1251.2C469.733 1250.67 472.4 1249.87 472.8 1249.2C473.2 1248.53 474.4 1248 475.6 1248C481.2 1248 506.533 1233.87 518.4 1224C529.2 1215.2 558.667 1184.53 558.667 1182.27C558.667 1181.87 560.267 1179.2 562.133 1176.4C564 1173.6 566.8 1168.67 568.267 1165.33C570.8 1159.33 575.467 1149.47 577.6 1145.07C578.133 1143.73 578.667 1141.87 578.667 1140.93C578.667 1136.53 582.133 1132.13 587.067 1130.67C591.733 1129.33 601.733 1124.27 611.333 1118.4C613.6 1117.07 616.533 1115.47 618 1114.8C619.467 1114.13 622.933 1112 625.733 1110.13C628.533 1108.27 631.067 1106.67 631.467 1106.67C632.933 1106.67 650.667 1094.13 650.667 1093.2C650.667 1092.53 651.467 1092 652.4 1092C656.4 1091.87 670.667 1075.87 670.667 1071.33C670.667 1066.67 666.933 1066.93 659.333 1072.27C648 1080.4 644.8 1082.8 644 1083.73C643.6 1084.27 640.4 1087.07 636.667 1090C633.067 1092.8 629.733 1095.6 629.333 1096C628.933 1096.53 627.733 1097.33 626.667 1097.73C625.6 1098.27 622 1100.8 618.667 1103.33C615.333 1105.87 611.467 1108.53 610 1109.2C608.533 1109.87 605.867 1112 604.133 1113.87C602.267 1115.73 600.133 1117.33 599.333 1117.33C598.4 1117.33 596.667 1118.53 595.333 1120C594 1121.47 592.267 1122.67 591.333 1122.67C590.4 1122.67 588.667 1123.87 587.333 1125.33C586 1126.8 584.267 1127.87 583.467 1127.6C582.667 1127.33 582 1121.2 581.867 1112.53C581.467 1097.47 580.267 1091.47 575.6 1081.33C572.667 1075.2 566.8 1066.4 565.067 1065.6C564.4 1065.33 564 1064.4 564 1063.6C564 1061.73 556.4 1053.33 554.667 1053.33C553.333 1053.33 554.533 1058.4 556.133 1059.47C556.8 1059.87 557.333 1061.2 557.333 1062.67C557.333 1064 559.067 1068.4 561.333 1072.53C563.467 1076.67 565.6 1082.27 566.133 1085.07C566.667 1087.73 567.467 1090.53 568 1091.33C568.667 1092 569.467 1096.53 569.867 1101.33C570.267 1106.13 570.933 1113.2 571.467 1117.07C572 1121.6 571.733 1124.8 570.8 1125.73C570 1126.53 569.333 1129.2 569.333 1131.73C569.333 1140.8 559.333 1163.73 549.333 1177.87C536.933 1195.33 512.133 1217.87 492.667 1229.6C481.733 1236.13 466.267 1241.33 457.6 1241.33C452.133 1241.33 445.333 1239.07 445.333 1237.33C445.333 1236.8 447.467 1232.13 450 1227.2C452.533 1222.13 454.667 1216.93 454.667 1215.73C454.667 1214.53 455.067 1213.33 455.733 1213.07C457.333 1212.4 464 1191.07 464 1186.8C464 1184.67 464.667 1182.4 465.333 1182C466.933 1180.93 467.2 1135.07 465.467 1134.13C463.067 1132.53 462.667 1122.8 464.8 1117.07C466 1113.87 468.133 1108 469.6 1104C475.867 1086.93 486.667 1065.07 493.333 1056.13C497.2 1050.93 528.133 1020 547.867 1001.47C555.333 994.533 561.333 988.266 561.333 987.466C561.333 986.666 564.133 983.333 567.467 980C570.8 976.666 574.667 972 576.133 969.6C579.333 964.533 581.6 964.266 586.8 968.266C596.533 975.733 601.467 979.6 605.6 982.4C619.6 992.133 626.667 997.733 626.667 999.333C626.667 1000.27 629.333 1003.6 632.667 1006.8C636 1010 638.667 1013.2 638.667 1014C638.667 1014.8 641.067 1017.87 644 1020.67C646.933 1023.47 649.333 1026.4 649.333 1027.07C649.333 1027.87 651.6 1030.93 654.4 1034.13C662.667 1043.73 667.2 1049.33 669.333 1052.67C671.6 1056.13 676.133 1061.87 682.4 1069.2C684.667 1072 686.667 1074.67 686.667 1075.2C686.667 1075.6 687.733 1077.07 689.067 1078.53C690.267 1079.87 693.733 1084.13 696.667 1087.87C699.6 1091.73 704 1097.07 706.4 1099.87C708.667 1102.67 710.667 1105.6 710.667 1106.27C710.667 1106.93 712.533 1109.2 714.667 1111.33C716.933 1113.47 718.667 1115.87 718.667 1116.67C718.667 1117.47 720.4 1119.87 722.667 1122C724.933 1124.13 726.667 1126.53 726.667 1127.33C726.667 1128.13 728.133 1130.27 730 1132C731.867 1133.73 733.333 1135.87 733.333 1136.67C733.333 1137.47 735.2 1139.87 737.333 1142C739.6 1144.13 741.333 1146.4 741.333 1147.07C741.333 1147.73 744.667 1152.13 748.667 1156.67C752.667 1161.33 756 1165.73 756 1166.53C756 1167.2 757.333 1169.33 759.067 1171.07C760.667 1172.93 763.467 1176.53 765.333 1179.33C767.2 1182 770.267 1186.27 772.4 1188.67C774.4 1191.07 776 1193.47 776 1194C776 1194.53 777.6 1196.8 779.467 1199.2C784.667 1205.6 796 1221.33 796 1222.27C796 1222.8 796.933 1224 798 1225.2C803.067 1230.67 808 1237.2 808 1238.27C808 1239.07 809.2 1240.67 810.667 1242C812.133 1243.33 813.333 1245.2 813.333 1246C813.333 1246.93 814.267 1248.4 815.333 1249.33C817.733 1251.33 825.333 1262.4 825.333 1263.87C825.333 1264.4 826.533 1266 828 1267.33C829.467 1268.67 830.667 1270.4 830.667 1271.33C830.667 1272.13 832.133 1274.27 834 1276C835.867 1277.73 837.333 1279.87 837.333 1280.93C837.333 1281.87 838.533 1283.33 840 1284.27C841.467 1285.2 842.667 1286.67 842.667 1287.47C842.667 1288.13 843.867 1290.13 845.467 1291.73C846.933 1293.47 848.933 1296.67 850 1299.07C850.933 1301.47 853.067 1304.53 854.533 1305.87C857.6 1308.67 858.133 1310.67 855.867 1310.67C855.2 1310.67 850.933 1313.07 846.667 1316C842.4 1318.93 838.4 1321.33 838 1321.33C837.467 1321.33 834.8 1323.33 832 1325.73C826.133 1330.67 814.933 1336.8 813.867 1335.6C813.067 1334.8 817.333 1326.27 819.067 1325.6C822.4 1324.13 818 1317.33 813.733 1317.33C812.4 1317.33 808 1324.93 808 1327.47C808 1329.47 807.467 1330.67 803.333 1338.67C794.533 1356 788.933 1364 779.733 1372.93C772.533 1379.87 763.733 1385.33 759.733 1385.33C758.533 1385.33 757.067 1385.87 756.667 1386.67C756.267 1387.33 753.2 1388 750 1388C746.8 1388 743.733 1387.33 743.333 1386.67C742.933 1385.87 741.467 1385.33 740.133 1385.33C736.533 1385.33 733.733 1379.2 735.733 1376C736.667 1374.53 737.333 1371.87 737.333 1370.13C737.333 1368.27 738 1366.4 738.667 1366C739.467 1365.6 740 1362.8 740 1360C740 1357.2 740.667 1354.4 741.333 1354C742.133 1353.6 742.667 1350.53 742.667 1347.33C742.667 1344.13 742.133 1341.07 741.333 1340.67C740.667 1340.27 740 1337.73 740 1335.2C740 1332.67 739.067 1328.8 738 1326.67C736.667 1324.13 736.267 1321.33 736.8 1319.07C738 1314.4 745.067 1300.13 747.733 1296.93C749.867 1294.53 752.4 1290.4 754.533 1286C755.2 1284.53 757.867 1281.2 760.533 1278.8C763.2 1276.27 765.333 1273.47 765.333 1272.67C765.333 1270.4 794.533 1244 796.933 1244C797.733 1244 799.067 1243.2 799.867 1242.13C801.2 1240.53 801.067 1239.87 799.067 1238.93C796 1237.33 792.133 1238.8 788.133 1243.2C786.267 1245.07 784.133 1246.67 783.333 1246.67C782.533 1246.67 780.4 1248.13 778.667 1250C776.933 1251.87 774.933 1253.33 774.133 1253.33C772.267 1253.33 753.333 1272.27 753.333 1274.13C753.333 1274.93 752.133 1276.67 750.533 1278.13C747.467 1280.93 736 1298 736 1299.87C736 1300.53 735.467 1301.33 734.8 1301.6C733.333 1302.13 724 1326 724 1329.2C724 1330.67 723.467 1332.27 722.667 1332.67C721.867 1333.07 721.333 1335.47 721.333 1337.87C721.333 1340.13 720.667 1342.8 719.867 1343.6C717.867 1345.6 717.867 1378.4 719.867 1380.4C720.667 1381.2 721.333 1383.2 721.333 1384.93C721.333 1386.67 722 1388 722.667 1388C723.467 1388 724 1388.8 724 1389.73C724 1391.73 728.133 1395.6 732.933 1398.27C736.533 1400.27 755.467 1400.53 756.667 1398.67C757.067 1397.87 758.533 1397.33 759.733 1397.2C760.933 1397.2 764.667 1395.33 768 1393.2C771.333 1391.07 775.2 1388.8 776.667 1388.13C781.2 1386 796.667 1369.07 803.067 1359.33C811.067 1346.8 813.867 1344.27 825.467 1338.27C842.4 1329.47 846.667 1327.07 849.067 1324.8C850.4 1323.6 852 1322.67 852.667 1322.67C853.333 1322.67 855.467 1321.07 857.6 1319.07C859.6 1317.2 861.467 1315.73 861.6 1316.13C861.867 1316.4 863.333 1318.53 865.067 1320.93C866.667 1323.33 868 1325.73 868 1326.4C868 1327.07 869.2 1328.67 870.667 1330C872.133 1331.33 873.333 1332.93 873.333 1333.6C873.333 1335.07 880.133 1344.4 881.733 1345.07C882.267 1345.33 882.667 1346.27 882.667 1347.2C882.667 1348.13 883.867 1350 885.333 1351.33C886.8 1352.67 888 1354.4 888 1355.2C888 1356 890.667 1360.8 894 1365.73C897.333 1370.8 900 1375.33 900 1375.87C900 1376.53 901.2 1378 902.667 1379.33C904.133 1380.67 905.333 1382.13 905.333 1382.8C905.333 1384.4 912.4 1394.67 913.6 1394.67C914.133 1394.67 914.667 1395.47 914.667 1396.4C914.667 1397.47 915.867 1399.33 917.333 1400.67C918.8 1402 920 1403.6 920 1404.27C920 1404.8 922.133 1408.4 924.667 1412C927.2 1415.6 929.333 1419.2 929.333 1419.73C929.333 1420.4 930.533 1422 932 1423.33C933.467 1424.67 934.667 1426.4 934.667 1427.33C934.667 1428.27 935.867 1430 937.333 1431.33C938.8 1432.67 940 1434.27 940 1434.93C940 1435.73 941.067 1437.6 942.4 1439.33C943.6 1440.93 945.6 1443.73 946.667 1445.33C947.733 1447.07 950 1450 951.733 1452C953.333 1454 954.667 1456.27 954.667 1456.93C954.667 1457.73 955.867 1459.33 957.467 1460.8C959.067 1462.13 961.2 1464.93 962.133 1467.07C963.2 1469.07 964.8 1470.4 965.467 1469.87C966.4 1469.33 966.533 1468.67 965.6 1468.13C964.933 1467.73 963.6 1465.07 962.533 1462.27C961.6 1459.6 960.267 1457.33 959.733 1457.33C959.2 1457.33 958.667 1456.53 958.667 1455.6C958.667 1454.53 957.467 1452.67 956.133 1451.47C954.667 1450.13 953.2 1447.47 952.667 1445.6C952.267 1443.6 950.667 1440.8 949.333 1439.33C947.867 1437.87 945.867 1434.53 944.8 1431.87C943.733 1429.2 941.867 1426.4 940.8 1425.33C939.6 1424.4 938.667 1423.07 938.667 1422.27C938.667 1421.6 937.2 1418.93 935.333 1416.53C933.467 1414.13 932 1411.33 932 1410.27C932 1409.2 931.2 1408 930.133 1407.6C929.067 1407.2 927.067 1404.53 925.733 1401.73C924.533 1398.93 920.8 1392.8 917.733 1388.13C914.533 1383.47 912 1378.8 912 1377.87C912 1376.8 911.6 1376 910.933 1376C910.4 1376 908.533 1373.6 906.667 1370.67C904.8 1367.73 902.933 1365.33 902.533 1365.33C902 1365.33 901.333 1364.27 900.8 1362.93C900.4 1361.73 899.333 1359.47 898.4 1358C897.467 1356.53 895.067 1352.8 893.067 1349.6C890.933 1346.4 889.333 1343.33 889.333 1342.8C889.333 1342.27 888.133 1340.67 886.667 1339.33C885.2 1338 884 1336.53 884 1335.87C884 1335.33 879.067 1327.47 872.933 1318.4C866.8 1309.47 861.467 1301.07 860.933 1300C859.867 1297.73 857.867 1294.67 848.667 1281.33C845.067 1276 840.933 1270 839.6 1267.87C838.133 1265.73 836.533 1264 835.867 1264C835.2 1264 834.667 1263.33 834.667 1262.67C834.667 1261.87 832.667 1258.4 830.4 1254.93C828 1251.47 825.467 1247.6 824.667 1246.4C820.8 1240.4 817.867 1236.4 815.6 1233.73C812.933 1230.67 810.4 1226.8 808.133 1222C807.467 1220.53 805.333 1217.87 803.467 1216.13C801.6 1214.27 800 1212.13 800 1211.07C800 1210.13 799.467 1209.33 798.8 1209.33C798.133 1209.33 796.667 1207.2 795.467 1204.67C794.267 1202.13 792.667 1200 792 1200C791.333 1200 789.467 1197.6 787.867 1194.67C786.133 1191.73 784.4 1189.33 783.733 1189.33C783.2 1189.33 782.667 1188.53 782.667 1187.6C782.667 1186.53 781.067 1184.4 779.2 1182.53C777.333 1180.8 775.2 1178.13 774.533 1176.67C773.867 1175.2 771.2 1171.33 768.667 1168C766.133 1164.67 763.467 1160.8 762.8 1159.33C762.133 1157.87 760 1155.2 758.133 1153.47C756.267 1151.6 754.667 1149.47 754.667 1148.67C754.667 1147.87 753.2 1145.73 751.333 1144C749.467 1142.27 748 1140.4 748 1139.73C748 1139.07 746.4 1136.8 744.4 1134.67C738.4 1128.4 733.333 1121.73 733.333 1120.27C733.333 1119.6 732.4 1118.13 731.067 1117.2C729.067 1115.47 720.133 1104.13 716 1098C713.467 1094.13 707.2 1086.27 701.733 1080C699.333 1077.2 697.333 1074.53 697.333 1074C697.333 1073.47 695.067 1070.4 692.4 1067.2C685.067 1058.93 678.933 1051.6 677.067 1048.93C674.667 1045.6 667.333 1037.6 651.867 1020.93C644.533 1012.93 638.667 1006.13 639.067 1005.87C639.467 1005.47 642 1006.53 644.933 1008.27C647.733 1010 651.867 1012.27 654 1013.33C656.267 1014.4 659.467 1016.27 661.333 1017.47C665.6 1020.27 690.267 1032.8 706 1040C712.667 1043.07 722.267 1047.6 727.333 1050C732.533 1052.4 739.733 1055.73 743.333 1057.33C747.067 1058.93 751.067 1061.2 752.4 1062.4C753.733 1063.6 758.667 1072.53 763.6 1082.27C768.4 1092 772.8 1100.27 773.333 1100.67C774 1101.07 776.667 1105.87 779.333 1111.33C782 1116.8 785.067 1121.87 786.133 1122.8C787.2 1123.6 788 1125.47 788 1126.8C788 1128.27 788.667 1129.33 789.333 1129.33C790.133 1129.33 790.667 1130.13 790.667 1131.07C790.667 1132.13 791.867 1134 793.333 1135.33C794.8 1136.67 796 1138.4 796 1139.33C796 1140.13 797.733 1143.47 799.733 1146.8C801.867 1150 806.667 1157.73 810.667 1164C814.533 1170.27 820.133 1178.8 822.933 1183.07C825.733 1187.33 828 1191.2 828 1191.87C828 1192.4 829.2 1194 830.667 1195.33C832.133 1196.67 833.333 1198.27 833.333 1198.93C833.333 1199.47 835.867 1203.73 839.067 1208.4C842.267 1212.93 847.733 1220.67 851.067 1225.6C854.533 1230.67 857.333 1235.07 857.333 1235.47C857.333 1236 858.933 1238.27 861.067 1240.8C867.733 1248.93 870.667 1253.07 870.667 1254.27C870.667 1254.93 872.133 1256.93 874 1258.67C875.867 1260.4 877.333 1262.53 877.333 1263.33C877.333 1264.13 879.2 1266.53 881.333 1268.67C883.467 1270.8 885.333 1273.07 885.333 1273.6C885.333 1274.27 886.8 1276.4 888.667 1278.4C890.533 1280.4 892 1282.53 892 1283.07C892 1283.73 893.867 1285.73 896 1287.6C898.267 1289.33 900 1291.47 900 1292.27C900 1293.73 903.867 1298.67 914.4 1310.53C917.467 1314 920 1317.47 920 1318.13C920 1318.93 922.667 1322.13 926 1325.33C929.333 1328.53 932 1331.73 932 1332.4C932 1335.6 994.4 1399.33 1011.2 1413.33C1016 1417.33 1022.93 1423.2 1026.53 1426.27C1030 1429.47 1033.47 1432 1034 1432C1034.53 1432 1037.33 1434 1040.13 1436.27C1048.27 1443.33 1052.93 1446.67 1054.53 1446.67C1055.33 1446.67 1056 1447.2 1056 1447.87C1056 1448.53 1057.07 1449.33 1058.4 1449.73C1059.6 1450 1061.73 1450.8 1063.07 1451.33C1066.8 1452.93 1065.87 1448.93 1061.33 1444.67C1059.2 1442.53 1057.33 1440.13 1057.33 1439.2C1057.33 1438.4 1052.93 1433.87 1047.73 1429.2C1031.47 1414.93 1012.53 1395.33 961.733 1340.13C957.067 1335.2 953.333 1330.53 953.333 1329.87C953.333 1329.07 950.667 1325.87 947.333 1322.67C944 1319.47 941.333 1316 941.333 1315.07C941.333 1314.13 940.8 1313.33 940 1313.33C938.8 1313.33 924 1295.6 924 1294.13C924 1292.8 928.8 1293.33 930.133 1294.67C931.067 1295.6 943.733 1295.87 967.467 1295.47C1008.13 1294.8 1024.8 1293.87 1028.67 1292C1030.13 1291.33 1034.93 1290.53 1039.33 1290.13C1043.73 1289.73 1050.67 1288.93 1054.67 1288.13C1058.67 1287.33 1064.4 1286.4 1067.33 1285.87C1070.27 1285.47 1073.33 1284.53 1074.13 1283.87C1074.93 1283.2 1079.07 1282.67 1083.47 1282.53C1089.47 1282.4 1092.53 1283.07 1096.67 1285.33C1106.4 1290.93 1119.33 1297.33 1120.93 1297.33C1121.87 1297.33 1125.47 1298.67 1128.93 1300.13C1137.47 1304 1139.2 1304.67 1149.33 1308C1154.13 1309.47 1159.07 1311.33 1160.27 1312C1161.6 1312.8 1163.87 1313.33 1165.2 1313.33C1166.67 1313.33 1168.13 1313.87 1168.67 1314.53C1169.07 1315.2 1173.2 1316.27 1178 1316.67C1182.8 1317.2 1187.07 1318.13 1187.47 1318.8C1187.87 1319.47 1190.53 1320 1193.33 1320C1196.13 1320 1198.93 1320.53 1199.33 1321.33C1199.73 1322.13 1203.07 1322.67 1206.53 1322.67C1210 1322.67 1213.33 1323.2 1214 1323.87C1218.13 1327.87 1297.73 1327.87 1302 1323.87C1302.67 1323.2 1305.73 1322.67 1308.8 1322.67C1312 1322.67 1314.93 1322 1315.33 1321.33C1315.73 1320.53 1317.6 1320 1319.47 1320C1321.2 1320 1323.73 1319.47 1325.07 1318.8C1326.27 1318 1330.13 1317.07 1333.6 1316.67C1337.07 1316.27 1340.27 1315.33 1340.67 1314.53C1341.2 1313.87 1342.67 1313.33 1344 1313.33C1345.47 1313.33 1348.53 1312.27 1350.93 1310.93C1353.33 1309.6 1357.87 1307.73 1361.07 1306.67C1364.13 1305.73 1366.67 1304.4 1366.67 1303.73C1366.67 1303.2 1367.73 1302.67 1369.07 1302.67C1370.4 1302.67 1374.13 1301.47 1377.47 1299.87C1395.33 1291.47 1398 1290 1398.67 1289.33C1399.07 1288.93 1403.2 1286.67 1408 1284.27C1432.8 1271.47 1437.6 1268.8 1438.27 1267.07C1438.67 1266.13 1439.47 1265.33 1440.13 1265.33C1440.8 1265.33 1443.87 1263.73 1446.8 1261.87C1453.87 1257.47 1452 1254.53 1444.8 1258.53C1442.13 1260.13 1439.2 1261.33 1438.27 1261.33C1437.33 1261.33 1426.53 1266.4 1414 1272.67C1401.6 1278.93 1390.67 1284 1389.73 1284C1388.8 1284 1385.07 1285.73 1381.33 1288C1377.6 1290.27 1373.47 1292 1372.27 1292C1371.07 1292 1368.53 1292.8 1366.67 1293.73C1364.8 1294.67 1360.67 1296.27 1357.33 1297.33C1354 1298.27 1350.8 1299.6 1350 1300.27C1349.33 1300.8 1347.47 1301.33 1345.87 1301.33C1344.13 1301.33 1342.4 1301.87 1342 1302.67C1341.6 1303.33 1339.73 1304 1338 1304C1336.27 1304 1334.4 1304.67 1334 1305.33C1333.6 1306.13 1331.73 1306.67 1330 1306.67C1328.27 1306.67 1326.4 1307.2 1326 1308C1325.6 1308.67 1323.47 1309.33 1321.33 1309.33C1319.2 1309.33 1317.2 1309.87 1316.67 1310.53C1316.27 1311.2 1310.53 1312.27 1304 1312.8C1297.33 1313.2 1291.6 1314.27 1291.2 1314.8C1290.27 1316.53 1225.73 1316.27 1224.67 1314.67C1224.27 1314 1221.07 1313.33 1217.6 1313.33C1211.2 1313.33 1201.6 1311.87 1190.67 1309.2C1187.33 1308.4 1182.67 1307.47 1180.27 1307.07C1177.87 1306.67 1175.6 1305.87 1175.2 1305.2C1174.8 1304.53 1172.8 1304 1170.67 1304C1168.53 1304 1166.4 1303.33 1166 1302.67C1165.6 1301.87 1163.73 1301.33 1162 1301.33C1160.27 1301.33 1158.4 1300.67 1158 1300C1157.6 1299.2 1156 1298.67 1154.53 1298.67C1153.2 1298.67 1150.93 1298.13 1149.6 1297.47C1146 1295.47 1138.27 1292.4 1134.67 1291.33C1131.33 1290.4 1108.4 1280 1103.33 1277.07C1101.87 1276.27 1096.27 1273.33 1090.8 1270.53C1085.47 1267.73 1080 1264.53 1078.8 1263.47C1077.47 1262.27 1076 1261.33 1075.47 1261.33C1074.8 1261.33 1068.67 1257.33 1061.73 1252.4C1054.8 1247.33 1047.87 1242.67 1046.4 1241.87C1044.93 1240.93 1041.87 1238.4 1039.47 1236.13C1037.2 1233.87 1034.67 1232 1034 1232C1032.27 1232 1020.67 1221.33 988.267 1190C971.6 1173.87 953.2 1156.8 947.467 1152C941.733 1147.2 935.6 1142 933.733 1140.27C932 1138.67 930.133 1137.33 929.467 1137.33C928.933 1137.33 925.333 1134.93 921.333 1132C917.467 1129.07 913.067 1126.4 911.6 1125.87C910.267 1125.47 907.2 1123.73 904.8 1122.13C900.533 1119.33 790.533 1064.13 778 1058.67C774.4 1057.07 762.8 1051.6 752.4 1046.53C741.867 1041.47 732.933 1037.33 732.533 1037.33C731.2 1037.33 671.467 1007.87 670.667 1006.8C670.267 1006.27 666.667 1004.27 662.667 1002.27C648.533 995.466 615.6 974.4 611.867 969.866C611.067 968.8 609.733 968 609.067 968C607.6 968 602.667 964.133 592.8 955.6C589.6 952.933 586.533 950.666 586 950.666C582.133 950.666 534.133 902.8 528.933 893.733C527.067 890.666 532 893.733 536.533 898.533C538.8 900.8 541.2 902.666 542.133 902.666C543.067 902.666 545.333 904.4 547.067 906.666C548.933 908.8 551.067 910.666 551.867 910.666C552.667 910.666 557.2 913.333 561.867 916.533C566.667 919.733 572.8 923.2 575.6 924.133C578.4 925.066 581.2 926.4 582 926.933C582.667 927.466 586.933 928 591.6 928C604.4 928 621.467 919.066 628.267 908.8C630 906.4 633.733 900.8 636.667 896.533L642 888.666V874.666C642 860.8 642 860.666 637.067 853.2C632.4 846.133 628.8 843.066 617.467 836.666C614.8 835.2 612.133 833.2 611.6 832.266C610.933 831.333 610 830.933 609.333 831.333C608.667 831.733 607.733 831.466 607.333 830.666C606.4 829.2 616.933 830.266 619.333 832C620.133 832.4 623.333 833.6 626.667 834.666C630 835.6 633.2 836.933 633.867 837.6C634.667 838.133 636.533 838.666 638.133 838.666C639.867 838.666 641.6 839.2 642 840C642.4 840.666 643.867 841.333 645.067 841.333C646.267 841.466 649.733 842.533 652.667 844C655.6 845.466 658.533 846.533 659.067 846.666C659.733 846.666 662.4 847.6 665.067 848.8C667.867 850 671.2 851.466 672.667 852C676.667 853.6 683.867 856.666 690.933 859.866C694.4 861.466 698 862.666 698.933 862.666C699.867 862.666 703.333 864 706.667 865.6C721.2 872.533 723.067 873.333 724.8 873.333C725.733 873.333 728.667 874.533 731.333 876C734 877.466 737.067 878.666 738.4 878.666C739.6 878.666 741.867 879.6 743.2 880.666C744.667 881.733 746.933 882.666 748.267 882.666C749.467 882.666 752.667 883.866 755.333 885.333C758 886.8 760.933 888 761.867 888C762.933 888 766 889.066 768.933 890.4C781.2 896.266 786.267 898.533 789.333 899.466C793.2 900.533 804.4 905.466 805.333 906.666C806.933 908.533 832.933 920 835.467 920C836.533 920 837.333 920.533 837.333 921.333C837.333 922 838 922.666 838.667 922.666C839.467 922.666 842.933 923.866 846.4 925.466C849.867 927.066 855.067 929.333 858 930.666C860.933 931.866 868.8 934.666 875.333 936.666C882 938.666 888.4 940.8 889.6 941.466C890.933 942.133 893.333 942.666 895.067 942.666C896.8 942.666 898.667 943.2 899.333 943.866C900.533 944.933 903.6 945.6 917.733 947.466C920.8 947.866 924.533 948.666 926 949.333C934.667 953.2 997.467 953.2 1006 949.333C1007.47 948.666 1011.73 947.866 1015.33 947.466C1030.27 945.866 1035.33 945.066 1036.67 943.866C1037.33 943.2 1040.67 942.666 1044.13 942.666C1047.6 942.666 1050.93 942 1051.33 941.333C1051.73 940.533 1054.53 940 1057.33 940C1060.13 940 1062.93 939.333 1063.33 938.666C1063.73 937.866 1066.53 937.333 1069.33 937.333C1072.13 937.333 1074.93 936.666 1075.33 936C1075.73 935.2 1077.87 934.666 1079.87 934.666C1081.87 934.666 1084.67 933.733 1086.13 932.666C1088.53 930.933 1088.27 930.8 1082.67 930.666C1079.2 930.666 1076 931.2 1075.33 931.866C1074.53 932.533 1068 933.466 1060.67 933.866C1053.33 934.266 1041.33 935.2 1034 936C995.467 940 952.133 940 928.667 936.133C924.267 935.333 918.267 934.4 915.333 934C912.4 933.466 908.8 932.666 907.333 932C905.867 931.333 902 930.533 898.667 930C891.2 929.066 877.333 924.266 874.4 921.733C873.2 920.666 871.467 917.866 870.533 915.6C869.6 913.2 868.4 911.066 868 910.666C867.6 910.266 866.4 907.866 865.467 905.333C864.533 902.8 863.2 899.466 862.667 898C861.333 895.066 858.8 882.266 857.867 874C857.467 871.066 856.533 867.466 855.867 866C854.533 863.2 855.067 823.333 856.667 806.266C857.467 798.8 857.2 797.466 855.6 798.133C854.533 798.533 852.933 801.333 852 804.4C850.933 807.466 849.733 810.533 849.333 811.333C848.8 812 848 814.4 847.467 816.666C846.933 818.8 845.867 823.333 845.067 826.666C842.533 837.066 843.733 868 846.8 871.2C847.467 872 848 874.266 848 876.266C848 878.4 848.667 881.2 849.333 882.666C850.133 884.133 851.333 886.533 852 888C852.8 889.466 853.333 891.466 853.333 892.533C853.333 893.6 854.8 897.333 856.667 900.8C858.533 904.266 860 907.866 860 908.8C860 909.866 860.533 910.666 861.2 910.666C861.867 910.666 862.667 911.733 863.2 912.933C863.6 914.266 864.4 916.133 864.8 916.933C865.733 918.933 862.4 919.2 858.933 917.466C852.933 914.4 843.733 910.666 842.533 910.666C841.733 910.666 837.867 909.2 833.867 907.333C829.867 905.466 826.267 904 826 904C825.6 904 822.4 902.666 818.933 901.2C808 896.266 804.8 894.933 797.333 892.133C793.333 890.533 788.533 888.533 786.667 887.733C784.8 886.933 782 885.733 780.4 885.2C776.667 883.733 771.733 881.733 767.733 880.133C766 879.466 760.533 877.333 755.333 875.333C750.267 873.333 743.467 870.666 740.4 869.2C737.2 867.866 734.133 866.666 733.467 866.666C732.8 866.666 730 865.466 727.067 864.133C717.467 859.333 706.533 854.666 705.2 854.666C704.4 854.666 701.333 853.333 698.533 851.733C694.933 849.733 693.333 848 693.333 845.866C693.333 844.133 692.8 842.4 692 842C691.333 841.6 690.667 838.533 690.667 835.333C690.667 832.133 690.133 829.066 689.333 828.666C688.667 828.266 688 826.133 688 824C688 821.866 687.467 819.733 686.667 819.333C686 818.933 685.333 817.066 685.333 815.333C685.333 813.6 684.8 811.866 684.133 811.466C683.467 810.933 682.533 807.6 682 803.733C681.067 797.2 678.933 792 677.2 792C675.467 792 673.6 798.266 674.8 800.133C675.467 801.2 676 806 676 810.933C676 815.866 676.667 820.266 677.333 820.666C678.133 821.066 678.667 823.2 678.667 825.2C678.667 827.2 680.133 831.866 682 835.466C683.867 839.066 685.333 843.066 685.333 844.266C685.333 846.266 684.8 846.266 679.733 843.733C676.533 842.266 672.533 840.4 670.667 839.733C668.8 838.933 665.6 837.6 663.6 836.533C661.467 835.466 659.067 834.666 658.133 834.666C657.2 834.666 654 833.466 650.933 832C648 830.533 644.533 829.333 643.333 829.333C642.267 829.333 641.333 828.666 641.333 828C641.333 827.2 639.6 826.666 637.6 826.666C635.6 826.666 633.333 826.133 632.533 825.6C631.867 824.933 628.667 823.733 625.333 822.8C622 821.733 617.867 820.533 616 819.866C611.333 818.266 596.267 816 582 814.666C562 812.933 559.867 811.2 571.333 806.266C575.067 804.666 578.267 802.933 578.4 802.4C578.667 801.866 579.467 801.333 580.267 801.333C580.933 801.333 584 799.6 587.067 797.6C590.133 795.466 593.6 793.333 594.667 792.933C595.733 792.4 599.067 790.133 602 787.866C604.933 785.733 609.467 782.533 612 780.8C614.533 779.066 617.467 776.666 618.533 775.466C619.467 774.266 620.933 773.333 621.6 773.333C622.667 773.333 631.6 767.2 633.333 765.333C635.733 762.666 642.8 758.666 645.067 758.666C646.667 758.666 648.267 758 648.667 757.333C649.067 756.533 651.467 756 653.867 756C656.133 756 658.667 755.466 659.467 754.666C660.133 754 665.6 752.933 671.333 752.533C677.2 752.133 683.2 751.2 684.667 750.666C686.133 750 692.4 749.066 698.667 748.666C704.933 748.4 717.2 747.466 726 746.666C759.6 743.733 774.4 742.666 785.333 741.866C791.6 741.466 797.2 740.533 797.867 739.866C798.667 739.2 803.2 738.666 808.133 738.666C813.067 738.666 817.467 738.133 817.867 737.466C818.267 736.8 825.6 735.866 834 735.333C842.4 734.8 849.333 733.866 849.333 733.333C849.333 732.666 852.533 731.866 856.4 731.6C860.133 731.2 866.933 730.133 871.333 729.333C875.733 728.533 882.4 727.466 886 727.2C889.733 726.8 893.2 725.866 894 725.2C894.667 724.533 898.4 724 902.133 724C906 724 909.6 723.333 910 722.666C910.4 721.866 914.4 721.333 918.667 721.333C922.933 721.333 926.933 720.666 927.333 720C927.733 719.2 932.933 718.666 938.667 718.666C944.4 718.666 949.6 718 950 717.333C951.067 715.6 1012.27 715.466 1014.13 717.2C1014.8 717.866 1018.67 718.8 1022.67 719.2C1035.07 720.4 1041.33 721.6 1042.13 722.8C1042.53 723.466 1044.8 724 1047.33 724C1049.87 724 1052.27 724.533 1052.67 725.333C1053.07 726 1055.2 726.666 1057.2 726.666C1059.2 726.666 1061.33 727.2 1062.13 727.733C1062.8 728.4 1068.8 730.533 1075.33 732.666C1082 734.666 1087.87 736.933 1088.67 737.466C1089.33 738.133 1091.2 738.666 1092.93 738.666C1094.67 738.666 1096 739.066 1096 739.733C1096 740.266 1098 741.466 1100.4 742.533C1110.53 746.666 1114.67 748.666 1126.67 754.533C1137.87 760.133 1144.53 763.6 1170 777.333C1187.6 786.8 1204.93 796.533 1208 798.533C1209.87 799.866 1213.47 801.866 1216 803.2C1218.53 804.533 1223.73 807.333 1227.33 809.466C1231.07 811.6 1235.33 814 1237.07 814.8C1238.67 815.733 1240 816.933 1240 817.6C1240 818.133 1240.93 818.666 1242.27 818.666C1243.47 818.666 1246.27 820.133 1248.53 821.866C1250.8 823.6 1255.07 826.266 1258 827.866C1260.93 829.466 1264.53 831.466 1266 832.4C1276 838.666 1280.93 841.6 1292 848.266C1296 850.666 1301.33 854 1304 855.6C1308.53 858.533 1316.27 863.066 1326.53 868.666C1329.2 870.133 1334.93 873.733 1339.33 876.533C1343.73 879.466 1350.53 883.466 1354.53 885.466C1358.4 887.466 1362.53 890 1363.87 890.933C1365.07 892 1367.87 893.6 1370 894.666C1372.27 895.733 1374.27 896.933 1374.67 897.333C1375.07 897.733 1377.73 899.2 1380.67 900.666C1383.6 902.133 1386.27 903.6 1386.67 904C1387.07 904.4 1391.2 906.666 1396 909.2C1400.8 911.6 1411.87 917.333 1420.67 921.866C1429.47 926.4 1439.33 931.2 1442.67 932.533C1446 933.733 1452.27 936.533 1456.67 938.666C1465.47 942.8 1476.27 947.733 1481.07 949.466C1482.67 950.133 1485.33 951.2 1487.07 951.866C1488.67 952.533 1493.33 954.133 1497.33 955.466C1501.33 956.8 1505.2 958.4 1506 958.933C1506.67 959.466 1508.53 960 1510.13 960C1511.87 960 1513.6 960.533 1514 961.333C1514.4 962 1516 962.666 1517.47 962.666C1518.8 962.666 1521.07 963.2 1522.4 963.866C1523.6 964.533 1527.33 965.866 1530.67 966.666C1534 967.6 1537.87 968.8 1539.33 969.466C1540.8 970 1544.67 971.066 1548 971.866C1551.33 972.533 1556.4 973.866 1559.33 974.666C1562.27 975.6 1566.67 976.533 1569.07 976.933C1571.47 977.333 1573.73 978.133 1574.13 978.8C1574.53 979.466 1576.8 980 1579.33 980C1581.87 980 1584.13 980.533 1584.53 981.2C1584.93 981.866 1587.6 982.666 1590.27 983.066C1595.2 983.866 1612.93 986.933 1626 989.466C1642.13 992.666 1664.53 996 1674 996.8C1678.4 997.2 1683.2 998 1684.67 998.666C1687.33 999.866 1697.47 1000.8 1724.67 1002.13C1732.8 1002.53 1739.87 1003.33 1740.67 1004.13C1741.33 1004.8 1752.53 1005.33 1765.73 1005.33C1790 1005.33 1794.67 1006.13 1794.67 1010.4C1794.8 1015.73 1799.73 1026.4 1804.4 1031.07C1808.27 1034.93 1818.8 1040.27 1820.93 1039.47C1824 1038.27 1824.13 1041.07 1821.2 1046.27C1817.07 1053.47 1816.13 1069.2 1819.33 1079.2C1820.67 1083.33 1822.27 1086.67 1822.8 1086.67C1823.47 1086.67 1824 1087.47 1824 1088.4C1824 1090.93 1833.2 1099.87 1838.8 1102.8C1843.73 1105.33 1843.87 1105.33 1841.87 1109.33C1840.67 1111.47 1839.2 1113.6 1838.53 1114.13C1836.27 1115.47 1832 1126.67 1832 1131.2C1832 1133.6 1831.33 1136.13 1830.4 1137.07C1829.2 1138.27 1829.2 1139.47 1830.4 1142C1831.33 1143.87 1832 1147.07 1832 1149.07C1832 1154.13 1839.87 1166.67 1845.47 1170.4C1852.53 1175.2 1852.8 1176.8 1847.47 1182.67C1844.8 1185.6 1841.87 1190.13 1840.67 1192.8C1838.4 1198.27 1838 1214 1840 1215.33C1840.8 1215.73 1841.33 1217.33 1841.33 1218.8C1841.33 1222.4 1844.67 1227.47 1852.27 1235.47L1858.67 1242.13L1852.67 1248.67C1849.33 1252.27 1846.67 1256.27 1846.67 1257.6C1846.67 1258.8 1846 1260.27 1845.33 1260.67C1844.67 1261.07 1844 1263.2 1844 1265.33C1844 1267.47 1843.33 1269.6 1842.67 1270C1840.93 1271.07 1840.93 1282.27 1842.67 1283.33C1843.47 1283.73 1844 1285.33 1844 1286.8C1844 1290.53 1847.6 1297.33 1852.4 1302.4L1856.53 1306.67L1852 1311.33L1847.47 1316H1813.2C1791.73 1316 1778.53 1316.53 1778 1317.33C1777.47 1318.13 1770 1318.67 1760 1318.67C1750 1318.67 1742.53 1319.2 1742 1320C1741.6 1320.67 1735.6 1321.33 1728.8 1321.33C1722.13 1321.33 1716 1321.87 1715.33 1322.53C1714.53 1323.2 1709.2 1324.13 1703.33 1324.53C1691.6 1325.2 1663.33 1328.4 1648.67 1330.67C1643.6 1331.47 1635.6 1332.4 1631.07 1332.8C1626.4 1333.2 1622.67 1334.13 1622.67 1334.8C1622.67 1335.47 1619.2 1336 1614.93 1336C1610.67 1336 1606.67 1336.53 1606 1337.2C1605.2 1337.87 1601.07 1338.8 1596.67 1339.2C1577.2 1341.2 1573.87 1341.6 1572.67 1342.67C1572 1343.2 1564.53 1344.13 1556.27 1344.67C1548 1345.2 1540.93 1346.27 1540.53 1346.8C1540.13 1347.47 1536.13 1348 1531.47 1348C1526.93 1348 1522.67 1348.53 1522 1349.2C1521.2 1349.87 1516.13 1350.8 1510.67 1351.2C1505.2 1351.73 1494.4 1352.67 1486.67 1353.47C1466.4 1355.47 1405.2 1356.4 1403.47 1354.67C1402.8 1354 1396.93 1353.33 1390.67 1353.33C1384.4 1353.33 1378.67 1352.8 1378 1352.13C1377.2 1351.47 1373.07 1350.53 1368.67 1350.13C1364.27 1349.87 1357.07 1348.8 1352.67 1348C1348.27 1347.2 1338.67 1345.73 1331.33 1344.8C1324 1343.87 1317.07 1342.8 1316 1342.27C1314.93 1341.87 1310.8 1341.2 1306.93 1340.8C1289.07 1338.8 1285.87 1338.4 1284.8 1337.2C1284 1336.53 1279.87 1336 1275.47 1336H1267.33L1273.6 1339.33C1277.07 1341.2 1281.33 1342.67 1283.2 1342.67C1285.07 1342.67 1286.93 1343.33 1287.33 1344C1287.73 1344.8 1289.6 1345.33 1291.33 1345.33C1293.07 1345.33 1294.8 1345.87 1295.2 1346.53C1295.6 1347.2 1299.47 1348.13 1303.6 1348.67C1307.87 1349.2 1312.53 1350.27 1314 1351.07C1315.47 1351.87 1321.2 1353.33 1326.67 1354.27C1332.13 1355.33 1339.73 1356.8 1343.33 1357.47C1347.07 1358.27 1353.07 1359.2 1356.67 1359.6C1360.4 1359.87 1363.87 1360.8 1364.53 1361.47C1365.33 1362.13 1369.87 1362.67 1374.67 1362.67C1379.47 1362.67 1384 1363.2 1384.8 1363.87C1388.67 1367.73 1496.67 1367.73 1500.67 1363.87C1501.33 1363.2 1506.13 1362.67 1511.33 1362.67C1516.53 1362.67 1521.33 1362.13 1522 1361.47C1522.8 1360.8 1527.2 1359.87 1532 1359.47C1536.8 1359.07 1544.93 1358.13 1550 1357.47C1555.2 1356.67 1566.27 1355.2 1574.67 1354.27C1583.07 1353.2 1591.73 1351.6 1593.87 1350.8C1596 1350 1599.6 1349.33 1601.87 1349.33C1604.13 1349.33 1610.27 1348.67 1615.33 1347.87C1620.53 1347.2 1628 1346.27 1632 1345.87C1636 1345.47 1639.87 1344.53 1640.67 1343.87C1641.33 1343.2 1645.2 1342.67 1649.33 1342.67C1653.47 1342.67 1657.33 1342.13 1658.13 1341.47C1658.8 1340.8 1662.93 1339.87 1667.33 1339.47C1675.47 1338.8 1690.53 1336.93 1701.33 1335.33C1706.93 1334.53 1720.27 1333.47 1760.67 1330.67C1770.27 1330 1780.8 1329.07 1784.4 1328.53C1793.07 1327.47 1795.07 1328.27 1793.07 1332.67C1792.27 1334.53 1791.2 1336 1790.8 1336C1790.27 1336 1789.2 1338.8 1788.27 1342.27C1787.2 1345.87 1785.87 1349.73 1785.2 1350.93C1782.53 1356.13 1784.67 1375.87 1788.4 1379.47C1788.93 1380 1789.33 1381.2 1789.33 1382C1789.33 1384.4 1802.27 1396.8 1807.07 1399.07C1818.67 1404.53 1828.4 1406.67 1830 1404C1830.4 1403.2 1832 1402.67 1833.47 1402.67C1836.67 1402.67 1840.8 1400.4 1845.73 1396C1849.33 1392.8 1851.07 1389.87 1854.67 1380.27C1856 1376.8 1856.93 1376.13 1859.2 1376.8C1860.67 1377.2 1862.53 1378.13 1863.33 1378.8C1864 1379.47 1865.87 1380 1867.47 1380C1869.2 1380 1870.93 1380.53 1871.33 1381.33C1872.8 1383.73 1886.4 1382.8 1892.8 1379.87C1898.93 1376.93 1902.67 1372.8 1908.13 1363.33C1910.67 1358.8 1911.07 1356.13 1910.93 1345.47C1910.93 1338.4 1910.27 1332.4 1909.47 1331.6C1906.4 1328.53 1908.27 1327.73 1916.4 1328.67C1920.93 1329.07 1932.13 1329.73 1941.33 1330.13C1950.53 1330.53 1958.53 1331.33 1959.33 1332.13C1960 1332.8 1965.07 1333.33 1970.67 1333.47C1982.8 1333.6 2001.73 1335.6 2033.33 1340C2038.8 1340.8 2047.07 1341.73 2051.73 1342.13C2056.27 1342.53 2060 1343.47 2060 1344.13C2060 1344.8 2063.87 1345.33 2068.53 1345.33C2073.33 1345.33 2077.47 1345.87 2077.87 1346.53C2078.27 1347.07 2084.13 1348.13 2090.8 1348.67C2097.6 1349.2 2104.67 1350.27 2106.53 1351.07C2109.6 1352.27 2118.8 1353.87 2142.67 1356.8C2146 1357.2 2149.2 1358.13 2150 1358.8C2150.67 1359.47 2154 1360 2157.47 1360C2160.93 1360 2164.27 1360.53 2164.67 1361.33C2165.07 1362.13 2167.87 1362.67 2170.67 1362.67C2173.47 1362.67 2176.27 1363.33 2176.67 1364C2177.07 1364.8 2180 1365.33 2183.2 1365.33C2186.27 1365.33 2189.33 1365.73 2189.87 1366.4C2190.4 1366.93 2195.47 1368.13 2201.07 1369.07C2206.67 1370 2213.33 1371.07 2215.73 1371.6C2218.13 1372 2220.4 1372.8 2220.8 1373.47C2221.2 1374.13 2223.47 1374.67 2226 1374.67C2228.53 1374.67 2230.93 1375.2 2231.33 1376C2231.73 1376.8 2234.13 1377.33 2236.67 1377.33C2239.2 1377.33 2241.6 1378 2242 1378.67C2242.4 1379.47 2244.4 1379.87 2246.4 1379.87C2249.6 1379.6 2249.6 1379.6 2247.07 1379.07C2245.33 1378.8 2244 1377.87 2244 1377.2C2244 1376.53 2242.53 1376 2240.8 1376C2238.93 1376 2237.07 1375.33 2236.67 1374.67C2236.27 1373.87 2234.4 1373.33 2232.67 1373.33C2230.93 1373.33 2229.07 1372.67 2228.67 1371.87C2228.13 1371.07 2226.13 1370.67 2224 1370.93C2222 1371.07 2219.47 1370.67 2218.53 1369.87C2216.53 1368.27 2213.07 1367.33 2200.4 1364.93C2195.87 1364 2191.73 1362.93 2191.2 1362.27C2190.67 1361.73 2188.53 1361.33 2186.53 1361.33C2184.53 1361.33 2182.4 1360.8 2182 1360C2181.6 1359.2 2179.2 1358.67 2176.67 1358.67C2174.13 1358.67 2171.73 1358.13 2171.33 1357.33C2170.93 1356.53 2168.53 1356 2166 1356C2163.47 1356 2161.07 1355.47 2160.67 1354.67C2160.27 1353.87 2157.47 1353.33 2154.67 1353.33C2151.87 1353.33 2149.2 1352.8 2148.8 1352.13C2148.4 1351.47 2145.73 1350.67 2143.07 1350.13C2130.67 1348.27 2127.2 1347.6 2126 1346.67C2125.33 1346 2119.73 1345.2 2113.6 1344.67C2107.6 1344.13 2102.27 1343.07 2101.87 1342.53C2101.47 1341.87 2098.27 1341.33 2094.67 1341.33C2091.07 1341.33 2087.73 1340.67 2087.33 1340C2086.93 1339.2 2083.87 1338.67 2080.67 1338.67C2077.47 1338.67 2074.4 1338 2074 1337.33C2073.6 1336.53 2070.27 1336 2066.8 1336C2063.33 1336 2060 1335.47 2059.33 1334.8C2058.53 1334.13 2055.07 1333.2 2051.33 1332.8C2047.73 1332.4 2040.8 1331.47 2036 1330.67C2031.2 1330 2019.87 1328.4 2010.67 1327.33C2001.47 1326.13 1989.2 1324.67 1983.33 1323.87C1977.47 1323.2 1967.87 1322.27 1962 1321.87C1956.13 1321.6 1950.13 1320.67 1948.67 1320C1947.2 1319.33 1938.8 1318.4 1930 1318.13C1907.73 1317.2 1896 1316 1896 1314.53C1896 1313.87 1896.67 1313.33 1897.47 1313.33C1898.27 1313.33 1901.87 1311.2 1905.33 1308.67C1911.87 1303.87 1916.67 1296.4 1920.67 1285.07C1922.8 1278.8 1923.33 1264 1921.47 1260.27C1920.8 1259.07 1919.47 1256.13 1918.53 1254C1917.6 1251.73 1915.33 1248.4 1913.6 1246.53L1910.4 1242.93L1913.6 1237.87C1920.53 1226.53 1922.67 1220.4 1922.67 1210.67C1922.67 1205.33 1922.13 1201.33 1921.33 1201.33C1920.67 1201.33 1920 1200.27 1920 1198.8C1920 1191.87 1912 1179.73 1905.73 1177.2C1901.73 1175.73 1901.87 1173.2 1906.13 1169.2C1913.2 1162.67 1914.93 1155.87 1914.4 1138.8C1914 1126.4 1913.33 1122.53 1911.2 1119.33C1909.87 1117.07 1907.33 1113.07 1905.6 1110.4C1903.87 1107.73 1900.4 1104.27 1897.87 1102.8C1895.33 1101.33 1893.33 1099.47 1893.33 1098.67C1893.33 1098 1892.13 1097.33 1890.67 1097.33C1886.8 1097.33 1887.33 1095.87 1892.8 1090.53C1900.8 1082.8 1902.8 1077.47 1902.8 1063.73C1902.8 1052.4 1902.4 1051.07 1898.27 1044.13C1892.53 1034.4 1879.73 1025.33 1871.73 1025.33C1866.93 1025.33 1866.93 1023.2 1872 1017.33C1874.13 1014.8 1876 1011.6 1876.27 1010C1876.67 1007.33 1877.47 1007.33 1954.67 1006.4C2002.4 1005.73 2033.87 1004.8 2035.73 1004C2037.47 1003.33 2047.47 1002.67 2058 1002.67C2069.33 1002.67 2077.47 1002.13 2078 1001.33C2078.53 1000.53 2085.07 1000 2093.33 1000C2101.6 1000 2108.13 999.466 2108.67 998.666C2109.07 998 2114.8 997.333 2121.2 997.333C2127.6 997.333 2133.33 996.8 2134 996.133C2134.8 995.466 2139.6 994.533 2144.67 994.133C2149.87 993.733 2158.27 992.8 2163.33 992.133C2168.53 991.333 2176.27 990.266 2180.67 989.866C2185.07 989.333 2189.33 988.533 2190 988C2190.8 987.466 2197.2 986.533 2204.4 986C2211.47 985.466 2217.73 984.533 2218.13 983.866C2218.53 983.2 2222.27 982.666 2226.53 982.666C2230.67 982.666 2234.67 982.133 2235.33 981.466C2236.67 980.266 2241.87 979.466 2258.67 977.866C2262.67 977.466 2267.2 976.666 2268.67 976C2270.13 975.333 2276.13 974.4 2282 974.133C2287.87 973.733 2296.53 972.933 2301.33 972.266C2308.27 971.333 2304.27 971.066 2281.07 970.933C2263.07 970.8 2251.87 971.2 2251.33 972C2250.93 972.666 2245.2 973.333 2238.8 973.333C2232.4 973.333 2226.67 973.866 2226 974.533C2225.2 975.2 2220.13 976.133 2214.67 976.533C2209.2 977.066 2200.53 977.733 2195.33 978.133C2190.27 978.4 2185.07 979.2 2184 979.733C2181.73 980.666 2145.33 983.866 2124.67 984.8C2117.33 985.066 2110.13 986 2108.67 986.666C2107.2 987.333 2098.27 988.266 2088.67 988.666C2079.2 988.933 2061.2 989.866 2048.67 990.666C1996.8 993.733 1971.47 994.8 1925.6 995.466C1880 996 1877.2 996 1876.53 993.733C1876.13 992.4 1875.2 990.266 1874.53 989.066C1873.87 987.733 1873.33 985.6 1873.33 984.266C1873.33 982.8 1872.13 980.666 1870.67 979.333C1869.2 978 1868 976.266 1868 975.333C1868 972.666 1860.93 966.933 1854 964C1848.4 961.466 1845.6 961.2 1836.4 961.733C1826.8 962.266 1825.33 962.133 1825.33 960.133C1825.2 958.933 1824.13 955.866 1822.67 953.333C1821.33 950.8 1819.6 947.333 1818.8 945.866C1818.13 944.266 1814.4 941.466 1810.53 939.466C1800.8 934.666 1787.33 934.533 1778.13 939.2C1770.93 942.8 1764.8 948.266 1762.13 953.333C1760.67 956.266 1759.07 959.333 1753.2 970.933C1751.6 974.133 1751.73 989.333 1753.2 989.333C1753.87 989.333 1754.93 988 1755.33 986.266C1756.93 981.066 1762.67 969.6 1764.67 968C1765.73 967.066 1766.67 965.6 1766.67 964.8C1766.67 962.533 1775.73 954.133 1781.73 950.8C1787.47 947.6 1803.33 946.8 1808.4 949.466C1812.93 951.866 1821.33 960.266 1821.33 962.666C1821.33 963.733 1818.8 966.133 1815.87 968C1807.47 973.066 1798.27 985.333 1797.07 992.666C1796.67 995.2 1795.73 995.333 1770 995.066C1755.33 994.8 1736.13 994.133 1727.33 993.333C1718.53 992.666 1706.27 991.733 1700 991.2C1693.73 990.8 1688.13 989.866 1687.47 989.2C1686.67 988.533 1682.13 988 1677.33 988C1672.53 988 1668 987.466 1667.33 986.8C1666.53 986.133 1662.67 985.2 1658.67 984.8C1643.47 983.333 1625.47 980.666 1624.53 979.733C1624 979.066 1621.33 978.666 1618.53 978.666C1615.73 978.666 1613.07 978 1612.67 977.333C1612.27 976.533 1609.47 976 1606.67 976C1603.87 976 1601.07 975.333 1600.67 974.666C1600.27 973.866 1597.87 973.333 1595.33 973.333C1592.8 973.333 1590.4 972.666 1590 972C1589.6 971.2 1587.2 970.666 1584.67 970.666C1582.13 970.666 1579.87 970.133 1579.47 969.466C1579.07 968.8 1576.8 968 1574.4 967.6C1568 966.666 1546.93 960.666 1545.87 959.6C1545.33 959.066 1543.47 958.666 1541.87 958.666C1540.13 958.666 1538.4 958 1538 957.333C1537.6 956.666 1535.73 956 1534 956C1532.27 956 1530.4 955.333 1530 954.666C1529.6 954 1528 953.333 1526.53 953.333C1525.2 953.333 1522.93 952.8 1521.6 952.133C1520.4 951.466 1513.07 948.666 1505.33 946C1492.8 941.733 1483.87 938 1477.07 934.533C1475.73 933.866 1473.73 933.333 1472.67 933.333C1471.6 933.333 1470.67 932.8 1470.67 932.133C1470.67 931.466 1469.07 930.533 1467.07 930C1461.2 928.533 1405.47 900.4 1393.73 892.933C1390.53 890.933 1387.73 889.333 1387.33 889.333C1386.93 889.333 1384.13 887.733 1380.93 885.733C1377.87 883.733 1373.07 880.8 1370.4 879.333C1367.73 877.866 1362 874.533 1357.73 872C1353.47 869.466 1348.8 866.8 1347.33 865.866C1345.87 865.066 1339.07 860.933 1332.27 856.8C1325.47 852.666 1319.47 849.333 1318.8 849.333C1318.27 849.333 1316.67 848.133 1315.33 846.666C1314 845.2 1312.53 844 1312 844C1311.2 844 1305.33 840.533 1288.67 830.266C1287.33 829.333 1283.73 827.2 1280.67 825.333C1277.73 823.6 1274.13 821.333 1272.67 820.4C1271.2 819.466 1267.47 817.466 1264.53 816C1261.47 814.533 1258.27 812.4 1257.33 811.333C1256.4 810.266 1254.93 809.333 1254 809.333C1252.93 809.333 1252 808.933 1251.73 808.266C1251.47 807.733 1249.2 806.266 1246.67 804.933C1236.8 799.733 1230 796 1225.47 793.066C1222.8 791.333 1218.93 789.066 1216.67 788C1214.53 786.933 1210.27 784.533 1207.33 782.8C1202.4 779.733 1193.47 774.933 1176 765.866C1172 763.733 1168.4 761.733 1168 761.333C1167.6 760.933 1155.6 754.8 1141.33 747.866C1114.27 734.533 1093.47 725.333 1090.4 725.333C1089.33 725.333 1088 724.8 1087.33 724.266C1086.53 723.6 1081.47 721.733 1076 720.133C1070.53 718.4 1064.8 716.533 1063.33 716C1059.73 714.533 1054.4 713.333 1043.33 711.733C1038.27 710.933 1032.8 709.866 1031.33 709.2C1024 706.266 978.267 705.333 955.333 707.866C948 708.533 934.8 709.866 926 710.666C917.2 711.466 908.933 712.666 907.733 713.333C906.4 714.133 902.667 714.666 899.467 714.666C896.133 714.666 893.067 715.2 892.667 716C892.267 716.666 888.933 717.333 885.467 717.333C882 717.333 878.667 717.866 878 718.533C877.2 719.2 874 720.133 870.667 720.533C867.333 720.933 861.067 721.866 856.667 722.666C852.267 723.466 841.733 724.8 833.333 725.733C824.933 726.8 816.8 728.133 815.2 729.066C813.733 729.866 803.2 730.933 791.867 731.333C780.533 731.866 770.133 732.8 768.667 733.466C767.2 734.133 757.6 734.933 747.333 735.333C705.467 736.8 694 737.6 692.8 738.8C692 739.466 687.067 740 681.867 740C676.533 740 671.733 740.533 671.333 741.333C670.933 742 668.4 742.666 665.867 742.666C660 742.666 660 740.666 666 728.8C668.533 723.6 670.667 718.4 670.667 717.066C670.667 715.733 671.333 714.666 672 714.666C672.8 714.666 673.333 713.6 673.333 712.266C673.333 710.933 673.867 709.333 674.4 708.666C676.8 706 681.467 687.866 682.8 676.533C684.933 658.533 685.733 635.866 684.133 632.8C683.467 631.2 682.533 622.266 682.133 612.8C681.6 603.333 680.8 594.933 680.133 594.133C679.467 593.333 678.667 590.266 678.267 587.333C676.533 575.866 675.6 572 674.533 571.2C673.867 570.8 673.333 568.533 673.333 566C673.333 563.466 672.8 561.066 672 560.666C671.333 560.266 670.667 558.133 670.667 555.866C670.667 553.733 670.133 550.933 669.467 549.6C668.8 548.4 667.6 544.666 666.667 541.333C665.733 538 664.533 534.266 663.867 533.066C663.2 531.866 662.267 528.4 661.867 525.333C661.333 522.4 660.4 519.6 659.867 519.2C659.2 518.8 658.667 517.2 658.667 515.466C658.667 513.866 658.267 512 657.733 511.466C656.4 510.266 653.333 501.066 653.333 498.266C653.333 497.066 652.8 496 652 496C651.333 496 650.667 495.066 650.667 494C650.667 492.8 649.467 489.333 648 486.4C646.533 483.333 645.333 480 645.333 479.066C645.333 477.466 644.667 475.733 638.8 462.4C637.2 458.933 636 455.466 636 454.666C636 454 634.8 451.333 633.333 448.666C631.867 446 630.667 442.8 630.667 441.333C630.667 440 630.133 438.533 629.467 438C628.8 437.6 627.2 434.4 626 430.933C624.667 427.466 622 421.066 620 416.666C617.867 412.266 614.133 404.133 611.6 398.666C606.267 386.8 600.533 374.533 592.533 357.733C589.333 350.933 586.667 344.933 586.667 344.4C586.667 343.866 585.467 341.866 584 340C582.533 338.133 581.333 335.6 581.333 334.266C581.333 333.066 580.933 332 580.4 332C579.733 332 578.667 330.666 577.867 328.933C574.933 322.8 563.333 300.666 562.667 300C562.267 299.6 561.067 297.466 560 295.333C558.933 293.066 556.4 288.933 554.533 286C552.533 283.066 550.533 279.2 550 277.333C549.467 275.466 547.867 272.533 546.667 270.666C543.2 265.733 536 253.066 535.067 250.266C534.667 249.066 533.867 248 533.2 248C532.533 248 532 247.333 532 246.533C532 245.733 530.4 242.666 528.4 239.6C522.933 231.2 521.6 229.2 518.533 223.333C516.933 220.4 514.267 216.133 512.533 213.866C510.8 211.6 509.333 209.333 509.333 208.933C509.333 208.4 506.8 204 503.733 199.066C500.533 194 497.467 188.933 496.667 187.733C496 186.533 493.333 182.8 491.067 179.466C488.667 176 486.667 172.666 486.667 172.133C486.667 171.6 485.6 170.133 484.4 168.933C483.067 167.733 480.8 164.533 479.333 161.733C477.867 158.933 476.267 156.4 475.867 156C474.933 155.333 460.4 133.466 457.867 129.2C457.067 127.866 455.467 125.6 454.267 124.266C452.933 122.933 452 121.2 452 120.4C452 119.6 451.067 118.133 449.867 117.2C448.667 116.266 447.2 114.266 446.533 112.666C444.533 108.266 442.133 104.8 439.733 102.933C438.4 102 437.333 100.4 437.333 99.4662C437.333 98.5329 436.267 96.6662 434.933 95.1995C433.6 93.8662 432.133 91.7329 431.6 90.6662C431.067 89.5995 428.533 85.9995 426 82.6662C423.467 79.3329 420.8 75.3329 420.133 73.7329C419.333 72.2662 418.133 70.5329 417.333 69.9995C416.133 69.1995 411.867 63.4662 407.333 56.1329C406.667 54.9329 404.533 52.1329 402.667 49.8662C400.8 47.5995 397.867 43.8662 396 41.4662C394.133 39.0662 391.067 35.1995 389.067 32.7995C386.933 30.2662 385.333 27.8662 385.333 27.3329C385.333 26.7995 383.733 24.3995 381.733 21.8662C374.933 13.7329 372 9.59953 372 8.2662C372 7.59953 370.8 5.99953 369.333 4.6662C367.067 2.53287 366.667 2.53287 366.667 4.39953ZM311.2 515.866C317.6 516.666 324.133 518 325.467 518.666C326.8 519.466 329.6 520 331.867 520C334 520 336.267 520.533 336.667 521.333C337.067 522 339.2 522.666 341.333 522.666C343.467 522.666 345.6 523.2 346 524C346.4 524.666 348.267 525.333 350.133 525.333C351.867 525.333 353.333 525.866 353.333 526.666C353.333 527.333 354.533 528 356 528C357.467 528 359.733 528.533 361.067 529.2C362.267 529.866 366.933 531.733 371.333 533.466C380.933 536.933 385.467 539.066 416.533 553.866C429.6 560.133 440.933 565.333 441.467 565.333C442.133 565.333 442.667 565.866 442.667 566.666C442.667 567.333 443.333 568 444.267 568C445.067 568 459.067 574.533 475.333 582.666C491.467 590.666 505.467 597.333 506.267 597.333C507.067 597.333 510.933 599.066 514.8 601.066C518.8 603.066 525.6 605.866 530 607.333C534.4 608.666 538.533 610.4 539.2 610.933C540 611.466 541.6 612 542.933 612C544.267 612 546.4 612.533 547.733 613.2C548.933 613.866 552.667 615.2 556 616C559.333 616.933 563.2 618.133 564.667 618.8C571.733 621.6 611.333 623.866 613.733 621.466C614.533 620.666 616.533 620 618 620C621.067 620 629.333 616 638 610.533C643.333 607.066 654.667 595.733 654.667 593.733C654.8 593.066 655.867 591.333 657.2 589.6C661.2 584.933 664 587.066 664 594.666C664 598.266 664.667 601.6 665.333 602C666.133 602.4 666.667 606.533 666.667 611.2C666.667 615.733 667.333 620.133 668.133 620.933C669.867 622.666 668.933 660.666 666.8 670.666C665.867 674.666 664.933 680 664.4 682.4C664 684.8 663.2 687.066 662.533 687.466C661.867 687.866 661.333 689.6 661.333 691.333C661.333 693.066 660.8 694.8 660.133 695.2C659.467 695.6 658.533 697.466 658.133 699.333C657.6 701.2 655.467 706.533 653.333 710.933C651.067 715.466 649.333 720.133 649.333 721.466C649.333 722.8 648.8 724.266 648 724.666C647.333 725.066 646.667 726.8 646.667 728.266C646.667 730.8 639.867 738.8 624.667 754C612.4 766.133 600.133 777.333 599.067 777.333C598.4 777.333 595.867 779.466 593.333 782C590.8 784.533 588.267 786.666 587.467 786.666C586.8 786.666 584.533 788.266 582.533 790.133C578.533 794 577.333 794.666 565.733 800.666C561.467 802.8 557.733 804.933 557.333 805.333C555.6 807.066 544.8 812 542.667 812C541.2 812 539.733 812.533 539.333 813.333C538.933 814 537.333 814.666 535.867 814.666C534.533 814.666 532.267 815.2 530.933 815.866C529.733 816.533 526 818.133 522.667 819.466C519.333 820.8 515.733 822.533 514.667 823.466C512.667 825.066 499.333 832.533 490.667 836.933C488.133 838.266 485.733 839.733 485.333 840.133C483.867 841.733 448.133 858.666 446.267 858.666C445.067 858.666 443.733 859.2 443.333 860C442.933 860.666 441.067 861.333 439.333 861.333C437.6 861.333 435.733 861.866 435.333 862.666C434.933 863.333 433.067 864 431.333 864C429.6 864 427.733 864.533 427.333 865.333C426.267 867.066 394.667 867.066 390.4 865.466C388.667 864.8 384.667 863.6 381.333 862.666C378 861.733 373.333 860.133 371.067 859.066C368.667 858.133 364.4 856.4 361.733 855.466C356.533 853.6 344.533 847.466 338.667 843.733C335.333 841.6 318.133 830.4 312.667 826.666C306 822.266 290.667 809.2 290.667 808C290.667 807.2 289.867 806.666 288.933 806.666C287.333 806.666 241.067 761.2 238.667 757.333C237.6 755.6 232.533 749.6 221.733 737.466C218.533 733.866 216 730.533 216 730C216 729.466 214.4 727.066 212.4 724.666C210.267 722.266 207.2 718 205.333 715.333C203.467 712.666 200.667 708.8 199.067 706.666C197.333 704.666 196 702.4 196 701.6C196 700.933 195.067 699.466 193.867 698.533C192.667 697.6 191.2 695.6 190.533 694C188.8 690 186.267 686.266 183.733 683.866C182.4 682.666 181.333 681.333 181.333 680.933C181.333 680.533 178.933 676.4 176 671.866C173.067 667.2 169.467 660.8 168 657.866C166.533 654.8 164.533 651.6 163.467 650.8C162.4 650 160.8 647.333 159.867 644.933C158.933 642.533 156.667 638.266 154.8 635.333C150 627.733 137.067 601.866 134.133 594C132.667 590.4 129.867 584.266 127.733 580.266C125.733 576.266 124 571.866 124 570.533C124 569.2 123.467 568 122.933 568C121.867 568 117.333 556.533 117.333 553.733C117.333 552.933 118.667 551.733 120.4 551.2C122 550.666 124.267 549.333 125.333 548.133C127.867 545.466 134.933 541.333 148 535.2C153.467 532.533 159.067 529.866 160.267 529.2C161.6 528.533 163.867 528 165.2 528C166.667 528 168.267 527.333 168.667 526.666C169.067 525.866 170.933 525.333 172.667 525.333C174.4 525.333 176.267 524.666 176.667 524C177.067 523.2 179.6 522.666 182.133 522.666C184.667 522.666 186.667 522.133 186.667 521.466C186.667 520.266 188.667 519.866 208.667 517.333C215.333 516.533 222.133 515.333 224 514.666C228.8 513.066 297.067 514 311.2 515.866ZM577.333 825.066C577.333 825.6 581.2 828 585.867 830.4C590.533 832.8 595.067 835.6 596 836.666C596.933 837.733 598.133 838.666 598.8 838.666C599.467 838.666 603.067 840.8 606.667 843.333C610.267 845.866 613.733 848 614.4 848C616.133 848 623.6 856.266 626.533 861.733C630.4 868.666 630.267 878 626.133 887.066C624.267 890.933 621.6 895.2 620.133 896.533C618.533 898 617.333 899.733 617.333 900.533C617.333 902.266 609.2 910.666 607.6 910.666C606.933 910.666 604.667 912 602.4 913.466C599.2 915.733 596.533 916.4 589.333 916.266C584.4 916.266 579.2 915.6 577.867 914.933C576.533 914.133 571.467 911.733 566.667 909.466C556.667 904.8 551.2 901.6 547.467 898.266C546 897.066 544.133 896 543.2 896C542.267 896 540.667 894.933 539.733 893.6C538.8 892.4 536.4 890.533 534.4 889.466C532.267 888.4 529.733 886.133 528.667 884.4C527.467 882.8 525.867 881.333 525.067 881.333C522.667 881.333 514.667 873.066 514.667 870.666C514.667 869.466 514.267 868 513.733 867.466C510.133 864 507.733 845.066 510.667 843.333C511.467 842.933 512 841.066 512 839.2C512 837.466 512.667 836 513.467 836C514.267 836 517.333 833.866 520.133 831.333C523.067 828.8 526.533 826.666 527.867 826.666C529.333 826.666 530.933 826 531.333 825.333C532.267 823.733 577.333 823.466 577.333 825.066ZM497.333 856.533C497.333 859.866 498 862.933 498.667 863.333C499.467 863.733 500 865.333 500 866.8C500 868.133 500.533 870.4 501.2 871.733C502 872.933 504.133 877.333 506 881.333C513.333 896.533 524.533 910.933 546.4 933.2C553.867 940.933 560 947.733 560 948.4C560 949.866 556.533 953.333 554.933 953.333C554.267 953.333 552.8 954.266 551.867 955.466C550.933 956.666 548.933 958.133 547.333 958.8C545.867 959.466 542.267 961.866 539.333 964C531.733 969.733 515.733 980.666 513.333 981.733C512.267 982.266 509.2 984 506.667 985.6C499.467 990 487.867 996 486.533 996C486 996 482.133 997.466 478.133 999.333C474.133 1001.2 469.6 1002.67 468.133 1002.67C466.667 1002.67 465.067 1003.2 464.667 1004C464.267 1004.67 462.133 1005.33 460.133 1005.33C458.133 1005.33 456 1005.87 455.2 1006.53C452.267 1009.47 404.8 1012 402.267 1009.47C401.467 1008.67 398 1008 394.533 1008C391.067 1008 387.733 1007.33 387.333 1006.67C386.933 1005.87 383.867 1005.33 380.667 1005.33C377.467 1005.33 374.4 1004.67 374 1004C373.6 1003.2 372 1002.67 370.533 1002.67C369.2 1002.67 368 1002.13 368 1001.6C368 1001.07 371.867 996.666 376.667 992C381.467 987.333 385.333 982.666 385.333 981.866C385.333 981.066 386.267 979.466 387.467 978.533C391.867 974.933 404.933 954.8 410.667 943.066C412.133 940 414 937.066 414.667 936.666C415.333 936.266 417.467 932.666 419.333 928.666C421.333 924.666 423.733 920.8 424.8 919.866C425.867 919.066 426.667 917.733 426.667 916.933C426.667 916.133 433.067 908.8 441.067 900.533C448.933 892.266 457.067 883.466 459.067 880.8C461.2 878.133 463.6 876 464.4 876C465.733 876 472.267 870.4 486.8 856.933C495.6 848.933 497.333 848.933 497.333 856.533ZM412.933 931.733C411.6 933.066 410.667 935.2 410.667 936.266C410.667 937.466 409.733 938.666 408.667 939.2C407.6 939.6 406 941.333 405.2 942.933C403.6 946.666 401.867 949.466 396.667 957.2C394.4 960.4 392.133 964 391.333 965.2C387.867 970.933 381.467 978.8 374.133 986.266C366.533 994.133 362.667 996.533 362.667 993.333C362.667 991.6 367.333 983.466 373.067 974.8C375.867 970.933 378.667 966.8 379.333 965.6C383.067 960 413.6 927.733 414.4 928.666C414.8 929.066 414.133 930.4 412.933 931.733ZM1858 980.533C1868.93 991.733 1871.87 1004.27 1866.4 1016.27C1864.27 1021.2 1862.8 1022.67 1860.53 1022.67C1858.8 1022.67 1857.07 1023.2 1856.67 1024C1856.27 1024.67 1853.87 1025.33 1851.47 1025.33C1846.53 1025.33 1834.8 1030.8 1831.33 1034.67C1827.73 1038.53 1822.8 1038 1817.73 1033.07C1815.33 1030.67 1813.33 1028.27 1813.33 1027.47C1813.33 1026.8 1812 1024.67 1810.4 1022.93C1807.73 1020.13 1807.33 1018.53 1807.6 1009.07C1807.87 996.4 1809.6 992.133 1818.27 984C1828 974.8 1832.8 973.2 1846 974.4C1851.73 974.8 1853.47 975.733 1858 980.533ZM1870 1036C1870.4 1036.67 1871.87 1037.33 1873.2 1037.33C1877.6 1037.33 1887.87 1045.07 1890.67 1050.53C1894.8 1058.67 1894.4 1072 1889.73 1081.47C1884.27 1092.8 1882 1094.67 1874 1094.67C1867.07 1094.67 1855.33 1099.33 1852 1103.33C1849.87 1105.87 1847.47 1105.87 1845.2 1103.2C1844.27 1102 1842 1100.53 1840.4 1099.87C1838.67 1099.2 1836.67 1097.2 1836 1095.47C1835.33 1093.73 1834.27 1091.87 1833.47 1091.47C1831.6 1090.27 1828 1082.67 1828 1079.87C1828 1078.53 1827.47 1077.07 1826.67 1076.67C1824.8 1075.6 1824.93 1066.27 1826.8 1061.73C1831.07 1051.47 1832.4 1049.33 1837.87 1044.27C1841.2 1041.2 1845.47 1038.4 1847.6 1038C1849.6 1037.47 1852.27 1036.67 1853.33 1036C1856.13 1034.4 1868.93 1034.4 1870 1036ZM782 1075.33C801.333 1084.27 807.333 1087.2 807.733 1088.27C808 1088.93 808.933 1089.33 809.867 1089.33C810.8 1089.33 815.2 1091.07 819.467 1093.2C841.2 1104.13 877.467 1121.33 878.533 1121.33C879.2 1121.33 880 1121.73 880.267 1122.27C880.533 1122.93 887.733 1126.8 896.4 1131.2C904.933 1135.47 912 1139.6 912 1140.13C912 1140.8 912.933 1141.33 914.133 1141.33C915.333 1141.33 917.333 1142.4 918.533 1143.6C919.733 1144.93 923.067 1147.33 926 1148.93C928.933 1150.53 931.467 1152.4 931.733 1153.2C932 1154 927.067 1154.8 919.733 1155.2C912.933 1155.6 901.333 1156.53 894 1157.33C886.667 1158.13 872.267 1159.33 862 1160C851.733 1160.67 840.133 1161.6 836.133 1162.13C828.8 1162.93 822.667 1161.07 822.667 1158C822.667 1157.07 821.467 1155.33 820 1154C818.533 1152.67 817.333 1151.07 817.333 1150.53C817.333 1149.87 814.667 1145.87 811.333 1141.47C808 1137.2 805.333 1133.07 805.333 1132.27C805.333 1131.6 804.133 1130 802.667 1128.67C801.2 1127.33 800 1125.6 800 1124.67C800 1123.73 798.8 1122 797.333 1120.67C795.867 1119.33 794.667 1117.6 794.667 1116.67C794.667 1115.73 793.467 1114 792 1112.67C790.533 1111.33 789.333 1109.47 789.333 1108.4C789.333 1107.47 788.4 1106.27 787.333 1105.87C786.267 1105.33 785.333 1104.27 785.333 1103.47C785.333 1102.53 784.133 1100.53 782.667 1098.93C781.2 1097.33 780 1095.6 780 1094.93C780 1094.27 778.8 1092.67 777.333 1091.33C775.867 1090 774.667 1088.4 774.667 1087.73C774.667 1087.2 772.667 1083.73 770.4 1080.27C764.267 1071.33 762.667 1068.4 763.6 1067.6C764 1067.2 765.333 1067.33 766.533 1068C767.733 1068.67 774.667 1072 782 1075.33ZM1883.07 1103.2C1891.73 1106.13 1904 1120 1904 1126.8C1904 1128.13 1904.67 1129.6 1905.33 1130C1906.13 1130.4 1906.67 1134 1906.67 1138C1906.67 1142 1906.13 1145.6 1905.33 1146C1904.67 1146.4 1904 1147.87 1904 1149.2C1904 1152.8 1893.73 1163.73 1887.6 1166.67C1881.87 1169.47 1868.8 1170.4 1867.33 1168C1866.93 1167.2 1865.33 1166.67 1863.73 1166.67C1862.27 1166.67 1859.2 1165.6 1856.93 1164.4C1844.8 1157.73 1838.67 1147.2 1838.67 1133.2C1838.67 1128.27 1839.2 1123.87 1839.87 1123.47C1840.53 1123.07 1841.47 1120.67 1841.87 1118.13C1842.8 1113.07 1844.93 1110.93 1853.33 1107.07C1866.53 1101.07 1874.13 1100 1883.07 1103.2ZM456.933 1158.93C456 1173.6 453.6 1190.8 452 1193.6C451.2 1194.93 450.667 1197.07 450.667 1198.27C450.667 1201.07 447.6 1210.13 446.267 1211.47C445.733 1212 445.333 1213.87 445.333 1215.47C445.333 1217.2 444.8 1218.93 444 1219.33C443.333 1219.73 442.667 1221.6 442.667 1223.47C442.667 1225.33 442.133 1226.4 441.333 1226C439.6 1224.93 439.6 1214.13 441.2 1208.8C442 1206.53 443.067 1200.8 443.867 1196C445.2 1187.33 446.533 1181.2 449.333 1171.33C450.267 1168.4 451.2 1164 451.6 1161.6C452 1159.2 452.8 1156.93 453.467 1156.53C454.133 1156.13 454.667 1154.13 454.667 1151.87C454.667 1149.73 455.333 1148 456.133 1148C457.067 1148 457.333 1151.6 456.933 1158.93ZM954.667 1170.27C961.333 1176.53 966.267 1182.27 965.733 1182.8C965.2 1183.33 958.667 1184.13 951.333 1184.53C931.333 1185.6 920.8 1186.8 919.467 1188.13C918.667 1188.8 914.933 1189.33 911.2 1189.33C907.333 1189.33 903.733 1189.87 903.333 1190.67C902.933 1191.33 899.867 1192 896.667 1192C893.467 1192 890.4 1192.53 890 1193.33C889.6 1194 887.067 1194.67 884.533 1194.67C882 1194.67 878.933 1195.2 877.6 1195.87C876.4 1196.53 872.933 1197.73 870 1198.53C867.067 1199.47 862.8 1201.2 860.4 1202.4C856.267 1204.53 856 1204.4 852.667 1201.33C850.8 1199.6 849.333 1197.47 849.333 1196.67C849.333 1195.73 848.133 1194 846.667 1192.67C845.2 1191.33 844 1189.6 844 1188.67C844 1187.87 842.533 1185.73 840.667 1184C838.8 1182.27 837.333 1180.13 837.333 1179.2C837.333 1178.4 836.4 1176.93 835.333 1176C834.267 1175.07 833.333 1173.2 833.333 1171.73C833.333 1169.6 834 1169.33 838.4 1170C841.067 1170.53 844.933 1171.47 846.8 1172.13C854.667 1175.2 912.8 1171.6 916.667 1167.87C917.333 1167.2 918.933 1166.67 920.267 1166.67C921.6 1166.67 923.733 1166.13 925.067 1165.47C926.267 1164.8 929.733 1163.07 932.667 1161.6C935.6 1160.13 939.067 1158.8 940.267 1158.8C941.467 1158.67 948 1163.87 954.667 1170.27ZM1900.93 1180.27C1902.67 1181.87 1904 1183.73 1904 1184.4C1904 1185.07 1905.47 1187.33 1907.33 1189.6C1909.2 1191.73 1910.67 1194.93 1910.67 1196.67C1910.67 1198.4 1911.33 1200.27 1912 1200.67C1913.87 1201.87 1913.6 1213.07 1911.6 1218.67C1908.93 1226.4 1904.27 1233.33 1900.8 1234.67C1899.07 1235.33 1897.2 1236.53 1896.67 1237.2C1895.6 1239.07 1876.93 1239.07 1870.67 1237.33C1866.53 1236.27 1856.53 1227.87 1852.67 1222.53C1848.4 1216.53 1845.33 1208.4 1845.33 1203.2C1845.33 1190.4 1857.73 1173.07 1862 1180C1862.4 1180.67 1864.53 1181.33 1866.67 1181.33C1868.8 1181.33 1871.87 1181.87 1873.73 1182.53C1877.07 1183.87 1885.6 1182.27 1892.67 1179.2C1897.73 1176.93 1897.33 1176.8 1900.93 1180.27ZM988.4 1205.6C1010 1226.8 1023.07 1238.67 1024.67 1238.67C1025.2 1238.67 1028.27 1240.93 1031.47 1243.6C1034.53 1246.4 1038.53 1249.73 1040.27 1250.93C1050.27 1258.4 1060.13 1265.33 1060.67 1265.33C1060.93 1265.33 1063.87 1267.07 1067.07 1269.33C1070.4 1271.47 1073.6 1273.33 1074.27 1273.33C1076.27 1273.33 1081.47 1279.47 1080.4 1280.4C1080 1280.93 1074.67 1281.33 1068.67 1281.33C1062.8 1281.33 1057.33 1281.87 1056.67 1282.53C1054.8 1284.27 1031.47 1285.33 976 1286.13C948 1286.53 928.267 1287.2 927.467 1288C924.8 1290.67 920.4 1289.2 914.933 1283.6C911.867 1280.53 909.333 1277.33 909.333 1276.53C909.333 1275.73 907.6 1273.47 905.333 1271.33C903.2 1269.2 901.333 1266.8 901.333 1266C901.333 1265.2 899.2 1262.53 896.667 1260C894.133 1257.47 892 1254.8 892 1254C892 1253.2 890.267 1250.8 888 1248.67C885.867 1246.53 884 1244.13 884 1243.33C884 1242.53 882.533 1240.4 880.667 1238.67C878.8 1236.93 877.333 1234.93 877.333 1234.13C877.333 1233.33 875.6 1230.93 873.333 1228.93C871.2 1226.8 869.333 1224.27 869.333 1223.2C869.333 1222.13 868.8 1221.33 868 1221.33C866.8 1221.33 860 1212.27 860 1210.67C860 1208.27 868.8 1205.47 878.4 1204.67C884.4 1204.13 889.733 1203.07 890.133 1202.53C890.533 1201.87 893.467 1201.33 896.667 1201.33C899.867 1201.33 902.933 1200.67 903.333 1200C903.733 1199.2 906.8 1198.67 910 1198.67C913.2 1198.67 916.267 1198 916.667 1197.33C917.067 1196.53 920 1196 923.2 1196C926.267 1196 929.333 1195.47 930.133 1194.8C930.8 1194.13 933.733 1193.33 936.667 1192.8C957.333 1190 965.2 1188.53 966.133 1187.6C966.667 1187.07 967.467 1186.67 968 1186.67C968.533 1186.67 977.733 1195.2 988.4 1205.6ZM1871.2 1248.13C1877.2 1250.93 1879.33 1250.93 1901.33 1249.07C1908.13 1248.53 1910 1253.07 1910 1270C1910 1282.13 1909.73 1283.73 1906.67 1288C1897.33 1300.8 1892.13 1304 1880.4 1303.87C1872.93 1303.87 1870.27 1303.07 1865.33 1300.13C1858.53 1296 1853.33 1289.2 1853.33 1284.53C1853.33 1282.8 1852.8 1281.33 1852 1281.33C1851.33 1281.33 1850.67 1278.67 1850.67 1275.47C1850.67 1272.13 1851.33 1269.07 1852 1268.67C1852.8 1268.27 1853.33 1266.13 1853.33 1264.13C1853.33 1260.93 1856.67 1252.8 1860.4 1246.93C1861.87 1244.67 1864.53 1244.93 1871.2 1248.13ZM1882.13 1317.47C1886.27 1318.93 1894.53 1326.4 1896.8 1330.8C1900.93 1338.93 1898.93 1350.93 1891.33 1361.73C1887.73 1366.8 1876.13 1370.13 1874 1366.67C1873.6 1365.87 1871.47 1365.33 1869.47 1365.33C1864.67 1365.33 1855.07 1357.07 1851.07 1349.33C1845.6 1339.33 1848 1326 1856.13 1320.8C1865.07 1315.07 1873.07 1314.13 1882.13 1317.47ZM1840.67 1331.6C1838.8 1338.93 1838.4 1348.27 1839.87 1349.73C1840.67 1350.53 1841.33 1352.27 1841.33 1353.6C1841.33 1354.93 1842.8 1358.4 1844.67 1361.47C1848 1366.53 1848 1366.93 1845.87 1371.33C1844.67 1373.87 1843.2 1376 1842.53 1376C1841.87 1376 1841.33 1376.8 1841.33 1377.73C1841.33 1379.6 1834.4 1386.4 1829.73 1388.93C1826.13 1390.93 1817.87 1391.2 1816.67 1389.33C1816.27 1388.53 1814.67 1388 1813.33 1388C1808.93 1388 1801.73 1382.13 1797.47 1375.33C1793.73 1369.2 1793.33 1367.47 1793.33 1357.33C1793.33 1347.33 1793.87 1345.07 1797.73 1337.07L1802 1328.13L1821.87 1328H1841.6L1840.67 1331.6ZM736 1343.87C736 1346.13 735.467 1348.27 734.667 1348.67C734 1349.07 733.333 1352.4 733.333 1356.13C733.333 1359.73 732.8 1362.67 732 1362.67C730.133 1362.67 730.4 1351.73 732.267 1345.33C734.267 1339.07 736 1338.4 736 1343.87Z" fill="black"></path><path d="M251.466 573.467C242.399 576.8 240.932 578.667 240.266 587.734L239.732 595.467L246.932 602.134C266.532 620 278.266 618.267 278.532 597.334C278.799 583.2 270.266 570.4 260.932 570.8C259.332 570.8 255.066 572 251.466 573.467ZM261.466 589.334C263.199 590.4 263.999 592.134 263.999 595.6V600.4L258.399 599.467C251.466 598.267 250.666 597.867 250.666 594.134C250.666 591.6 252.399 590.134 258.399 588.134C258.666 588 259.999 588.667 261.466 589.334Z" fill="black"></path><path d="M322.399 585.467C319.333 587.733 318.666 589.2 318.666 593.867C318.666 598.8 319.466 600.133 325.066 605.733C328.533 609.2 332.133 612 332.933 612C335.066 612 339.999 600.667 339.999 595.467C339.999 592.267 338.799 589.733 336.133 586.8C331.599 582 327.599 581.6 322.399 585.467Z" fill="black"></path><path d="M302.267 648.932C300.534 650.666 301.334 655.599 303.734 657.732C307.334 660.932 308.934 660.532 311.334 655.866C313.067 652.666 313.2 651.332 311.867 649.866C310.267 647.999 303.867 647.332 302.267 648.932Z" fill="black"></path><path d="M734.266 917.065C732.266 919.065 730.666 921.332 730.666 921.998C730.666 922.665 729.866 924.132 728.799 925.198C727.733 926.398 725.066 930.798 722.799 935.198C717.599 945.065 717.199 955.732 721.599 965.598C725.066 973.198 726.399 973.732 725.599 967.198C725.066 962.932 725.733 960.265 729.466 953.065C730.133 951.732 730.666 949.465 730.666 948.132C730.666 946.665 731.199 945.198 731.866 944.798C732.399 944.398 733.333 941.065 733.866 937.332C734.399 933.598 735.866 928.532 737.199 926.132C738.533 923.732 740.133 919.865 740.666 917.598C741.866 912.132 739.199 911.865 734.266 917.065Z" fill="black"></path><path d="M993.333 1017.33C994.4 1018 996.267 1018.67 997.333 1018.67C999.067 1018.67 999.067 1018.53 997.333 1017.33C996.267 1016.67 994.4 1016 993.333 1016C991.6 1016 991.6 1016.13 993.333 1017.33Z" fill="black"></path><path d="M1003.73 1020.27C1004.67 1021.47 1007.33 1022.67 1009.73 1023.07C1017.73 1024.53 1028.67 1026.93 1031.33 1028.13C1034 1029.2 1039.07 1030.27 1048.4 1031.6C1051.07 1032 1053.73 1032.8 1054.13 1033.47C1054.53 1034.13 1057.33 1034.53 1060.4 1034.53C1064 1034.4 1064.8 1034.13 1062.67 1033.73C1060.8 1033.33 1058.8 1032.53 1058.13 1031.87C1057.33 1031.2 1055.2 1030.67 1053.2 1030.67C1051.2 1030.67 1049.07 1030 1048.67 1029.33C1048.27 1028.53 1045.87 1028 1043.33 1028C1040.8 1028 1038.4 1027.33 1038 1026.67C1037.6 1025.87 1035.47 1025.33 1033.47 1025.33C1031.47 1025.33 1029.33 1024.93 1028.8 1024.27C1028.27 1023.73 1023.47 1022.67 1018.27 1021.73C1012.93 1020.93 1007.2 1019.87 1005.33 1019.2C1002.4 1018.27 1002.27 1018.4 1003.73 1020.27Z" fill="black"></path><path d="M692.534 1106.27C688.001 1112.13 669.201 1130.93 664.134 1134.67C657.601 1139.2 622.801 1175.2 616.401 1184C606.934 1196.67 597.467 1217.33 597.334 1224.93C597.334 1226.53 596.801 1228.13 596.134 1228.53C594.801 1229.33 593.467 1235.73 592.534 1246.67C592.134 1250.67 591.201 1254.53 590.534 1255.33C588.801 1257.07 588.934 1311.6 590.667 1312.67C591.467 1313.07 592.001 1318.8 592.001 1325.33C592.001 1331.87 592.667 1337.6 593.334 1338C594.134 1338.4 594.667 1341.2 594.667 1344C594.667 1346.93 595.201 1350.53 595.867 1352.27C596.534 1354 597.867 1358 598.801 1361.33C602.001 1371.73 611.734 1380 621.067 1380C631.601 1380 650.267 1370 659.334 1359.6C673.734 1343.07 675.067 1340.93 684.401 1322C692.534 1305.47 694.134 1301.73 696.667 1293.07C698.934 1285.2 700.001 1283.87 714.134 1273.33C723.334 1266.4 755.601 1234.93 761.334 1227.33C769.734 1216 774.667 1204 770.934 1204C769.467 1204 761.334 1212.53 761.334 1214C761.334 1214.67 756.134 1220.53 749.867 1227.2C738.001 1239.73 737.601 1240.27 728.667 1251.33C718.801 1263.6 702.534 1279.07 700.934 1277.47C699.867 1276.4 699.867 1274.8 701.067 1271.6C702.001 1268.8 702.667 1259.47 702.667 1247.2C702.667 1228.8 702.401 1226.53 698.801 1216.27C696.667 1210.13 694.001 1204.13 692.801 1202.8C691.601 1201.47 690.667 1199.87 690.667 1199.2C690.667 1197.73 681.067 1188 679.601 1188C678.134 1188 678.534 1193.07 680.001 1194C680.801 1194.4 681.334 1196.27 681.334 1198.13C681.334 1199.87 682.001 1201.33 682.667 1201.33C683.467 1201.33 684.001 1202.8 684.001 1204.53C684.001 1206.4 684.667 1208.27 685.334 1208.67C686.134 1209.07 686.667 1211.47 686.667 1213.87C686.667 1216.13 687.334 1218.8 688.001 1219.47C688.934 1220.4 689.201 1229.87 688.934 1246.8C688.267 1273.33 687.334 1283.73 685.201 1286C684.534 1286.67 684.001 1288.53 684.001 1290.27C684.001 1292 683.467 1293.33 682.667 1293.33C682.001 1293.33 681.334 1294.8 681.334 1296.53C681.334 1298.27 680.134 1302 678.801 1304.93C677.334 1307.73 674.667 1312.93 672.934 1316.67C658.801 1346 640.667 1364 625.467 1364C619.467 1364 617.734 1362.4 619.734 1358.27C624.801 1347.33 625.067 1315.47 620.001 1303.33C616.001 1293.6 608.934 1280 606.667 1278C603.601 1275.33 603.067 1266.67 605.334 1257.07C606.001 1253.87 607.067 1246.53 607.867 1240.67C609.201 1228.8 610.534 1222.93 613.601 1216C614.801 1213.47 616.534 1209.2 617.467 1206.67C618.401 1204.13 619.467 1201.73 619.867 1201.33C620.267 1200.93 621.867 1198.53 623.334 1196C628.267 1186.93 638.934 1174.27 660.401 1151.47C666.001 1145.47 670.667 1140 670.667 1139.33C670.667 1138.8 673.201 1135.47 676.401 1131.87C683.734 1123.6 688.001 1117.87 688.001 1116.27C688.001 1115.6 689.201 1114 690.667 1112.67C692.134 1111.33 693.334 1109.6 693.334 1108.93C693.334 1108.13 694.267 1106.4 695.601 1105.07C696.801 1103.73 697.467 1102.27 697.067 1101.87C696.667 1101.47 694.534 1103.47 692.534 1106.27ZM606.667 1292.67C606.667 1294.53 607.334 1296 608.001 1296C608.801 1296 609.334 1297.73 609.334 1299.87C609.334 1302.13 610.001 1304.27 610.667 1304.67C611.467 1305.07 612.001 1307.73 612.001 1310.53C612.001 1313.2 612.667 1316.13 613.334 1316.8C615.201 1318.67 614.534 1347.47 612.667 1347.07C610.001 1346.67 608.134 1336.67 606.801 1317.07C606.001 1305.87 604.934 1295.07 604.534 1292.93C604.001 1290.67 604.267 1289.33 605.201 1289.33C606.001 1289.33 606.667 1290.8 606.667 1292.67Z" fill="black"></path><path d="M1192.67 1345.33C1176.93 1347.6 1174 1348.13 1171.33 1349.33C1168.67 1350.53 1163.87 1351.47 1154.27 1352.93C1151.6 1353.33 1148.93 1354.13 1148.53 1354.8C1148.13 1355.47 1146.4 1356 1144.53 1356C1142.8 1356 1140.27 1356.53 1138.93 1357.2C1136.27 1358.67 1115.07 1365.33 1113.2 1365.33C1111.73 1365.33 1104.4 1368.53 1084.27 1378.13C1076 1382.13 1068.67 1385.33 1068 1385.33C1067.2 1385.33 1066.67 1385.73 1066.67 1386.4C1066.67 1386.93 1064.67 1388.13 1062.4 1389.2C1060 1390.27 1056.53 1392.13 1054.67 1393.33C1052.8 1394.67 1046.93 1397.87 1041.73 1400.67C1036.4 1403.33 1032.27 1406.13 1032.67 1406.8C1033.47 1408 1037.47 1406.13 1041.87 1402.67C1043.2 1401.6 1044.4 1400.8 1044.53 1401.07C1044.8 1401.73 1049.6 1400 1058.13 1395.87C1062.53 1393.73 1066.93 1392 1067.73 1392C1068.67 1392 1070.4 1391.47 1071.73 1390.8C1075.73 1388.53 1102.13 1380 1105.07 1380C1106.53 1380 1108.27 1379.33 1108.67 1378.67C1109.07 1377.87 1110.93 1377.33 1112.67 1377.33C1114.4 1377.33 1116.27 1376.67 1116.67 1376C1117.07 1375.2 1119.2 1374.67 1121.33 1374.67C1123.47 1374.67 1125.47 1374.13 1125.87 1373.47C1126.27 1372.8 1128.93 1372 1131.6 1371.47C1151.87 1368.4 1158.53 1367.2 1159.47 1366.27C1160 1365.73 1163.2 1365.33 1166.67 1365.33C1170 1365.33 1173.33 1364.8 1174.13 1364.13C1178.27 1360 1236.27 1360 1240.67 1364.13C1241.33 1364.8 1242.8 1365.33 1244 1365.33C1249.87 1365.33 1262.4 1374.67 1266.13 1381.6C1268.4 1386 1268.67 1405.47 1266.4 1409.73C1263.2 1416 1262.67 1417.33 1262.67 1419.33C1262.67 1421.87 1261.2 1424.4 1252.13 1438C1237.33 1460 1229.47 1469.07 1197.73 1500.53C1182.27 1516 1165.47 1532.13 1160.4 1536.4C1138 1555.33 1134.4 1558.27 1128 1563.33C1124.13 1566.27 1119.73 1570 1118 1571.6C1116.27 1573.33 1114.4 1574.67 1113.87 1574.67C1113.47 1574.67 1110.93 1576.27 1108.53 1578.27C1106 1580.4 1102 1583.6 1099.47 1585.6C1097.07 1587.73 1094.4 1589.33 1093.73 1589.33C1093.07 1589.33 1091.07 1590.93 1089.2 1592.8C1087.47 1594.67 1084.8 1596.8 1083.33 1597.47C1081.87 1598.13 1078 1600.8 1074.67 1603.33C1071.33 1605.87 1067.47 1608.53 1066 1609.2C1064.4 1609.87 1062.4 1611.33 1061.47 1612.53C1060.53 1613.73 1059.07 1614.67 1058.4 1614.67C1057.73 1614.67 1054.53 1616.8 1051.47 1619.33C1048.27 1621.87 1045.07 1624 1044.4 1624C1043.73 1624 1042 1625.2 1040.67 1626.67C1039.33 1628.13 1037.73 1629.33 1037.07 1629.33C1036.53 1629.33 1032.93 1631.47 1029.33 1634C1025.73 1636.53 1022.4 1638.67 1021.87 1638.67C1021.47 1638.67 1018.53 1640.4 1015.33 1642.67C1012.13 1644.8 1009.07 1646.67 1008.53 1646.67C1008 1646.67 1005.73 1648.13 1003.47 1649.73C1001.2 1651.47 995.733 1654.8 991.333 1656.93C986.933 1659.2 978.266 1663.6 972 1666.8C965.733 1670.13 957.333 1674.13 953.333 1675.73C949.333 1677.47 943.466 1680 940.266 1681.47C937.2 1682.8 933.466 1684 932 1684C930.533 1684 929.333 1684.53 929.333 1685.2C929.333 1685.87 927.333 1686.67 925.066 1687.07C922.666 1687.47 918 1688.53 914.666 1689.47C904.4 1692.27 882.133 1692.53 875.466 1690C868.266 1687.2 860.933 1679.73 858.8 1672.67C855.866 1663.07 858.533 1620.67 862.666 1611.33C863.333 1609.87 864.533 1606.27 865.466 1603.33C866.4 1600.4 867.733 1597.47 868.266 1596.67C868.8 1596 869.333 1594.53 869.333 1593.47C869.333 1591.07 893.333 1542.4 897.733 1535.87C899.333 1533.33 901.733 1529.2 903.066 1526.53C904.266 1523.87 906.133 1520.93 907.333 1520C908.4 1519.07 909.333 1517.87 909.333 1517.2C909.333 1516.53 911.333 1513.07 913.733 1509.6C919.333 1501.33 925.733 1489.33 924.933 1488.53C922.266 1485.87 899.733 1507.47 888.666 1523.33C874.266 1543.87 866 1559.07 857.2 1581.07C854.933 1586.67 852.533 1592.53 852 1594C851.333 1595.47 850.133 1599.07 849.2 1602C848.4 1604.93 847.2 1608.53 846.533 1610C845.2 1613.47 843.866 1619.47 843.2 1626C842.8 1628.93 841.866 1632.53 841.2 1634C839.466 1637.47 840.4 1668.13 842.266 1674.93C845.866 1687.73 852.933 1697.07 861.733 1700.67C864.8 1701.87 868.4 1703.47 869.6 1704.13C872.8 1705.73 910.266 1705.73 911.333 1704C911.733 1703.2 913.866 1702.67 916.133 1702.67C918.266 1702.67 921.066 1702.13 922.4 1701.47C923.6 1700.8 927.733 1699.6 931.333 1698.8C935.066 1697.87 939.733 1696.27 941.866 1695.2C944 1694.13 946.533 1693.33 947.466 1693.33C948.266 1693.33 951.333 1692.13 954.266 1690.8C957.066 1689.33 962.4 1686.93 966 1685.33C981.066 1678.67 993.066 1672.67 999.333 1668.53C1008.13 1662.93 1016.67 1658 1023.6 1654.67C1026.67 1653.2 1029.6 1651.47 1030 1650.67C1030.4 1650 1033.07 1648.4 1035.73 1647.07C1038.4 1645.87 1043.33 1642.8 1046.53 1640.4C1049.73 1638 1053.2 1636 1054.13 1636C1055.2 1636 1056 1635.47 1056 1634.93C1056 1633.73 1066.27 1626.67 1067.87 1626.67C1068.53 1626.67 1070 1625.47 1071.33 1624C1072.67 1622.53 1074.4 1621.33 1075.33 1621.33C1076.27 1621.33 1078 1620.13 1079.33 1618.67C1080.67 1617.2 1082.53 1616 1083.33 1616C1084.27 1616 1085.87 1615.07 1086.8 1613.87C1087.73 1612.67 1089.73 1611.2 1091.33 1610.53C1092.8 1609.87 1096.13 1607.6 1098.8 1605.6C1101.47 1603.6 1108.93 1598.13 1115.33 1593.33C1121.73 1588.53 1129.2 1582.67 1132 1580.27C1134.67 1578 1137.6 1576 1138.27 1576C1138.93 1576 1141.2 1574.13 1143.33 1572C1145.47 1569.73 1147.73 1568 1148.4 1568C1149.07 1568 1152.53 1565.47 1156.27 1562.27C1159.87 1559.2 1166.27 1553.87 1170.4 1550.4C1197.87 1527.6 1252 1474.13 1252 1469.87C1252 1469.07 1253.87 1466.8 1256 1464.67C1258.27 1462.53 1260 1460.13 1260 1459.33C1260 1458.53 1261.47 1456.4 1263.33 1454.67C1265.2 1452.93 1266.67 1450.8 1266.67 1449.87C1266.67 1449.07 1267.6 1447.6 1268.67 1446.67C1269.73 1445.73 1272.27 1441.73 1274.27 1437.47C1276.27 1433.33 1278.27 1429.73 1278.8 1429.33C1279.33 1428.93 1280.27 1426.93 1280.67 1424.93C1281.2 1422.93 1282.13 1420.93 1282.8 1420.53C1283.47 1420.13 1284 1418.53 1284 1416.8C1284 1415.2 1284.53 1413.33 1285.2 1412.53C1286.27 1411.47 1286.8 1408.53 1288.8 1393.6C1289.33 1390 1289.07 1387.2 1288.13 1386.27C1287.33 1385.47 1286.67 1382.93 1286.53 1380.67C1286.53 1378.53 1285.33 1374.8 1283.87 1372.67C1282.53 1370.4 1280.93 1367.73 1280.53 1366.67C1279.07 1363.6 1271.6 1356 1270 1356C1269.07 1356 1267.47 1354.93 1266.13 1353.6C1264.93 1352.13 1261.47 1350.27 1258.27 1349.33C1255.2 1348.27 1251.87 1346.93 1250.8 1346.13C1248.53 1344.4 1203.6 1343.87 1192.67 1345.33Z" fill="black"></path><path d="M2258.53 1383.2C2259.33 1384.27 2261.73 1385.33 2263.73 1385.6C2265.73 1386 2268.4 1386.8 2269.73 1387.33C2271.07 1387.87 2272 1387.73 2272 1386.8C2272 1386 2269.6 1384.93 2266.67 1384.53C2263.73 1384 2260.93 1383.07 2260.53 1382.53C2260.13 1381.87 2259.2 1381.33 2258.4 1381.33C2257.47 1381.33 2257.47 1382 2258.53 1383.2Z" fill="black"></path></svg> 