<?xml version="1.0" encoding="UTF-8"?> <svg xmlns="http://www.w3.org/2000/svg" width="978" height="1292" viewBox="0 0 978 1292" fill="none"><path d="M914.578 1288.23C914.578 1286.06 914.239 1283.82 913.9 1283.28C913.426 1282.54 913.222 1283.62 913.222 1286.81C913.222 1289.32 913.493 1291.55 913.9 1291.76C914.307 1292.03 914.578 1290.67 914.578 1288.23Z" fill="black"></path><path d="M890.105 1280.5C891.325 1278.6 892.138 1276.91 892.003 1276.71C891.799 1276.57 890.715 1277.99 889.562 1279.96C888.342 1281.86 887.529 1283.55 887.664 1283.76C887.868 1283.89 888.952 1282.47 890.105 1280.5Z" fill="black"></path><path d="M893.562 1274.47C893.969 1273.72 894.104 1273.11 893.969 1273.11C893.765 1273.11 893.291 1273.72 892.884 1274.47C892.477 1275.21 892.342 1275.82 892.477 1275.82C892.681 1275.82 893.155 1275.21 893.562 1274.47Z" fill="black"></path><path d="M896.341 1269.93C897.223 1268.5 899.527 1264.84 901.493 1261.79C906.442 1254.2 916.611 1234.61 920.204 1226C922.508 1220.3 927.796 1204.37 928.813 1199.9C929.287 1197.87 929.898 1195.9 930.169 1195.49C930.847 1194.68 933.219 1183.9 934.507 1175.83C939.727 1144.58 940.473 1097.94 936.609 1043.64C935.456 1027.37 932.609 998.088 931.186 988.055C930.643 984.326 928.881 971.039 927.186 958.566C925.559 946.093 923.254 929.281 922.102 921.281C921.017 913.282 919.458 901.69 918.712 895.521C917.966 889.352 917.017 881.76 916.611 878.574C916.136 875.387 915.526 870.235 915.119 867.049C914.17 859.118 914.102 819.054 915.119 813.495C915.526 811.054 916.272 807.123 916.678 804.818L917.492 800.479L919.593 800.954C927.864 802.648 937.015 801.835 942.032 798.92C945.964 796.683 950.98 791.056 952.946 786.718C958.098 775.465 957.488 756.077 951.658 746.315C948.675 741.366 945.693 739.4 941.693 739.739C937.354 740.146 933.49 742.993 927.728 750.043C922.441 756.483 918.78 762.923 915.255 771.804C914.102 774.787 912.679 778.244 912.136 779.464L911.12 781.701L908.272 779.125C901.561 772.889 899.121 769.838 896.07 763.805C893.291 758.246 892.138 755.06 888.41 742.79C885.292 732.553 883.597 706.996 884.681 685.642C885.563 669.169 887.122 651.68 888.139 648.087C888.478 646.799 889.427 641.308 890.172 635.884C892.816 617.852 900.477 579.89 902.375 575.89C902.714 575.144 903.934 570.874 905.086 566.399C910.171 546.944 914.916 529.996 915.933 527.759C917.289 524.844 925.152 495.626 931.592 469.798C939.185 439.157 941.896 397.127 938.032 371.502C936.473 361.334 933.287 349.064 930.847 343.912C928.745 339.37 928.745 338.692 931.253 336.59C932.88 335.167 939.592 324.185 942.71 317.948C950.167 302.831 954.709 280.392 957.692 244.396C959.318 224.533 959.861 212.602 960.606 176.605C962.098 110.917 964.267 79.6654 969.555 47.4651C971.317 36.5508 971.927 34.246 974.232 29.6362C975.656 26.7212 977.08 22.9928 977.283 21.4336C978.164 15.5359 974.978 7.46882 971.724 7.46882C970.3 7.46882 965.691 12.6209 964.132 15.9426C963.454 17.434 962.369 20.8235 961.691 23.3995C959.725 30.7887 954.641 36.822 942.506 45.9737C935.05 51.6003 931.999 53.4306 918.441 60.2774C906.917 66.0396 888.749 72.8864 880.953 74.31C879.462 74.5134 877.97 74.9879 877.631 75.2591C876.614 76.0725 865.361 78.3774 855.938 79.801C845.702 81.2924 812.417 81.4958 801.367 80.14C790.86 78.8519 773.37 75.8692 772.556 75.3269C772.217 75.0557 769.302 74.2422 766.116 73.6321C752.626 70.8527 730.323 64.7516 716.426 60.0741C711.477 58.3793 700.902 54.9898 692.903 52.5493C684.904 50.0411 677.989 47.7362 677.65 47.4651C676.837 46.855 654.534 39.737 642.738 36.3475C638.06 34.9917 633.79 33.6359 633.18 33.2969C631.756 32.4834 612.843 28.1448 604.437 26.6535C594.607 24.9587 575.626 25.0265 569.186 26.7212C563.017 28.3482 556.102 31.4666 553.797 33.7036L551.967 35.4662L548.713 33.4325C544.713 30.992 540.849 29.1617 531.901 25.7722C509.123 17.1628 487.227 11.8074 456.993 7.53661C451.57 6.79092 444.994 5.84185 442.418 5.43511C410.15 0.554214 360.053 -1.07275 294.635 0.689795C233.353 2.31676 216.473 3.19803 125.159 9.63811C106.314 10.9261 97.7044 11.1295 60.0808 11.1973C30.1853 11.2651 14.1868 11.5362 8.56025 12.1463C0.832161 12.9598 -0.523644 13.231 0.154259 13.8411C0.289839 13.9767 6.18759 15.4681 13.3056 17.1628C41.3029 23.8741 83.4685 27.128 125.77 25.7044C145.429 25.0943 152.953 24.6875 192.272 22.1115C207.931 21.0947 242.369 19.4677 272.603 18.2475C302.567 17.095 376.119 16.6883 393.27 17.5696C427.504 19.3321 452.586 22.3149 482.414 28.2126C493.193 30.3141 514.004 35.6018 516.919 36.9576C518.072 37.4999 522.343 39.1947 526.478 40.686C539.561 45.6347 541.866 46.7872 541.392 48.4141C538.409 58.786 538.409 63.1246 541.324 69.4969C543.493 74.31 549.594 80.3433 554.475 82.5804C559.017 84.6141 567.152 85.631 571.49 84.6819C577.253 83.3939 581.049 78.9197 581.049 73.4287C580.981 69.6325 579.49 63.8703 577.456 59.9385C575.287 55.6677 568.372 46.855 565.932 45.228C564.915 44.5501 564.101 43.7366 564.101 43.3976C564.101 42.4486 572.372 40.1437 578.88 39.2624C587.014 38.2456 598.268 39.398 614.266 42.7875C624.028 44.8212 644.501 50.5156 645.789 51.5325C646.128 51.8036 649.178 52.8883 652.568 53.8373C655.889 54.8542 669.922 59.4639 683.751 64.0737C697.513 68.6834 713.85 73.8355 720.019 75.598C726.188 77.3606 731.475 79.0553 731.882 79.3265C733.984 80.9534 772.082 89.5628 789.504 92.2744C794.317 93.0201 800.283 93.9692 802.723 94.3759C808.689 95.3928 847.939 95.3928 853.227 94.3759C855.464 93.9692 860.887 93.0201 865.293 92.2066C881.495 89.4272 900.748 83.9362 911.526 79.1231C929.355 71.0561 941.083 64.4126 951.251 56.4812C953.285 54.922 955.183 53.5662 955.387 53.5662C955.929 53.5662 955.387 57.9726 954.573 60.3452C953.827 62.5145 952.133 77.9707 950.845 94.5793C949.353 114.51 948.54 135.389 947.794 175.928C947.048 216.941 946.235 237.888 944.676 254.903C943.591 267.377 941.218 284.324 940.405 286.019C940.134 286.629 939.185 290.154 938.304 293.883C936.405 302.221 934.304 308.322 930.508 316.05C927.864 321.405 923.729 327.439 922.78 327.439C922.576 327.439 921.153 325.676 919.661 323.643C915.729 318.084 906.713 309.813 902.036 307.305C885.63 298.696 871.123 300.323 859.328 312.118C850.786 320.728 847.126 327.642 846.312 336.658C845.77 342.963 847.397 347.166 852.481 352.25C856.21 355.911 862.921 359.978 865.361 359.978C865.768 359.978 866.988 360.453 868.141 361.063C870.649 362.486 883.529 363.164 888.478 362.147C898.375 360.181 908.544 355.978 915.797 351.03C918.238 349.335 918.915 349.132 919.39 349.877C920.61 351.708 923.254 361.063 924.407 367.435C925.017 370.96 925.83 374.621 926.169 375.57C927.932 380.451 927.932 419.362 926.169 425.735C925.83 427.023 924.881 432.853 924.068 438.615C921.83 454.884 914.712 488.576 912.543 493.186C912.204 493.932 909.289 504.032 906.103 515.557C902.917 527.149 899.392 539.148 898.307 542.334C896.341 548.232 890.715 569.382 886.376 587.482C876.072 630.461 871.191 671.271 872.072 706.725C872.818 736.35 876.818 756.483 884.885 771.126C889.63 779.871 894.511 786.04 900.409 790.853C903.256 793.158 906.103 795.327 906.645 795.598C907.527 796.141 907.527 796.818 906.781 801.293C904.476 814.647 903.73 837.696 905.086 856.745C906.442 875.32 911.187 913.757 912.543 916.875C913.221 918.502 917.492 947.177 921.627 978.225C923.254 990.699 925.017 1003.24 925.423 1006.02C927.66 1021.2 930.372 1049.61 932.202 1076.86C933.423 1094.28 933.829 1138.62 932.948 1151.77C931.66 1170.34 927.932 1196.37 926.101 1199.83C925.762 1200.44 924.339 1205.05 922.983 1210.07C920.475 1219.22 913.763 1237.73 912.679 1238.47C912.34 1238.68 911.73 1239.9 911.323 1241.18C910.238 1244.23 901.154 1260.91 897.29 1266.94C895.528 1269.66 894.24 1272.03 894.443 1272.16C894.647 1272.37 895.46 1271.35 896.341 1269.93ZM921.898 786.514C920.271 784.887 926.508 770.312 932.474 761.839C935.727 757.161 940.812 752.28 941.761 752.823C942.032 753.026 942.845 754.789 943.523 756.754C944.405 759.398 944.744 762.245 944.744 768.075C944.744 774.787 944.472 776.346 943.117 779.464C940.473 785.294 935.321 787.938 927.254 787.463C924.678 787.328 922.305 786.921 921.898 786.514ZM872.615 349.471C866.92 348.725 859.531 343.98 857.294 339.641C854.583 334.421 863.26 321.609 872.886 316.796C877.292 314.559 883.258 314.016 888.207 315.44C892.477 316.728 898.917 320.66 903.392 324.795C906.51 327.642 913.221 336.252 913.221 337.336C913.153 338.489 900.815 345.335 895.324 347.301C889.901 349.199 881.631 350.487 877.631 350.081C876.479 349.945 874.242 349.674 872.615 349.471ZM558.814 69.2257C555.899 67.7343 552.306 63.9381 551.56 61.701C551.018 59.8707 551.764 54.2441 552.577 54.2441C553.458 54.2441 559.492 59.1928 562.203 62.2433C564.44 64.7516 567.491 69.7003 567.491 70.9205C567.491 71.734 561.458 70.5815 558.814 69.2257Z" fill="black"></path></svg> 