<?xml version="1.0" encoding="UTF-8"?> <svg xmlns="http://www.w3.org/2000/svg" width="978" height="1292" viewBox="0 0 978 1292" fill="none"><path d="M914.578 3.55813C914.578 5.72741 914.239 7.96449 913.9 8.50681C913.426 9.25251 913.222 8.16786 913.222 4.98172C913.222 2.47348 913.493 0.236403 913.9 0.0330326C914.307 -0.238128 914.578 1.11768 914.578 3.55813Z" fill="black"></path><path d="M890.105 11.2866C891.325 13.1847 892.138 14.8795 892.003 15.0829C891.799 15.2184 890.715 13.7949 889.562 11.8289C888.342 9.93081 887.529 8.23605 887.664 8.03268C887.868 7.8971 888.952 9.3207 890.105 11.2866Z" fill="black"></path><path d="M893.562 17.32C893.969 18.0657 894.104 18.6758 893.969 18.6758C893.765 18.6758 893.291 18.0657 892.884 17.32C892.477 16.5743 892.342 15.9642 892.477 15.9642C892.681 15.9642 893.155 16.5743 893.562 17.32Z" fill="black"></path><path d="M896.341 21.8624C897.223 23.286 899.527 26.9467 901.493 29.9973C906.442 37.5898 916.611 57.1812 920.204 65.7905C922.508 71.4849 927.796 87.4156 928.813 91.8898C929.287 93.9235 929.898 95.8894 930.169 96.2961C930.847 97.1096 933.219 107.888 934.507 115.955C939.727 147.207 940.473 193.846 936.609 248.146C935.456 264.416 932.609 293.701 931.186 303.734C930.643 307.463 928.881 320.75 927.186 333.223C925.559 345.696 923.254 362.508 922.102 370.508C921.017 378.507 919.458 390.099 918.712 396.268C917.966 402.437 917.017 410.029 916.611 413.216C916.136 416.402 915.526 421.554 915.119 424.74C914.17 432.671 914.102 472.735 915.119 478.294C915.526 480.735 916.272 484.666 916.678 486.971L917.492 491.31L919.593 490.835C927.864 489.141 937.015 489.954 942.032 492.869C945.964 495.106 950.98 500.733 952.946 505.071C958.098 516.325 957.488 535.713 951.658 545.474C948.675 550.423 945.693 552.389 941.693 552.05C937.354 551.643 933.49 548.796 927.728 541.746C922.441 535.306 918.78 528.866 915.255 519.985C914.102 517.002 912.679 513.545 912.136 512.325L911.12 510.088L908.272 512.664C901.561 518.901 899.121 521.951 896.07 527.984C893.291 533.543 892.138 536.729 888.41 548.999C885.292 559.236 883.597 584.793 884.681 606.147C885.563 622.62 887.122 640.109 888.139 643.702C888.478 644.99 889.427 650.481 890.172 655.905C892.816 673.937 900.477 711.899 902.375 715.899C902.714 716.645 903.934 720.915 905.086 725.39C910.171 744.845 914.916 761.793 915.933 764.03C917.289 766.945 925.152 796.163 931.592 821.991C939.185 852.632 941.896 894.662 938.032 920.287C936.473 930.455 933.287 942.725 930.847 947.877C928.745 952.419 928.745 953.097 931.253 955.199C932.88 956.622 939.592 967.604 942.71 973.841C950.167 988.958 954.709 1011.4 957.692 1047.39C959.318 1067.26 959.861 1079.19 960.606 1115.18C962.098 1180.87 964.267 1212.12 969.555 1244.32C971.317 1255.24 971.927 1257.54 974.232 1262.15C975.656 1265.07 977.08 1268.8 977.283 1270.36C978.164 1276.25 974.978 1284.32 971.724 1284.32C970.3 1284.32 965.691 1279.17 964.132 1275.85C963.454 1274.36 962.369 1270.97 961.691 1268.39C959.725 1261 954.641 1254.97 942.506 1245.82C935.05 1240.19 931.999 1238.36 918.441 1231.51C906.917 1225.75 888.749 1218.9 880.953 1217.48C879.462 1217.28 877.97 1216.8 877.631 1216.53C876.614 1215.72 865.361 1213.41 855.938 1211.99C845.702 1210.5 812.417 1210.29 801.367 1211.65C790.86 1212.94 773.37 1215.92 772.556 1216.46C772.217 1216.73 769.302 1217.55 766.116 1218.16C752.626 1220.94 730.323 1227.04 716.426 1231.72C711.477 1233.41 700.902 1236.8 692.903 1239.24C684.904 1241.75 677.989 1244.05 677.65 1244.32C676.837 1244.93 654.534 1252.05 642.738 1255.44C638.06 1256.8 633.79 1258.15 633.18 1258.49C631.756 1259.31 612.843 1263.64 604.437 1265.14C594.607 1266.83 575.626 1266.76 569.186 1265.07C563.017 1263.44 556.102 1260.32 553.797 1258.09L551.967 1256.32L548.713 1258.36C544.713 1260.8 540.849 1262.63 531.901 1266.02C509.123 1274.63 487.227 1279.98 456.993 1284.25C451.57 1285 444.994 1285.95 442.418 1286.35C410.15 1291.23 360.053 1292.86 294.635 1291.1C233.353 1289.47 216.473 1288.59 125.159 1282.15C106.314 1280.86 97.7044 1280.66 60.0808 1280.59C30.1853 1280.52 14.1868 1280.25 8.56025 1279.64C0.832161 1278.83 -0.523644 1278.56 0.154259 1277.95C0.289839 1277.81 6.18759 1276.32 13.3056 1274.63C41.3029 1267.92 83.4685 1264.66 125.77 1266.08C145.429 1266.69 152.953 1267.1 192.272 1269.68C207.931 1270.69 242.369 1272.32 272.603 1273.54C302.567 1274.69 376.119 1275.1 393.27 1274.22C427.504 1272.46 452.586 1269.47 482.414 1263.58C493.193 1261.47 514.004 1256.19 516.919 1254.83C518.072 1254.29 522.343 1252.59 526.478 1251.1C539.561 1246.15 541.866 1245 541.392 1243.37C538.409 1233 538.409 1228.66 541.324 1222.29C543.493 1217.48 549.594 1211.45 554.475 1209.21C559.017 1207.17 567.152 1206.16 571.49 1207.11C577.253 1208.4 581.049 1212.87 581.049 1218.36C580.981 1222.16 579.49 1227.92 577.456 1231.85C575.287 1236.12 568.372 1244.93 565.932 1246.56C564.915 1247.24 564.101 1248.05 564.101 1248.39C564.101 1249.34 572.372 1251.65 578.88 1252.53C587.014 1253.54 598.268 1252.39 614.266 1249C624.028 1246.97 644.501 1241.27 645.789 1240.26C646.128 1239.99 649.178 1238.9 652.568 1237.95C655.889 1236.93 669.922 1232.33 683.751 1227.72C697.513 1223.11 713.85 1217.95 720.019 1216.19C726.188 1214.43 731.475 1212.73 731.882 1212.46C733.984 1210.84 772.082 1202.23 789.504 1199.51C794.317 1198.77 800.283 1197.82 802.723 1197.41C808.689 1196.4 847.939 1196.4 853.227 1197.41C855.464 1197.82 860.887 1198.77 865.293 1199.58C881.495 1202.36 900.748 1207.85 911.526 1212.67C929.355 1220.73 941.083 1227.38 951.251 1235.31C953.285 1236.87 955.183 1238.22 955.387 1238.22C955.929 1238.22 955.387 1233.82 954.573 1231.44C953.827 1229.27 952.133 1213.82 950.845 1197.21C949.353 1177.28 948.54 1156.4 947.794 1115.86C947.048 1074.85 946.235 1053.9 944.676 1036.89C943.591 1024.41 941.218 1007.46 940.405 1005.77C940.134 1005.16 939.185 1001.63 938.304 997.906C936.405 989.568 934.304 983.467 930.508 975.739C927.864 970.384 923.729 964.35 922.78 964.35C922.576 964.35 921.153 966.113 919.661 968.147C915.729 973.705 906.713 981.976 902.036 984.484C885.63 993.093 871.123 991.466 859.328 979.671C850.786 971.062 847.126 964.147 846.312 955.131C845.77 948.826 847.397 944.623 852.481 939.539C856.21 935.878 862.921 931.811 865.361 931.811C865.768 931.811 866.988 931.336 868.141 930.726C870.649 929.303 883.529 928.625 888.478 929.642C898.375 931.608 908.544 935.811 915.797 940.759C918.238 942.454 918.915 942.657 919.39 941.912C920.61 940.081 923.254 930.726 924.407 924.354C925.017 920.829 925.83 917.168 926.169 916.219C927.932 911.338 927.932 872.427 926.169 866.054C925.83 864.766 924.881 858.936 924.068 853.174C921.83 836.905 914.712 803.213 912.543 798.603C912.204 797.857 909.289 787.757 906.103 776.232C902.917 764.64 899.392 752.641 898.307 749.455C896.341 743.557 890.715 722.407 886.376 704.307C876.072 661.328 871.191 620.518 872.072 585.064C872.818 555.439 876.818 535.306 884.885 520.663C889.63 511.918 894.511 505.749 900.409 500.936C903.256 498.631 906.103 496.462 906.645 496.191C907.527 495.648 907.527 494.971 906.781 490.496C904.476 477.142 903.73 454.093 905.086 435.044C906.442 416.469 911.187 378.032 912.543 374.914C913.221 373.287 917.492 344.612 921.627 313.564C923.254 301.09 925.017 288.549 925.423 285.77C927.66 270.585 930.372 242.181 932.202 214.929C933.423 197.507 933.829 153.172 932.948 140.021C931.66 121.446 927.932 95.4149 926.101 91.9576C925.762 91.3474 924.339 86.7377 922.983 81.7212C920.475 72.5695 913.763 54.0628 912.679 53.3171C912.34 53.1137 911.73 51.8935 911.323 50.6055C910.238 47.5549 901.154 30.8785 897.29 24.8452C895.528 22.1336 894.24 19.7609 894.443 19.6254C894.647 19.422 895.46 20.4388 896.341 21.8624ZM921.898 505.275C920.271 506.902 926.508 521.477 932.474 529.95C935.727 534.628 940.812 539.509 941.761 538.966C942.032 538.763 942.845 537.001 943.523 535.035C944.405 532.391 944.744 529.544 944.744 523.714C944.744 517.002 944.472 515.443 943.117 512.325C940.473 506.495 935.321 503.851 927.254 504.326C924.678 504.461 922.305 504.868 921.898 505.275ZM872.615 942.318C866.92 943.064 859.531 947.809 857.294 952.148C854.583 957.368 863.26 970.18 872.886 974.993C877.292 977.23 883.258 977.773 888.207 976.349C892.477 975.061 898.917 971.129 903.392 966.994C906.51 964.147 913.221 955.538 913.221 954.453C913.153 953.3 900.815 946.454 895.324 944.488C889.901 942.59 881.631 941.302 877.631 941.708C876.479 941.844 874.242 942.115 872.615 942.318ZM558.814 1222.56C555.899 1224.05 552.306 1227.85 551.56 1230.09C551.018 1231.92 551.764 1237.54 552.577 1237.54C553.458 1237.54 559.492 1232.6 562.203 1229.55C564.44 1227.04 567.491 1222.09 567.491 1220.87C567.491 1220.06 561.458 1221.21 558.814 1222.56Z" fill="black"></path></svg> 