<?xml version="1.0" encoding="UTF-8" standalone="no"?> <svg xmlns="http://www.w3.org/2000/svg" version="1.0" width="2048.000000pt" height="2048.000000pt" viewBox="0 0 2048.000000 2048.000000" preserveAspectRatio="xMidYMid meet"><g transform="translate(0.000000,2048.000000) scale(0.100000,-0.100000)" fill="#000000" stroke="none"><path d="M9225 18043 c-75 -8 -157 -27 -245 -55 -240 -77 -566 -284 -665 -422 -22 -31 -43 -56 -47 -56 -4 0 -8 12 -9 28 0 15 -4 36 -9 47 -6 13 -8 -8 -5 -60 3 -44 7 -138 10 -210 10 -223 65 -848 105 -1200 28 -239 47 -459 61 -680 8 -136 17 -206 31 -245 10 -30 20 -91 22 -135 2 -44 7 -89 11 -100 5 -11 -22 23 -60 75 -200 281 -412 475 -695 634 -241 136 -480 222 -760 273 -134 24 -481 24 -640 0 -425 -65 -725 -212 -968 -472 -230 -247 -361 -514 -417 -855 -22 -134 -30 -367 -16 -472 44 -330 223 -641 422 -736 218 -104 482 -43 781 180 46 34 215 194 378 357 162 163 344 335 404 384 279 222 509 338 730 368 161 21 287 -5 459 -95 48 -25 98 -46 112 -46 13 0 35 -5 49 -11 l24 -11 -24 -49 c-55 -109 -54 -231 5 -351 l28 -58 -56 0 c-94 0 -289 -19 -420 -41 -320 -53 -530 -151 -717 -334 -143 -140 -230 -283 -299 -488 -65 -196 -68 -227 -70 -777 -1 -426 -3 -508 -18 -585 -34 -176 -67 -280 -127 -400 -199 -402 -529 -564 -1050 -516 -254 24 -302 24 -340 4 -58 -30 -60 -54 -11 -200 48 -147 61 -223 50 -294 -7 -45 -19 -70 -78 -163 -18 -28 -8 -70 23 -101 31 -31 117 -40 311 -32 640 26 1210 253 1590 632 113 113 192 229 254 374 l49 112 8 -88 c4 -48 7 -157 7 -240 0 -134 -2 -155 -18 -173 -25 -28 -32 -14 -40 82 -5 58 -11 78 -21 78 -11 0 -14 -8 -10 -32 3 -18 13 -170 21 -338 60 -1174 189 -2655 531 -6075 181 -1822 184 -1842 226 -1893 7 -8 11 -32 9 -54 -5 -73 39 -109 152 -123 32 -3 73 -15 90 -25 18 -10 57 -28 87 -40 30 -12 69 -32 85 -44 51 -39 192 -105 258 -121 34 -9 125 -18 202 -21 181 -8 341 12 575 73 96 24 240 56 320 70 308 53 483 133 745 342 104 82 153 130 171 163 36 69 -2 143 -75 143 -50 0 -61 19 -21 40 33 17 60 61 60 99 0 34 -44 83 -81 91 l-31 7 25 26 c19 18 41 28 79 32 29 4 60 10 69 14 13 6 17 -4 22 -61 4 -37 7 -112 7 -166 0 -73 4 -104 16 -122 15 -23 15 -28 0 -72 -9 -25 -16 -59 -16 -73 0 -36 34 -78 71 -88 l31 -7 -41 -61 c-52 -77 -172 -192 -263 -251 -146 -95 -393 -197 -598 -248 -295 -73 -697 -90 -987 -40 -201 35 -419 110 -598 205 -158 84 -275 113 -283 70 -5 -28 75 -137 135 -185 139 -110 434 -217 723 -262 159 -24 553 -24 730 0 309 43 569 121 812 243 357 179 551 444 602 825 38 281 40 347 41 1829 1 869 6 1562 13 1720 6 146 16 598 23 1005 17 978 1 1713 -51 2385 -22 285 -47 497 -64 550 -14 44 -42 51 -56 15 -6 -16 -10 -180 -10 -416 0 -308 -3 -390 -12 -387 -10 4 -15 61 -19 219 -7 232 -38 465 -67 509 -9 14 -19 49 -23 79 -21 151 -178 143 -204 -11 -11 -64 -22 -43 -29 58 -10 145 -33 184 -109 184 -23 0 -41 -8 -58 -26 -21 -23 -24 -34 -22 -97 5 -262 3 -321 -14 -339 -9 -10 -20 -18 -25 -18 -4 0 -8 125 -8 277 0 152 -2 274 -6 271 -8 -9 -42 -261 -55 -418 -24 -295 -11 -1298 27 -2015 27 -522 30 -551 56 -603 13 -26 30 -47 38 -47 8 0 23 21 34 48 19 46 19 56 8 275 -7 125 -19 394 -27 597 -8 204 -17 440 -20 526 l-7 156 23 6 c13 4 26 4 28 1 3 -3 13 -107 23 -232 9 -125 21 -283 27 -352 6 -69 15 -188 21 -265 11 -139 42 -369 60 -434 5 -19 21 -47 36 -62 l26 -27 -11 -164 c-6 -90 -11 -171 -11 -181 0 -10 -8 -17 -20 -17 -35 0 -80 -51 -88 -100 l-8 -45 -79 -12 c-114 -17 -115 -17 -115 11 0 32 -36 76 -79 93 l-36 15 100 36 c55 19 109 41 120 48 18 13 15 14 -25 14 -25 0 -88 -7 -140 -16 -54 -8 -222 -19 -390 -24 -162 -5 -347 -12 -410 -15 -437 -23 -876 -83 -1055 -145 l-55 -19 0 57 c0 261 -215 2091 -401 3412 -88 628 -109 794 -102 819 5 21 10 23 47 17 224 -32 352 -38 686 -33 351 5 581 21 828 57 245 37 413 83 427 118 4 11 19 -32 40 -113 63 -248 153 -459 275 -645 74 -112 213 -255 317 -323 543 -359 1173 -307 1613 133 164 164 289 357 490 755 150 297 190 399 190 489 0 83 -24 105 -144 133 -101 23 -183 71 -278 160 -47 45 -98 85 -113 89 -30 7 -97 -10 -113 -29 -5 -6 -42 -70 -82 -142 -142 -255 -273 -431 -464 -620 -145 -143 -262 -229 -412 -301 -278 -135 -480 -125 -646 33 -129 123 -219 290 -273 506 -33 135 -50 226 -40 216 3 -4 12 -39 20 -80 25 -126 84 -279 118 -308 9 -7 28 -46 43 -87 28 -79 59 -114 100 -114 16 0 28 -10 39 -29 20 -40 58 -68 120 -87 93 -30 136 -2 145 94 l6 57 7 -60 c10 -78 34 -143 63 -172 32 -32 42 -29 61 15 20 49 13 211 -21 458 -14 98 -34 251 -46 339 -72 561 -193 992 -387 1379 -157 312 -308 504 -504 635 -137 93 -226 129 -376 157 -49 8 -104 19 -123 24 -19 5 -56 14 -83 21 -28 7 -66 9 -95 5 -26 -4 -95 -9 -154 -10 l-106 -2 -6 35 c-3 20 -2 39 2 43 13 13 244 105 382 153 378 129 753 181 1520 210 410 15 527 28 705 80 380 111 617 370 696 760 19 98 14 296 -10 390 -72 273 -266 489 -579 645 -295 146 -618 176 -973 89 -301 -73 -533 -194 -780 -407 -195 -168 -333 -338 -524 -651 -139 -225 -251 -394 -412 -617 -71 -99 -153 -215 -182 -259 -69 -103 -67 -101 -63 -50 4 39 12 52 70 113 69 71 138 182 178 287 12 33 34 90 48 127 14 36 46 111 71 165 26 55 51 127 57 164 10 55 14 65 29 62 31 -9 40 59 50 382 5 171 13 416 19 545 6 129 15 390 20 579 8 282 13 348 25 365 51 70 67 98 85 149 11 31 20 74 20 95 0 117 -160 190 -365 165z m139 -183 c33 -5 64 -14 69 -19 14 -14 -33 -90 -83 -135 -50 -45 -205 -147 -311 -205 l-77 -41 -11 47 c-17 66 -54 103 -103 103 -80 0 -108 -44 -108 -166 l0 -74 -34 0 c-19 0 -45 -9 -60 -21 -15 -12 -28 -20 -29 -18 -1 2 -9 24 -17 49 -18 54 -64 81 -137 83 -40 0 -50 -4 -75 -32 -32 -35 -33 -52 -16 -162 10 -72 10 -78 -10 -103 l-20 -27 -12 58 c-7 32 -23 107 -36 168 -22 103 -22 111 -6 129 71 80 485 274 709 331 158 40 270 51 367 35z m96 -264 c0 -2 -18 -82 -39 -177 -22 -96 -45 -209 -52 -252 -12 -69 -15 -76 -28 -62 -13 13 -11 29 23 139 40 133 40 159 1 196 -39 37 -85 30 -145 -21 -27 -24 -55 -58 -60 -74 -22 -65 -148 -65 -164 0 -4 15 -6 28 -4 29 2 1 50 19 108 40 135 49 236 99 297 147 44 34 63 45 63 35z m1978 -911 c259 -42 485 -155 658 -329 73 -74 99 -108 132 -176 86 -176 94 -365 27 -578 -32 -99 -84 -188 -163 -273 -76 -82 -133 -125 -231 -174 -199 -100 -335 -123 -786 -136 -551 -14 -954 -52 -1240 -115 -52 -11 86 44 230 91 163 55 300 86 664 151 593 105 812 208 901 419 61 146 53 275 -28 428 -63 121 -197 233 -337 282 -80 28 -259 31 -372 6 -213 -47 -468 -188 -703 -390 -36 -30 -207 -195 -380 -366 -341 -336 -448 -436 -728 -683 -165 -145 -212 -180 -212 -154 0 4 19 26 41 47 48 46 269 297 381 432 117 141 214 272 359 484 185 272 243 345 398 499 145 144 283 251 432 337 299 171 661 246 957 198z m-234 -625 c82 -26 147 -70 199 -136 53 -68 65 -103 66 -185 1 -58 -3 -71 -29 -107 -92 -127 -320 -212 -840 -312 -396 -77 -620 -143 -857 -255 -193 -91 -434 -245 -518 -329 -27 -28 -68 -59 -89 -69 -22 -10 -56 -28 -75 -40 -42 -26 -87 -24 -119 6 l-23 21 57 28 c71 36 236 148 429 293 186 140 263 204 489 408 437 394 585 507 801 608 210 98 351 117 509 69z m-4383 -311 c436 -44 948 -256 1288 -532 124 -100 481 -463 481 -488 0 -4 -21 -12 -46 -18 -61 -16 -109 -41 -172 -90 l-51 -41 -32 60 c-57 107 -248 274 -403 352 -125 63 -207 81 -371 82 -231 0 -378 -35 -848 -208 -155 -57 -325 -117 -377 -134 -309 -101 -462 -102 -527 -3 -66 98 -30 193 134 357 344 345 833 446 1413 293 269 -71 524 -195 895 -434 66 -42 161 -97 210 -121 l90 -45 -60 57 c-84 80 -298 260 -395 334 -281 214 -608 367 -920 431 -100 21 -142 24 -325 24 -178 -1 -225 -4 -311 -23 -275 -60 -491 -172 -677 -351 -185 -178 -267 -345 -238 -481 26 -120 98 -222 189 -267 54 -26 64 -28 187 -28 187 1 313 35 850 230 132 48 269 96 304 107 190 59 410 90 517 73 l49 -8 -79 -14 c-237 -41 -504 -180 -789 -411 -66 -52 -244 -218 -397 -367 -343 -335 -465 -430 -651 -506 -106 -43 -189 -53 -278 -35 -89 19 -123 39 -198 119 -64 69 -130 186 -169 300 -88 258 -66 628 55 944 98 253 371 541 641 678 275 138 658 201 1011 164z m2057 -1014 c-20 -30 -59 -49 -58 -27 1 5 66 58 78 61 1 1 -8 -15 -20 -34z m-8 -165 c35 -10 36 -10 48 -87 18 -119 15 -223 -8 -286 -33 -87 -135 -177 -201 -177 -90 0 -201 66 -255 152 -30 48 -54 135 -47 174 15 76 126 180 234 218 50 17 176 21 229 6z m316 -350 c19 -34 39 -56 68 -71 l41 -21 -40 7 c-22 3 -59 13 -83 22 -41 15 -42 17 -36 52 7 44 12 61 18 61 3 0 17 -22 32 -50z m562 -165 c42 -29 95 -69 117 -89 38 -33 35 -32 -80 25 -76 37 -160 70 -230 88 l-110 29 113 1 113 0 77 -54z m-618 16 c0 -4 -14 -15 -30 -24 l-30 -18 17 35 c13 28 19 33 30 25 7 -6 13 -14 13 -18z m-698 -165 c32 -25 35 -36 9 -36 -63 0 -227 -55 -356 -120 -457 -228 -746 -590 -851 -1065 -26 -116 -24 -403 5 -645 59 -512 28 -749 -132 -984 -164 -242 -506 -492 -851 -620 -227 -85 -505 -145 -772 -165 -77 -6 -152 -11 -167 -11 l-26 0 25 54 c55 121 55 235 -2 405 -19 57 -32 106 -30 108 2 3 73 -3 158 -12 199 -23 435 -23 549 -1 337 64 550 233 709 561 135 281 176 561 163 1130 -7 318 2 434 42 589 47 180 126 330 239 452 226 245 518 356 1006 382 184 10 247 5 282 -22z m1221 -2 c158 -79 301 -203 354 -307 84 -167 104 -303 123 -862 13 -376 45 -605 117 -845 80 -266 224 -484 397 -602 89 -61 153 -81 281 -86 128 -5 233 16 372 73 364 148 739 540 984 1027 l41 82 21 -28 c30 -42 161 -142 228 -177 32 -16 84 -36 115 -44 32 -8 58 -16 60 -18 5 -5 -62 -161 -121 -277 -244 -485 -434 -748 -663 -918 -102 -76 -196 -124 -328 -168 -100 -34 -120 -38 -249 -42 -164 -5 -260 10 -417 64 -189 66 -360 171 -464 287 -142 158 -266 411 -334 686 -43 171 -65 325 -105 726 -42 432 -59 562 -91 718 -73 347 -178 565 -339 698 -56 46 -52 48 18 13z m-1198 -96 c-138 -23 -141 -22 -52 22 l78 39 37 -22 36 -22 -99 -17z m1296 -399 c17 -50 29 -93 26 -95 -8 -8 -118 265 -117 290 1 22 61 -107 91 -195z m-830 -470 c-7 -44 -9 -47 -10 -19 -1 36 9 84 15 77 3 -2 0 -28 -5 -58z m-1512 -341 c0 -40 -6 -102 -14 -138 l-13 -65 -1 85 c-1 101 8 190 20 190 5 0 9 -33 8 -72z m2526 -556 c9 -68 15 -125 13 -128 -2 -2 -31 1 -64 6 -32 6 -148 10 -256 10 l-198 0 0 39 c0 22 -3 47 -7 57 -6 16 0 16 70 10 47 -4 84 -3 96 3 16 9 21 6 29 -18 15 -41 51 -71 87 -71 41 0 111 46 130 86 22 47 19 220 -8 401 l-23 152 36 23 35 23 22 -235 c12 -129 29 -290 38 -358z m-888 356 c-3 -8 -6 -5 -6 6 -1 11 2 17 5 13 3 -3 4 -12 1 -19z m-1617 -217 c6 -20 17 -79 25 -131 9 -52 22 -115 30 -139 11 -32 15 -91 15 -207 0 -197 -4 -220 -39 -232 l-26 -9 0 216 c-1 192 -14 369 -41 530 -5 31 -4 33 10 22 9 -7 20 -30 26 -50z m1785 -262 c-22 -4 -128 -15 -235 -24 -334 -28 -664 -77 -884 -131 -120 -29 -116 -29 -116 -1 0 34 9 42 102 91 l86 46 44 -25 c51 -30 149 -34 213 -9 28 11 73 16 155 15 77 0 160 7 250 22 94 16 179 23 280 24 98 0 132 -2 105 -8z m-1230 -980 c19 -306 34 -569 34 -585 -3 -72 -29 187 -44 441 -18 306 -48 563 -73 610 -13 26 -42 149 -42 181 0 6 17 18 38 26 l37 14 7 -66 c4 -36 23 -315 43 -621z m42 -696 c-2 -16 -4 -5 -4 22 0 28 2 40 4 28 2 -13 2 -35 0 -50z m-590 -15 c-3 -8 -6 -5 -6 6 -1 11 2 17 5 13 3 -3 4 -12 1 -19z m10 -65 c-3 -10 -5 -2 -5 17 0 19 2 27 5 18 2 -10 2 -26 0 -35z m590 -40 c-3 -10 -5 -2 -5 17 0 19 2 27 5 18 2 -10 2 -26 0 -35z m-580 -35 c-3 -8 -6 -5 -6 6 -1 11 2 17 5 13 3 -3 4 -12 1 -19z m3594 -2633 c-18 -929 -25 -1161 -32 -1030 -4 61 -7 167 -8 236 -1 119 -3 128 -27 165 -26 38 -27 43 -32 239 l-5 201 27 12 c52 23 59 65 52 277 -7 184 9 694 23 725 12 28 12 -245 2 -825z m-2758 -100 c4 -15 -2 -25 -29 -42 l-34 -22 0 119 c0 86 3 120 13 123 8 3 17 -22 28 -77 8 -45 18 -90 22 -101z m824 -121 c-110 -32 -119 -33 -147 -19 -16 8 -38 15 -48 15 -28 0 -70 -37 -86 -74 -12 -30 -20 -34 -76 -45 -53 -11 -65 -10 -85 3 -37 24 -79 20 -116 -11 -31 -27 -116 -57 -123 -44 -10 17 -27 155 -22 177 6 24 8 24 74 17 89 -11 519 -7 607 5 137 18 144 12 22 -24z m1421 -101 c-7 -16 -12 -71 -12 -123 -1 -79 -4 -95 -17 -98 -26 -5 -42 51 -43 146 l-1 87 30 6 c55 12 56 12 43 -18z m-489 -115 c0 -13 -6 -50 -13 -83 -13 -64 -22 -71 -98 -74 l-28 -1 0 74 0 74 58 15 c78 20 82 20 81 -5z m-619 -195 c0 -22 -2 -25 -10 -13 -13 20 -13 40 0 40 6 0 10 -12 10 -27z m-906 -15 c13 -21 10 -24 -36 -32 -37 -7 -38 -6 -38 24 0 29 2 31 31 28 18 -2 37 -11 43 -20z m1215 -1845 c-1 -37 -1 -37 -8 -8 -7 28 -5 45 5 45 2 0 3 -17 3 -37z m1294 -407 c5 -273 5 -278 -13 -248 -10 16 -24 32 -31 34 -10 3 -9 14 4 46 14 35 17 80 17 260 0 123 4 210 9 202 5 -8 11 -140 14 -294z m-571 222 c5 -62 3 -67 -18 -47 -11 12 -13 26 -8 57 9 58 21 53 26 -10z m18 -481 c2 -48 1 -89 -1 -91 -2 -2 -28 -6 -56 -10 l-53 -7 0 47 c0 37 5 50 25 65 32 26 41 77 21 117 -8 16 -22 32 -31 35 -16 7 -20 44 -9 85 4 13 21 29 40 37 19 8 38 22 42 32 7 17 17 -127 22 -310z m-1743 221 c-3 -7 -5 -2 -5 12 0 14 2 19 5 13 2 -7 2 -19 0 -25z m1043 -150 c0 -25 -3 -29 -10 -18 -13 20 -13 50 0 50 6 0 10 -15 10 -32z m-1693 -215 c-3 -10 -5 -4 -5 12 0 17 2 24 5 18 2 -7 2 -21 0 -30z m1929 -45 c-16 -11 -56 -10 -56 2 0 5 12 16 28 24 24 13 28 13 33 -2 4 -10 1 -20 -5 -24z m-1882 -231 c19 -119 43 -233 52 -252 10 -21 31 -43 52 -54 l36 -18 -65 -14 c-42 -10 -65 -11 -66 -4 -5 21 -53 553 -52 571 2 28 5 13 43 -229z m2532 -182 c-7 -27 -13 -30 -36 -15 -13 9 -11 13 9 30 28 24 36 20 27 -15z m-2325 -467 l56 -21 -12 -41 c-11 -37 -17 -43 -70 -63 -33 -13 -73 -37 -91 -54 l-31 -30 -6 33 c-3 18 -9 72 -13 120 l-6 87 58 -5 c33 -3 84 -15 115 -26z m-71 -393 c25 -16 46 -30 48 -30 1 -1 -1 -15 -4 -32 -4 -22 -17 -37 -44 -52 -21 -11 -40 -21 -43 -21 -7 0 -13 35 -22 123 -6 48 -4 57 7 50 7 -4 34 -21 58 -38z m2070 -59 c0 -6 -80 -59 -83 -55 -1 2 -8 12 -15 21 -12 15 -8 18 30 26 49 11 68 14 68 8z m-955 -37 c-56 -17 -426 -91 -431 -86 -9 9 136 56 218 71 97 18 137 23 198 24 42 0 43 0 15 -9z"></path></g></svg> 