<?xml version="1.0" encoding="UTF-8"?> <svg xmlns="http://www.w3.org/2000/svg" width="185" height="3" viewBox="0 0 185 3" fill="none"><path d="M184.5 0.5L178.417 1.64486C173.656 2.54093 168.773 2.57016 164.001 1.73115V1.73115C159.37 0.916687 154.631 0.920228 150 1.74162L149.762 1.784C145.223 2.58907 140.582 2.63471 136.029 1.91903L133.896 1.58385C129.33 0.866205 124.677 0.907097 120.124 1.70488L119.874 1.74874C115.151 2.57636 110.318 2.56041 105.601 1.70163V1.70163C101.23 0.905944 96.7581 0.833369 92.3637 1.4868L89.6319 1.89301C84.6989 2.62653 79.6817 2.58756 74.7607 1.77751V1.77751C69.6211 0.931466 64.3781 0.926778 59.237 1.76363L58.8991 1.81863C54.0864 2.60202 49.1852 2.67919 44.3502 2.04771L40.6195 1.56046C35.2312 0.856716 29.7725 0.884431 24.3917 1.64285V1.64285C18.0137 2.54181 11.5329 2.41327 5.19563 1.26212L1 0.5" stroke="black"></path></svg> 